<svg width="606" height="530" viewBox="0 0 606 530" fill="none" xmlns="http://www.w3.org/2000/svg">
<path d="M273.138 7.99548C267.95 80.8514 262.765 153.707 257.583 226.563C264.089 229.859 273.538 234.462 285.138 239.446C325.506 256.798 349.425 260.548 396.247 272.32C485.867 294.857 506.258 308.304 550.466 300.308C560.135 298.56 569.647 296.034 578.91 292.755C586.825 240.89 593.092 203.511 597.576 177.696C602.909 147.008 608.078 119.087 598.909 84.4053C596.189 74.1444 592.467 64.1752 587.798 54.641C556.166 51.6794 523.871 48.1255 490.911 43.9792C414.286 34.2592 341.612 21.9669 273.138 7.99548Z" fill="#CFFFFF"/>
<path d="M604.731 78.3101C604.496 73.037 603.842 61.5488 595.842 54.2588C587.767 46.8755 576.287 47.5196 572.478 47.6529C525.568 49.2833 323.381 18.8704 290.23 3.31742C287.83 2.19349 279.075 -2.24895 272.942 1.43383C267.324 4.8012 266.671 13.3129 266.4 16.5381C260.724 83.0858 260.622 150.078 253.782 216.514C253.578 218.491 252.765 225.168 256.587 230.663C259.92 235.461 265.231 237.114 267.333 237.736C467.8 297.198 568.021 326.913 589.776 287.247C591.887 283.4 591.66 281.916 593.514 263.191C596.878 229.229 607.291 136.439 604.731 78.3101ZM583.576 258.326C581.798 275.976 582.025 277.362 580.02 280.983C559.332 318.344 464.023 290.343 273.36 234.337C271.36 233.751 266.311 232.192 263.138 227.674C259.502 222.498 260.275 216.208 260.471 214.346C266.969 151.77 267.075 88.6699 272.471 25.9872C272.733 22.9619 273.36 14.9477 278.693 11.7714C284.528 8.30183 292.853 12.4866 295.137 13.5483C326.665 28.2084 518.959 56.8399 563.576 55.3072C567.194 55.1828 578.118 54.5742 585.798 61.5266C593.389 68.3991 594.02 79.2164 594.242 84.183C596.687 138.936 586.776 226.35 583.576 258.326Z" fill="#A8A7A7"/>
<path d="M380.913 112.169C380.024 98.029 379.58 90.9566 383.58 83.2934C390.215 70.6192 405.739 62.5828 420.468 63.3025C443.134 64.4086 456.627 85.9233 460.912 100.175C462.201 104.466 466.658 119.277 459.134 133.049C454.09 142.276 445.974 146.776 438.69 150.818C430.757 155.221 423.739 159.117 414.246 158.371C399.411 157.207 390.366 145.634 388.913 143.71C382.362 135.048 381.798 126.118 380.913 112.169Z" fill="#B23200"/>
<path d="M390.691 85.9596C388.811 87.59 387.855 87.0658 386.247 88.6251C382.313 92.4322 384.469 100.1 385.358 103.285C386.469 107.341 388.62 111.664 390.469 111.504C391.331 111.428 391.802 110.411 392.691 110.615C393.58 110.819 394.024 112.081 394.469 113.281C394.895 114.495 395.12 115.77 395.135 117.057C395.749 121.281 398.326 129.749 404.024 134.826C406.602 137.123 407.922 137.048 408.468 138.825C409.668 142.752 404.997 148.66 399.58 151.263C393.402 154.231 390.158 151.01 381.358 151.708C369.642 152.636 361.314 159.322 358.692 161.481C349.358 169.171 345.803 178.806 344.47 183.249C341.701 175.661 339.443 169.291 337.803 164.591C333.021 150.899 331.074 144.631 330.248 141.934C327.581 133.303 326.283 128.989 326.248 127.718C326.074 121.375 327.794 104.498 328.025 101.064C328.057 100.62 328.114 99.589 327.581 99.2869C326.932 98.9182 325.763 99.8511 325.359 100.175C321.483 103.263 320.306 109.922 318.692 109.949C317.172 109.975 316.47 104.098 313.359 95.733C311.524 90.7974 308.786 84.8401 308.026 85.0711C306.586 85.5154 313.15 107.91 311.137 108.616C308.995 109.367 299.062 84.8623 297.359 85.5154C296.591 85.8086 297.866 91.0773 298.693 93.956C301.359 103.236 305.693 109.744 305.359 109.949C305.026 110.153 301.466 103.498 294.248 97.5099C293.159 96.6214 289.186 93.3118 288.471 93.956C286.875 95.3953 303.057 115.093 301.804 116.168C300.879 116.963 291.417 106.741 290.248 107.728C289.573 108.301 292.057 112.299 293.359 114.391C295.382 117.647 297.679 121.339 301.804 125.053C307.284 129.984 309.497 129.105 312.47 133.049C315.226 136.701 315.723 140.637 316.026 143.267C318.092 161.308 319.137 170.33 319.581 182.805C320.181 199.242 320.47 207.434 323.137 215.234C325.11 221.01 331.137 238.744 340.914 238.779C347.581 238.806 354.247 230.587 357.803 219.677C357.361 233.142 358.329 246.617 360.691 259.881L473.134 290.978C482.022 198.78 474.654 175.475 465.801 172.143C462.378 170.855 455.676 167.563 442.245 161.037C438.659 159.295 435.068 157.483 432.912 153.485C430.552 149.104 430.246 142.694 433.357 138.825C435.068 136.697 436.188 137.354 439.134 134.826C443.037 131.477 444.623 127.274 445.801 124.165C448.379 117.341 447.001 114.733 450.245 110.837C452.156 108.545 452.85 109.189 454.69 106.839C457.156 103.685 459.458 97.9853 457.356 93.956C455.636 90.6597 452.53 91.4549 450.245 87.7366C448.494 84.8801 449.165 82.5167 448.912 79.2959C448.339 71.9348 443.325 65.0802 438.246 61.5262C430.055 55.8132 420.357 57.8034 417.357 58.4165C408.686 60.1935 396.744 66.5595 394.691 75.742C394.051 78.6296 394.091 83.0098 390.691 85.9596Z" fill="#FF5100"/>
<path d="M420.913 68.6348C420.735 68.6926 421.504 70.3363 421.22 72.5042C421.042 73.6529 420.636 74.7542 420.024 75.7427C418.362 78.2571 410.691 78.8524 410.691 78.8524C406.829 79.119 401.313 81.3046 394.469 90.1806C394.336 89.883 393.22 87.5152 391.136 87.293C389.9 87.1642 388.954 87.9105 388.469 88.1815C385.047 90.1051 384.318 96.1779 384.914 100.62C385.576 105.56 387.474 105.507 388.469 110.394C389.776 116.804 386.789 118.257 387.58 123.721C388.576 130.589 393.651 130.771 397.358 139.27C399.656 144.538 401.66 153.53 398.247 156.151C394.371 159.127 384.025 153.485 378.247 146.377C374.834 142.175 373.478 138.021 372.469 134.827C371.745 132.535 369.527 124.934 370.692 111.726C371.523 102.295 372.638 89.6031 381.358 77.0754C384.817 72.1654 389.014 67.8196 393.802 64.1924C398.456 60.6384 403.464 56.849 410.691 55.7518C411.322 55.654 414.246 55.5385 420.024 55.3075C427.646 55.0054 431.459 54.8633 432.024 54.8633C442.539 55.081 451.419 67.3821 454.246 71.3003C461.73 81.6689 463.09 91.6911 465.801 111.726C468.81 133.939 465.979 141.046 463.134 145.489C460.783 149.157 457.582 152.205 453.801 154.374C442.188 160.94 426.891 157.568 426.246 153.93C425.873 151.819 430.691 151.06 438.246 143.712C443.952 138.168 447.01 135.196 448.024 130.385C449.068 125.436 447.472 120.807 448.468 113.503C448.659 112.108 449.037 109.918 450.69 108.172C451.899 106.898 452.539 107.173 453.801 105.951C456.09 103.73 456.334 100.554 456.468 98.8434C456.659 96.3734 456.832 93.8057 455.134 92.624C453.223 91.2912 450.335 92.6906 450.023 92.8461C447.942 89.0229 445.152 85.6307 441.801 82.8506C437.966 79.6787 435.446 77.5819 431.579 77.0754C428.099 76.6312 424.913 77.6352 423.58 75.7427C423.135 75.1252 423.393 74.8542 422.691 72.633C421.988 70.4118 421.104 68.5726 420.913 68.6348Z" fill="#FF976E"/>
<path d="M491.578 69.5227C490 71.2197 489.867 73.4409 489.8 74.4094C488.911 86.8748 487.271 99.287 486.245 111.726C486.111 113.365 485.8 117.057 488.022 119.278C489.125 120.291 490.53 120.916 492.022 121.055C542.755 128.065 551.177 127.95 568.021 127.719C568.719 127.719 570.652 127.687 572.021 126.386C574.11 124.396 573.536 120.695 573.354 119.278C573.154 117.723 573.963 105.36 575.576 80.6288C575.621 79.918 575.745 78.1499 574.687 76.6306C573.034 74.2628 569.59 74.054 568.465 73.9651C545.172 72.1304 522.048 67.7457 498.689 67.3015C497.324 67.2748 493.747 67.1904 491.578 69.5227Z" fill="#A8A7A7"/>
<path d="M532.91 90.403C528.466 90.6163 528.124 92.4421 522.688 92.6243C516.204 92.8419 514.48 90.3186 509.355 90.403C502.195 90.523 494.653 95.6362 495.133 98.3994C496.022 103.49 523.684 98.0351 536.021 109.506C538.621 111.939 541.63 113.894 544.91 115.281C547.075 116.196 553.95 119.097 556.465 116.613C559.23 113.886 555.794 105.578 552.021 100.621C551.581 100.043 543.626 89.8922 532.91 90.403Z" fill="#9385A0"/>
<path d="M510.244 103.286C509.2 106.151 509.924 110.393 512.911 111.726C515.133 112.708 517.671 111.673 519.133 110.393C521.519 108.301 522.502 104.241 520.466 101.509C519.761 100.569 518.795 99.858 517.689 99.4631C516.583 99.0681 515.385 99.007 514.244 99.2873C511.422 100.06 510.409 102.837 510.244 103.286Z" fill="#E6FF28"/>
<path d="M509.355 77.9633C507.04 79.6203 505.92 83.2364 507.577 85.5154C509.382 87.9943 513.853 88.052 516.022 85.5154C518.048 83.1476 517.582 79.0916 515.133 77.519C513.302 76.3418 510.871 76.8793 509.355 77.9633Z" fill="#E6FF28"/>
<path d="M537.799 77.0731C535.332 77.8417 534.244 81.7643 535.132 84.6253C535.604 86.1268 536.964 88.4146 539.132 88.6234C541.83 88.8855 544.501 85.8158 544.466 82.8483C544.426 79.2854 540.497 76.2335 537.799 77.0731Z" fill="#E6FF28"/>
<path d="M560.465 93.0666C556.425 95.5144 557.252 101.694 557.354 102.396C557.434 102.938 558.243 108.135 560.91 108.615C563.43 109.059 566.145 105.008 567.132 101.951C567.985 99.3216 568.576 94.2839 565.798 92.6224C564.101 91.6051 561.812 92.2492 560.465 93.0666Z" fill="#E6FF28"/>
<path d="M562.466 161.925C568.479 161.925 573.354 157.052 573.354 151.041C573.354 145.03 568.479 140.157 562.466 140.157C556.452 140.157 551.577 145.03 551.577 151.041C551.577 157.052 556.452 161.925 562.466 161.925Z" fill="#5F00A2"/>
<path d="M557.577 193.466C563.59 193.466 568.465 188.593 568.465 182.582C568.465 176.571 563.59 171.698 557.577 171.698C551.563 171.698 546.688 176.571 546.688 182.582C546.688 188.593 551.563 193.466 557.577 193.466Z" fill="#5F00A2"/>
<path d="M555.354 225.008C561.368 225.008 566.243 220.135 566.243 214.124C566.243 208.113 561.368 203.24 555.354 203.24C549.34 203.24 544.465 208.113 544.465 214.124C544.465 220.135 549.34 225.008 555.354 225.008Z" fill="#5F00A2"/>
<path d="M553.132 253.438C559.146 253.438 564.021 248.565 564.021 242.554C564.021 236.543 559.146 231.67 553.132 231.67C547.118 231.67 542.243 236.543 542.243 242.554C542.243 248.565 547.118 253.438 553.132 253.438Z" fill="#5F00A2"/>
<path d="M410.691 123.275C411.482 122.066 414.309 123.852 422.247 124.163C428.389 124.403 430.517 123.479 431.135 124.607C432.26 126.66 427.411 133.803 421.358 133.936C414.54 134.083 409.385 125.274 410.691 123.275Z" fill="#680D0D"/>
<path d="M287.169 31.2985C289.412 30.1647 291.926 29.6771 294.431 29.8902C294.951 29.9302 297.502 30.6943 297.72 30.5477C298.289 30.1701 296.906 31.8271 297.746 30.2412C297.706 30.3212 297.582 28.9396 297.893 29.0329L297.257 29.5437C293.306 31.6761 289.778 34.5681 288.213 38.8728C286.738 42.9643 286.88 48.6995 291.36 50.7919C294.875 52.44 299.36 51.6804 302.884 50.3787C306.542 49.0194 310.382 46.7359 312.053 43.0443C313.764 39.2549 312.324 32.7156 307.871 31.3829C302.84 29.8725 299.302 36.6427 298.706 40.6009C298.026 45.0878 300.115 49.4325 303.36 52.4178C309.893 58.4329 321.506 58.2196 328.057 52.2668C330.932 49.6546 332.603 45.3943 331.95 41.5116C331.088 36.3851 325.728 34.6125 321.141 35.6965C316.302 36.8471 313.435 40.9164 314.355 45.8519C315.275 50.7875 319.15 55.2477 323.919 56.7892C328.964 58.4151 335.03 56.9402 339.177 53.7861C341.087 52.3048 342.709 50.4859 343.963 48.4196C344.474 47.6067 344.919 46.7582 345.385 45.9185C345.58 45.6485 345.744 45.358 345.874 45.0523C345.874 44.9767 346.105 44.7768 346.092 44.7102C346.159 45.0212 343.425 44.3903 343.305 44.4303C343.039 44.5192 343.408 43.6973 343.217 44.337C343.187 44.6325 343.187 44.9301 343.217 45.2255C343.217 46.0651 343.119 46.9048 343.043 47.7399C342.874 49.5969 342.648 51.4538 342.599 53.3152C342.523 56.2916 343.239 60.9429 347.368 60.0633C351.048 59.2814 354.367 54.9145 356.296 51.9292C356.803 51.1473 357.665 50.0678 357.892 49.1526C357.923 49.0194 358.15 48.8372 358.15 48.7084C358.15 48.5796 355.51 48.1797 355.185 48.3441C355.043 48.4152 355.185 48.002 355.101 48.3441C354.919 48.9972 355.136 50.0456 355.132 50.7297C355.132 52.1868 355.079 53.6395 355.061 55.0966C355.025 57.9664 355.046 60.8377 355.123 63.7105C355.199 66.5625 359.643 66.5759 359.567 63.7105C359.443 58.9971 359.625 54.2925 359.567 49.5835C359.567 47.4556 358.763 43.4352 355.603 45.1145C354.483 45.7097 353.968 47.0736 353.381 48.122C352.447 49.7968 351.316 51.3539 350.012 52.7599C349.483 53.3285 348.936 53.8838 348.359 54.4036C348.092 54.639 346.581 55.4609 346.523 55.7097L346.337 55.7496C346.519 55.7194 346.706 55.7433 346.875 55.8183C347.044 55.8933 347.188 56.0162 347.288 56.1717C347.288 56.1717 347.159 56.1317 347.208 55.9807C347.332 55.6075 347.025 54.5768 347.021 54.1415C346.977 51.0318 347.688 47.9843 347.652 44.8968C347.621 42.6756 346.19 39.5659 343.425 41.2007C342.47 41.7693 341.946 42.8755 341.43 43.8128C340.62 45.4256 339.638 46.9463 338.501 48.3486C335.603 51.6582 330.795 53.6128 326.399 52.8176C322.359 52.0891 317.955 47.5756 318.608 43.182C319.088 39.9124 325.408 38.2287 327.221 41.2007C328.768 43.7373 326.648 47.6644 324.693 49.2948C321.964 51.5604 318.124 52.4045 314.644 52.3245C312.924 52.3097 311.226 51.9416 309.655 51.2431C308.084 50.5446 306.673 49.5306 305.511 48.2641C302.537 44.9501 302.071 40.1523 305.137 36.6694C305.444 36.3229 306.284 35.5455 306.537 35.6032C307.253 35.7631 307.817 37.1892 308.008 37.7489C308.306 38.5273 308.39 39.371 308.252 40.1927C308.113 41.0144 307.758 41.7842 307.222 42.4223C305.195 44.959 301.671 46.3361 298.586 46.9625C297.057 47.269 295.24 47.4601 293.733 46.9625C291.889 46.345 291.649 44.5414 291.818 42.7733C292.298 37.7622 295.92 35.7898 299.626 33.2487C302.928 30.9875 302.462 27.3891 298.542 26.1008C294.098 24.6437 288.991 25.3234 284.898 27.4336C282.356 28.7396 284.6 32.5735 287.12 31.2674L287.169 31.2985Z" fill="#5F00A2"/>
<path d="M544.021 141.934L501.355 137.492C498.515 137.194 498.533 141.641 501.355 141.934L544.021 146.377C546.861 146.674 546.843 142.227 544.021 141.934Z" fill="black"/>
<path d="M543.026 173.889L500.36 169.446C497.516 169.149 497.538 173.591 500.36 173.889L543.026 178.331C545.866 178.624 545.844 174.182 543.026 173.889Z" fill="black"/>
<path d="M535.47 205.875L492.804 201.433C489.96 201.135 489.982 205.577 492.804 205.875L535.47 210.318C538.31 210.611 538.288 206.168 535.47 205.875Z" fill="black"/>
<path d="M536.804 237.86L494.138 233.418C491.294 233.12 491.316 237.563 494.138 237.86L536.804 242.303C539.644 242.596 539.622 238.153 536.804 237.86Z" fill="black"/>
<path d="M542.244 155.262L514.244 152.596" stroke="black" stroke-width="3" stroke-miterlimit="10"/>
<path d="M542.435 187.12L514.435 184.454" stroke="black" stroke-width="3" stroke-miterlimit="10"/>
<path d="M538.879 191.116L510.88 188.451" stroke="black" stroke-width="3" stroke-miterlimit="10"/>
<path d="M533.99 215.55L492.911 211.68" stroke="black" stroke-width="3" stroke-miterlimit="10"/>
<path d="M529.546 247.978L501.547 245.312" stroke="black" stroke-width="3" stroke-miterlimit="10"/>
<path d="M519.175 263.886C475.922 215.015 365.552 277.308 283.24 224.069C277.72 220.498 275.215 218.275 268.848 215.259C234.528 198.987 198.174 211.806 130.234 235.76C124.347 237.834 110.088 244.937 81.5736 259.142C67.3284 266.238 59.1829 270.517 55.8726 279.474C52.6206 288.284 54.6732 299.833 60.6701 307.599C75.9159 327.345 108.508 312.005 156.963 322.171C183.692 327.782 179.282 333.611 217.96 347.585C255.024 360.974 287.836 364.827 351.948 371.984C399.46 377.287 423.622 379.852 443.443 375.711C454.631 373.37 520.816 359.534 531.511 316.749C535.171 302.103 533.365 279.924 519.175 263.886Z" fill="#9385A0"/>
<path d="M201.208 165.191C193.268 168.408 179.014 174.125 169.644 189.585C160.673 204.377 161.448 219.364 162.038 225.032L181.053 219.315L189.419 212.454C203.498 208.32 218.103 206.266 232.773 206.355C256.07 206.534 274.157 212.221 278.409 218.552C279.873 220.837 281.667 222.892 283.733 224.651C286.008 226.573 288.576 228.117 291.339 229.225C292.757 224.498 296.511 209.786 289.818 193.777C282.714 176.801 268.49 169.471 262.436 166.334C235.918 152.597 208.97 162.046 201.208 165.191Z" fill="#5F00A2"/>
<path d="M226.118 105.54C211.963 108.97 202.509 124.674 203.87 136.985C205.304 149.963 218.128 153.489 216.61 163.094C215.408 170.69 206.974 171.072 195.694 181.389C184.148 191.947 170.819 211.813 176.299 225.985C179.493 234.256 188.598 239.291 194.173 242.374C202.851 247.177 206.567 245.827 214.328 251.903C219.527 255.974 220.744 258.84 225.357 259.907C231.883 261.432 239.405 257.979 239.428 255.333C239.447 252.604 231.465 253.047 220.413 246.186C218.219 244.825 213.218 240.305 203.3 231.321C198.196 226.697 193.888 224.868 193.792 221.03C193.72 218.228 195.717 215.884 197.405 214.359C217.777 208.958 239.112 208.306 259.774 212.454C261.219 213.471 263.216 215.247 264.147 217.98C266.292 224.281 261.268 231.294 256.922 234.751C254.952 236.314 252.438 237.316 247.414 239.325C238.637 242.828 234.864 243.098 234.864 244.28C234.887 245.805 241.375 247.878 247.795 246.948C253.712 246.09 257.785 242.95 259.964 241.231C277.199 227.616 285.824 220.808 286.204 216.837C287.577 202.715 264.147 183.066 254.26 177.197C252.662 176.251 246.813 172.932 245.132 166.906C244.847 165.892 243.916 162.557 245.513 159.664C247.148 156.691 249.738 157.293 252.738 154.327C256.07 151.034 256.644 146.559 256.922 144.417C257.488 140.015 256.306 137.599 255.02 132.22C252.111 120.043 254.8 118.304 252.358 113.925C248.209 106.485 235.815 103.188 226.118 105.54Z" fill="#E6FF28"/>
<path d="M72.1785 361.147C72.2056 363.735 72.3292 365.31 71.5758 367.51C69.2464 374.3 62.436 375.758 62.8368 379.933C63.0568 382.239 65.359 384.084 65.8502 384.478C67.8482 386.081 68.9963 385.451 70.6718 386.902C72.6275 388.596 71.7204 390.023 73.6852 393.265C74.2457 394.174 76.2014 397.316 79.7121 398.416C81.3032 398.913 83.8888 399.204 84.5336 398.113C84.9947 397.334 84.3106 396.113 83.0269 393.871C82.2883 392.617 81.4835 391.403 80.6162 390.235C78.8563 387.611 78.8322 384.73 78.8081 381.751C78.7923 377.913 79.5084 374.107 80.9175 370.54C88.424 351.806 98.51 339.349 95.0807 333.877C92.4168 329.635 81.5353 329.481 76.6987 334.18C71.9254 338.813 72.0429 349.127 72.1785 361.147Z" fill="#AAB51C"/>
<path d="M41.4978 363.671C41.9077 369.046 42.9383 383.545 42.6339 393.75C42.5977 394.868 42.4742 397.992 40.9313 398.598C38.8008 399.443 36.5678 394.492 31.6589 393.844C27.9493 393.353 24.074 395.501 24.1434 396.843C24.2699 399.21 36.6643 399.022 37.0168 401.909C37.4206 405.185 21.8803 408.472 22.3021 411.281C22.5402 412.854 27.7957 414.438 32.4334 413.069C38.2734 411.348 39.6657 405.967 44.213 406.182C45.6413 406.248 45.5087 406.788 49.4383 408.763C54.6485 411.399 59.1989 413.611 63.3695 412.096C63.5352 412.036 66.6843 410.851 66.63 409.336C66.6089 408.618 65.8646 407.503 55.9082 403.849C51.2494 402.137 49.9837 401.858 49.8089 400.888C49.2816 397.943 59.9311 394.853 59.3435 391.98C59.1024 390.817 57.0804 389.989 55.5676 390.132C54.522 390.232 53.9133 390.777 52.06 392.253C51.1017 393.019 49.6643 394.159 47.8411 395.537C48.5423 384.957 49.2454 374.374 49.9506 363.789L41.4978 363.671Z" fill="#A8A7A7"/>
<path d="M64.6441 271.46C68.2603 260.585 95.9449 258.882 108.641 265.703C113.739 268.43 118.585 272.369 118.585 272.369C120.872 274.22 119.712 273.538 126.721 279.944C128.767 281.813 129.816 282.741 130.94 284.489C131.654 285.601 134.297 289.716 132.748 292.367C132.173 293.352 131.003 294.157 130.337 293.882C129.551 293.555 130.036 291.961 129.132 289.337C128.529 287.607 127.475 285.87 127.023 286.004C126.851 286.052 126.806 286.355 126.721 286.913C126.571 287.901 126.757 288.394 126.721 289.337C126.697 289.903 126.661 290.773 126.42 290.852C126.088 290.958 125.166 289.67 122.502 283.277C118.913 280.81 113.604 277.911 106.832 276.914C88.2214 274.169 75.1731 288.213 67.6576 282.368C64.5055 279.914 63.502 274.881 64.6441 271.46Z" fill="#AAB51C"/>
<path d="M78.5064 198.74C70.8492 200.667 62.8575 206.948 61.3297 215.102C60.6065 218.962 61.5196 222.238 62.2337 224.798C65.1568 235.285 72.4132 238.218 71.2741 244.19C71.1566 244.796 70.9035 245.69 66.9046 250.401C63.8188 254.037 61.8812 256.446 59.3469 258.955C57.5388 260.752 56.0863 261.934 55.7548 262.218C46.4644 270.175 39.3315 287.519 39.3315 287.519C31.2916 307.065 19.8797 334.814 30.8938 345.694C33.1087 347.882 35.631 348.794 39.6329 350.239C47.1665 352.966 54.6579 352.869 65.2472 352.663C67.0553 352.627 66.8473 352.603 68.9055 352.563C80.0041 352.351 85.5518 352.245 87.5467 353.875C90.4638 356.257 88.267 359.678 88.4508 372.661C88.6858 389.359 92.4858 395.301 88.4508 400.84C87.8692 401.637 85.6031 404.512 85.4373 408.415C85.3921 409.448 85.3319 411.494 86.6427 412.657C87.161 413.118 87.8752 413.421 90.8615 413.566C93.3627 413.684 94.8303 413.566 95.6831 413.566C99.1606 413.566 100.562 415.557 104.121 417.202C110.087 419.956 117.027 419.371 117.38 418.111C117.594 417.338 115.325 416.366 112.558 414.475C108.161 411.247 104.383 407.243 101.409 402.658C95.2582 393.029 107.023 380.36 111.353 349.936C113.041 338.077 112.064 334.311 109.846 331.756C104.763 325.896 92.6304 325.781 83.6293 325.697C75.731 325.621 71.3314 326.627 69.466 323.879C67.6971 321.273 69.5564 317.025 71.5754 312.365C73.4501 308.05 75.9929 304.062 79.1091 300.548C87.9867 302.617 95.5957 303.932 101.409 304.79C101.409 304.79 119.315 308.123 130.639 306.002C137.603 304.696 141.488 303.275 141.488 303.275C143.261 302.569 145.072 301.962 146.912 301.457C150.703 300.448 152.601 299.942 154.445 300.548C156.214 301.123 156.928 302.178 159.568 302.669C160.792 302.896 161.717 303.069 161.979 302.669C162.717 301.532 158.309 295.439 152.637 294.488C149.341 293.933 147.617 295.451 143.597 296.609C140.885 297.384 137.871 297.781 127.324 296.609C112.414 294.948 104.958 294.118 101.409 292.064C89.6742 285.267 86.1184 272.551 85.136 269.036C83.6865 263.849 82.0321 257.852 85.136 252.674C87.4804 248.762 92.2236 245.838 96.5871 244.796C100.408 243.887 101.764 244.932 103.819 243.281C105.664 241.793 105.465 240.224 108.942 234.797C110.196 232.84 110.28 232.952 110.449 232.373C111.452 228.892 107.845 226.616 106.833 222.071C105.878 217.778 108.306 216.314 108.038 212.981C107.396 205.079 92.1754 195.295 78.5064 198.74Z" fill="#E6FF28"/>
<path d="M103.066 205.861C101.698 208.839 98.7446 209.975 93.8748 211.769C86.1513 214.611 85.0906 213.017 80.917 215.102C75.6464 217.732 71.8615 224.116 71.8766 229.646C71.8766 233.127 73.3984 233.827 72.7806 236.918C71.7952 241.833 67.0551 244.638 65.247 245.705C62.8574 247.117 58.0931 249.947 54.3986 248.129C51.3851 246.662 52.2892 243.705 47.769 238.736C45.0147 235.706 44.2674 236.339 42.3448 233.888C39.934 230.825 37.6468 225.404 39.03 220.556C40.5367 215.284 44.7555 216.199 48.673 209.648C52.3344 203.497 49.8784 200.513 53.4946 196.922C56.508 193.925 58.4487 195.743 67.0551 192.68C75.327 189.732 77.3008 186.699 81.5197 187.832C84.4548 188.62 84.0208 190.077 88.1493 192.074C94.6553 195.219 98.0936 192.556 101.258 195.559C103.852 198.019 104.536 202.655 103.066 205.861Z" fill="#AAB51C"/>
<path d="M46.865 259.946C52.4369 261.715 54.929 268.672 55.604 270.55C59.5215 281.458 53.8894 293.054 47.4677 306.304C41.9199 317.748 37.2853 323.19 37.8247 332.968C38.0748 337.513 38.2435 340.573 40.5368 342.664C47.9378 349.406 71.9791 341.049 83.0264 337.21C84.1715 336.81 87.42 335.659 91.1628 336.604C95.4057 337.674 99.724 341.298 100.203 344.785C101.348 353.148 80.5373 361.974 78.2049 362.965C69.6286 366.601 31.2885 382.86 10.4022 361.45C-10.484 340.04 6.18342 301.499 8.29283 296.608C16.6371 277.325 35.209 256.24 46.865 259.946Z" fill="#5F00A2"/>
<path d="M498.358 449.699C497.818 455.435 497.14 463.645 496.735 473.787C501.198 471.464 505.171 469.573 508.503 468.071C511.185 466.846 513.238 465.997 515.807 466.438C517.718 466.768 520.879 467.985 521.082 469.704C521.626 474.301 500.622 479.021 501.198 482.769C501.677 485.875 516.472 485.047 519.053 491.342C519.75 493.339 520.292 495.386 520.676 497.466C521.155 499.953 521.394 501.198 521.082 501.549C518.607 504.329 498.062 493.286 496.735 492.567C495.976 492.159 493.955 491.044 491.459 491.342C488.964 491.64 487.239 493.204 486.59 493.792C478.503 501.104 468.329 510.31 464.677 508.489C463.939 508.122 463.375 506.477 462.243 503.182C461.111 499.887 460.473 498.042 460.62 496.65C461.313 489.974 480.459 488.566 480.503 484.81C480.548 480.874 459.577 478.388 459.808 475.011C459.889 473.811 462.624 472.876 467.112 471.337C470.192 470.28 471.775 469.737 473.605 469.704C480.122 469.581 483.421 476.04 485.373 475.42C487.734 474.668 487.503 463.743 480.097 428.469C484.155 428.42 493.671 428.828 497.546 435.001C499.64 438.337 499.1 441.819 498.358 449.699Z" fill="#A8A7A7"/>
<path d="M447.025 454.394C446.145 456.272 444.59 459.408 445.402 462.968C445.832 464.887 446.644 465.556 448.243 469.908C449.744 473.991 449.561 474.848 449.46 475.216C448.73 477.8 445.276 479.335 442.562 479.707C437.355 480.417 436.247 476.653 430.388 476.441C425.113 476.249 424.058 479.237 419.432 478.482C414.729 477.714 410.354 473.738 410.91 471.541C411.547 468.998 418.32 470.651 426.33 465.417C430.088 462.968 430.972 461.045 431.199 460.518C432.778 456.844 431.074 453.079 429.576 449.087C427.33 443.062 425.633 436.844 424.504 430.51C396.533 418.262 379.583 399.449 382.708 387.642C386.64 372.781 421.919 370.674 439.924 372.128C454.824 373.332 464.052 374.079 467.923 380.702C475.491 393.644 460.53 425.578 447.025 454.394Z" fill="#AAB51C"/>
<path d="M394.882 342.732C392.041 339.829 395.925 330.382 400.563 324.768C407.246 316.68 412.383 320.314 429.78 309.662C432.028 308.286 435.728 305.906 441.142 305.171C446.035 304.506 452.625 305.151 453.315 307.621C454.042 310.23 447.959 314.051 443.171 317.011C398.826 344.41 396.071 343.944 394.882 342.732Z" fill="#AAB51C"/>
<path d="M496.125 224.13C492.916 224.494 491.662 221.105 488.821 221.681C486.792 222.089 486.987 223.906 484.358 225.355C481.221 227.086 479.082 225.551 476.648 226.58C474.655 227.425 472.5 230.005 471.778 237.603C464.632 244.686 463.354 250.133 463.662 253.934C464.028 258.457 466.633 260.519 465.691 265.365C464.75 270.211 461.479 271.453 462.039 275.164C462.445 277.956 464.381 277.773 466.503 282.104C468.625 286.436 467.489 288.122 469.343 291.086C470.411 292.793 472.5 294.973 477.053 296.394C473.88 296.741 470.751 297.425 467.72 298.435C461.991 300.346 458.667 302.636 455.141 304.559C449.196 307.805 447.735 307.115 436.677 310.887C436.677 310.887 417.463 317.444 401.78 329.668C399.455 331.466 397.473 333.672 395.928 336.18C394.037 339.262 392.402 341.928 393.258 343.549C395.425 347.652 413.41 344.961 426.939 339.058C431.203 337.196 433.723 335.518 437.692 335.996C446.696 337.082 452.609 348.134 455.141 355.184C457.778 362.533 459.174 375.598 452.706 382.947C437.067 400.719 390.361 368.249 372.36 386.621C363.644 395.513 366.383 411.526 367.085 415.608C371.143 439.312 398.46 470.275 404.011 475.624C404.681 476.269 406.779 478.224 406.852 480.931C406.933 484.001 404.36 486.431 402.794 487.872C399.045 491.322 395.015 492.714 392.244 493.588C379.12 497.727 373.35 496.817 372.36 499.712C371.548 502.129 374.389 506.207 378.041 508.285C388.689 514.328 398.736 499.205 414.968 503.386C417.914 504.145 422.004 505.778 426.736 504.203C427.636 503.9 432.068 502.423 434.04 498.079C435.927 493.918 434.356 489.778 433.634 487.872C431.577 482.442 427.714 479.674 425.518 477.665C417.776 470.582 420.933 463.972 413.75 441.737C408.65 425.954 404.32 420.81 406.852 418.058C410.139 414.485 420.495 419.826 429.17 423.365C447.966 431.037 478.51 438.271 496.937 432.347C532.35 420.965 553.825 351.073 533.052 324.156C524.312 312.835 507.301 308.082 504.241 291.086C503.673 287.934 502.212 279.773 506.676 274.755C511.083 269.811 518.48 271.032 520.067 266.182C521.256 262.536 518.038 258.898 520.067 256.792C521.528 255.273 523.975 256.363 524.936 254.75C525.72 253.428 524.275 252.366 524.125 249.443C523.93 245.662 526.227 244.911 525.748 241.686C525.399 239.342 524.174 239.644 523.313 236.378C522.559 233.52 523.24 232.296 522.096 231.071C520.879 229.744 519.661 230.642 518.038 229.438C515.53 227.568 516.914 224.253 514.792 222.905C513.124 221.848 511.951 223.681 508.299 223.314C504.647 222.946 504.067 220.893 501.401 221.272C498.735 221.652 498.645 223.844 496.125 224.13Z" fill="#E6FF28"/>
<path d="M514.386 321.706C518.383 314.317 522.685 311.312 525.343 309.867C528.094 308.368 532.395 306.747 535.487 307.009C546.963 307.972 555.412 335.996 558.212 357.634C561.649 384.196 565.536 414.241 546.444 435.613C518.594 466.785 466.008 452.475 449.054 447.862C440.626 445.567 400.4 434.621 397.113 411.934C396.383 406.892 397.215 399.473 401.577 396.828C407.936 392.974 416.53 402.466 436.069 411.526C449.655 417.825 465.047 424.962 482.329 421.732C486.318 420.985 504.708 417.552 511.546 403.768C517.353 392.059 508.364 385.894 507.894 353.143C507.784 346.582 507.967 333.563 514.386 321.706Z" fill="#5F00A2"/>
<path d="M260.78 466.371L261.987 481.196C255.973 481.689 254.146 483.412 253.538 484.802C252.038 488.22 257.188 491.169 260.378 500.829C262.39 506.915 261.452 509.11 263.999 511.246C267.218 513.95 273.253 514.251 276.471 511.246C279.368 508.541 279.054 504.034 278.885 501.63C278.624 497.908 277.364 497.058 276.874 492.815C276.508 489.662 276.874 487.242 277.276 484.802C278.27 478.792 280.495 466.608 283.713 450.745L260.78 466.371Z" fill="#AAB51C"/>
<path d="M224.543 467.488C229.616 482.221 231.672 493.688 232.589 501.545C232.428 500.443 232.227 499.141 232.187 499.141C232.07 499.141 234.557 509.723 231.785 511.161C229.415 512.391 225.923 505.552 219.312 505.552C215.454 505.552 211.543 507.924 211.668 509.558C211.933 513 230.014 513.012 230.175 515.969C230.336 518.926 213.124 520.777 213.277 523.582C213.37 525.276 219.747 527.344 225.75 525.986C231.994 524.575 231.949 520.777 237.015 519.575C246.103 517.395 252.834 527.989 258.741 524.784C261.106 523.505 262.675 520.376 261.959 518.373C260.29 513.713 246.369 515.688 245.866 512.764C245.5 510.644 252.682 508.793 252.303 506.353C252.01 504.454 247.214 502.803 243.452 503.949C241.372 504.586 240.777 505.72 240.233 505.552C238.701 505.083 239.763 494.866 247.878 460.677L224.543 467.488Z" fill="#A8A7A7"/>
<path d="M283.082 403.583C290.755 400.65 299.932 402.297 300.383 402.381C303.654 403.002 306.659 403.583 308.832 405.186C318.681 412.514 307.335 438.281 302.797 482.113C302.137 488.496 301.783 493.705 301.59 496.938C307.604 497.431 309.427 499.154 310.039 500.544C311.539 503.962 306.389 506.91 303.199 516.571C301.187 522.657 302.125 524.852 299.578 526.988C296.359 529.692 290.324 529.993 287.106 526.988C284.209 524.287 284.523 519.776 284.692 517.372C284.953 513.654 286.213 512.8 286.703 508.557C287.078 505.328 286.703 502.864 286.301 500.544C283.026 480.819 281.389 470.955 279.864 466.487C272.932 446.21 265.408 448.125 264.575 436.037C263.694 423.22 271.262 408.102 283.082 403.583Z" fill="#AAB51C"/>
<path d="M324.908 364.45C323.371 356.922 301.424 357.006 291.036 347.654C289.764 346.499 288.429 345.414 287.037 344.405C281.927 340.679 279.127 338.635 275.301 338.607C271.185 338.579 268.115 340.899 265.069 343.195C264.188 343.86 260.696 346.5 261.239 347.766C261.444 348.247 262.233 348.215 264.035 348.431C265.799 348.635 267.547 348.959 269.266 349.401C272.609 350.343 272.621 351.829 276.459 352.787C280.463 353.788 283.15 353.736 284.888 353.893C290.046 354.353 291.438 357.022 304.26 366.365C313.534 373.124 315.811 373.918 318.121 373.329C321.766 372.391 325.62 367.952 324.908 364.45Z" fill="#AAB51C"/>
<path d="M231.382 333.667C225.439 324.684 222.874 313.899 224.14 303.216C220.99 303.348 216.898 302.892 213.88 300.211C206.57 293.676 207.942 275.771 218.708 270.562C226.268 266.92 237.236 270.133 243.359 279.289C245.315 278.087 252.408 274.056 261.355 275.771C263.508 276.171 269.865 277.405 274.23 282.983C278.253 288.111 278.253 293.957 278.253 296.205C278.253 303.665 274.773 303.777 275.035 311.43C275.151 314.876 275.96 317.841 274.632 322.248C274.186 323.712 273.579 325.123 272.822 326.455C267.817 335.426 260.136 336.664 259.947 340.478C259.718 345.114 270.927 345.687 283.484 355.904C293.51 364.069 293.305 369.354 299.376 370.127C308.979 371.349 315.043 358.829 322.51 361.513C325.865 362.715 328.243 366.541 328.545 369.927C329.386 379.411 314.379 390.401 300.18 393.767C289.8 396.227 284.683 393.638 281.271 397.773C278.732 400.85 280.064 407.081 282.88 419.409C285.886 432.631 287.459 434.029 287.306 439.042C286.928 451.462 276.741 460.501 275.638 461.479C258.829 476.4 220.257 470.891 197.988 449.459C174.327 426.689 168.188 385.104 188.735 358.107C202.828 339.589 224.172 334.921 231.382 333.667Z" fill="#E6FF28"/>
<path d="M179.884 363.316C186.554 359.413 192.98 359.582 205.834 359.91C222.64 360.343 250.835 361.068 259.747 376.738C269.877 394.552 251.298 425.01 260.35 438.641C262.065 441.204 264.422 443.276 267.19 444.651C271.141 446.382 276.914 446.722 281.07 444.05C288.252 439.434 284.031 430.047 291.33 423.416C296.101 419.081 304.345 417.245 307.825 420.21C313.55 425.095 306.135 442.78 301.388 451.462C289.592 473.034 270.215 483.011 267.592 484.317C264.892 485.663 222.869 505.8 190.747 482.314C172.006 468.615 167.383 447.924 164.595 435.436C159.896 414.409 158.52 375.817 179.884 363.316Z" fill="#5F00A2"/>
</svg>
