<svg width="639" height="474" viewBox="0 0 639 474" fill="none" xmlns="http://www.w3.org/2000/svg">
<path d="M119.123 192.011C124.061 168.926 186.125 164.942 282.928 159.448C422.869 151.512 503.316 147.954 534.936 195.475C548.52 215.893 554.022 247.136 541.586 260.255C522.469 280.423 473.271 244.77 404.032 268.569C390.283 273.297 393.573 274.236 379.531 279.308C309.721 304.52 240.881 276.751 216.426 266.49C209.055 263.404 112.634 222.277 119.123 192.011Z" fill="#9385A0"/>
<path d="M108.643 166.524C125.447 186.367 125.076 188.004 124.545 188.847C120.596 195.346 82.749 192.097 74.1883 171.485C69.2321 159.504 74.7979 143.233 82.1394 141.72C84.1272 141.298 87.4402 141.72 108.643 166.524Z" fill="#E6FF28"/>
<path d="M74.1876 79.7081C76.8379 79.4352 76.5464 91.5147 87.4395 102.032C94.703 108.615 103.957 112.946 113.943 114.434C126.559 116.604 139.587 114.862 151.049 109.473C153.706 117.743 152.753 126.662 148.398 134.277C138.486 150.201 116.196 149.159 113.943 149.159C87.784 147.671 75.2212 121.627 74.1876 119.394C65.4678 100.643 70.6891 80.0553 74.1876 79.7081Z" fill="#AAB51C"/>
<path d="M229.871 65.3962L88.6849 197.527L68.6745 178.924L209.86 46.6692L241.161 35.061L229.871 65.3962Z" fill="#FF5100"/>
<path d="M58.2857 27.6217C56.5099 29.2836 52.0838 33.3514 52.9849 37.5433C53.4885 39.8005 55.1052 40.0237 55.6353 42.5041C56.5894 46.82 52.2693 48.6306 52.9849 52.4256C53.5415 55.3773 56.7219 57.3864 60.936 59.8668C65.7067 62.7689 68.039 62.6697 68.8872 64.8276C69.7353 66.9855 67.933 69.7884 66.2368 72.2688C63.7857 75.706 60.6333 78.6562 56.9605 80.9501C48.4792 85.9109 29.5821 116.048 29.1315 151.641C28.7074 186.119 45.8289 211.171 56.9605 227.293C61.7535 234.251 67.0676 240.882 72.8627 247.136C68.2161 250.166 63.7891 253.48 59.6108 257.058C25.1559 286.822 13.2027 330.626 11.9041 336.43C11.474 339.033 10.5779 341.548 9.25368 343.871C6.28525 349.006 3.18431 349.452 1.30254 353.793C1.11702 354.264 -1.53336 360.565 1.30254 363.715C3.1048 365.699 9.62471 365.029 22.5056 363.715C28.0979 363.144 30.1386 362.797 33.1071 363.715C35.6531 364.81 38.3193 365.641 41.0582 366.195C42.7941 366.633 44.623 366.633 46.3589 366.195C50.3345 364.831 53.1704 359.448 51.6597 356.273C50.414 353.669 47.0215 354.19 38.4078 351.313C31.6759 349.056 25.9776 347.146 25.1559 343.871C24.0958 339.556 31.8349 334.496 34.4323 332.71C68.4366 309.518 96.6631 289.973 108.643 270.7C111.084 266.847 112.873 262.664 113.944 258.298C115.967 249.158 115.044 239.662 111.293 231.014C117.495 236.801 123.679 242.589 129.846 248.376C126.254 254.957 124.007 262.107 123.22 269.46C120.994 292.23 133.318 322.292 139.122 336.43C140.05 338.38 140.503 340.498 140.447 342.631C140.235 347.071 137.585 348.609 136.472 353.793C135.836 356.844 135.2 359.349 136.472 361.234C138.407 364.062 143.257 363.715 149.724 363.715C169.681 363.888 174.611 368.204 181.528 363.715C184.179 362.078 187.598 358.754 186.829 356.273C185.848 353.024 178.507 353.793 168.276 348.832C165.434 347.466 162.766 345.802 160.325 343.871C151.34 335.934 161.12 317.827 165.626 291.783C168.965 272.585 171.854 254.875 165.626 234.734C162.202 224.028 156.822 213.957 149.724 204.97C140.289 192.512 128.263 181.967 114.368 173.965C103.104 185.027 89.1891 185.945 84.7099 181.406C80.7609 177.412 82.2451 167.243 89.7721 158.239C79.6742 152.683 77.8189 150.947 78.084 150.401C78.6936 149.186 89.2686 156.032 104.588 155.362C111.32 155.064 114.606 153.551 120.49 155.362C126.374 157.173 127.991 160.323 132.549 159.752C134.586 159.465 136.505 158.677 138.111 157.471C139.717 156.264 140.953 154.68 141.693 152.881C141.852 152.534 143.177 149.136 141.693 147.921C140.209 146.705 136.737 148.516 136.392 147.921C136.048 147.325 142.091 143.927 141.693 142.96C141.295 141.993 136.869 142.687 123.14 146.308C119.377 146.11 97.7233 144.696 83.3847 128.078C69.6558 112.005 68.4631 88.2177 80.7344 68.5482C84.9485 69.9124 87.3073 69.3667 88.6855 68.5482C91.5214 66.8863 91.0443 63.5874 93.9862 61.107C96.2203 59.3929 99.0512 58.5098 101.937 58.6266C98.3327 53.4748 96.4843 47.4202 96.6366 41.2639C96.9017 36.4519 98.5449 33.8227 96.6366 31.3423C94.3838 28.3162 90.5408 29.9285 83.3847 26.3815C78.243 23.9012 78.8526 22.3137 75.4336 21.4208C67.3764 19.3124 59.3193 26.58 58.2857 27.6217Z" fill="#E6FF28"/>
<path d="M298.677 4.0361L290.317 114.386C293.827 116.047 298.921 118.371 305.174 120.89C326.948 129.632 339.858 131.54 365.095 137.484C413.425 148.864 424.421 155.641 448.26 151.615C453.463 150.736 458.591 149.462 463.599 147.804C467.869 121.621 471.25 102.749 473.667 89.6985C476.54 74.2053 479.331 60.1108 474.387 42.5968C472.912 37.3975 470.904 32.3626 468.392 27.5715C451.323 26.0906 433.896 24.3011 416.112 22.2032C374.796 17.2976 335.603 11.0911 298.677 4.0361Z" fill="#CFFFFF"/>
<path d="M357.615 136.781C359.913 144.782 361.176 154.413 356.062 160.434C350.621 166.841 340.93 165.659 340.531 169.176C340.133 172.693 349.663 177.475 358.65 178.946C372.426 181.198 387.024 176.102 387.122 171.747C387.2 168.184 377.519 168.148 373.145 160.434C369.547 154.099 371.592 146.216 373.663 140.894L357.615 136.781Z" fill="#A8A7A7"/>
<path d="M297.564 183.06C317.309 175.29 328.237 186.705 375.216 195.915C403.414 201.443 417.588 200.882 419.218 207.742C420.849 214.601 409.191 224.711 397.476 229.853C365.965 243.634 346.821 215.177 290.317 211.856C284.938 211.542 275.356 211.223 273.751 206.713C271.613 200.713 283.975 188.408 297.564 183.06Z" fill="#A8A7A7"/>
<path d="M477.498 39.538C477.374 36.8743 477.017 31.074 472.709 27.3923C468.402 23.7106 462.185 23.9934 460.114 24.0602C434.81 24.883 325.777 9.52862 307.918 1.67662C306.618 1.10585 301.902 -1.13611 298.6 0.725336C295.576 2.42737 295.219 6.72103 295.074 8.34594C292.015 41.9393 291.968 75.7641 288.272 109.306C288.158 110.304 287.723 113.672 289.783 116.448C291.58 118.87 294.443 119.703 295.576 120.048C403.651 150.037 457.702 165.062 469.433 145.008C470.571 143.064 470.468 142.324 471.451 132.862C473.263 115.739 478.88 68.9045 477.498 39.538ZM466.109 130.42C465.157 139.331 465.27 140.03 464.188 141.861C453.033 160.722 401.627 146.586 298.812 118.31C297.735 118.012 295.012 117.23 293.299 114.947C291.342 112.335 291.745 109.157 291.865 108.216C295.349 76.6177 295.405 44.7675 298.32 13.123C298.46 11.5803 298.796 7.54891 301.675 5.92401C304.822 4.17055 309.31 6.28395 310.542 6.81873C327.543 14.2131 431.244 28.6778 455.305 27.9014C457.257 27.8397 463.148 27.5363 467.289 31.0432C471.431 34.5501 471.726 39.975 471.845 42.4792C473.16 70.1438 467.817 114.278 466.094 130.42H466.109Z" fill="#A8A7A7"/>
<path d="M308.694 17.7409C306.329 20.0446 306.184 23.3973 306.106 24.9399C305.475 37.2809 301.064 85.9767 298.341 100.015C297.942 102.071 296.715 107.846 299.894 111.327C301.199 112.757 302.741 113.245 305.071 113.898C316.977 117.23 322.946 118.902 326.295 116.469C328.853 114.613 329.546 111.548 329.919 109.785C337.633 73.4197 336.494 38.6385 339.237 29.0536C339.74 27.5514 339.74 25.9279 339.237 24.4257C338.274 21.906 335.614 20.3531 330.437 18.7694C321.787 16.1212 313.095 13.4627 308.694 17.7409Z" fill="#FF5100"/>
<path d="M370.039 34.7102L399.546 38.3097C401.198 38.5102 401.182 35.9392 399.546 35.7386L370.039 32.1392C368.387 31.9386 368.403 34.5097 370.039 34.7102Z" fill="#5F00A2"/>
<path d="M360.887 100.945L404.889 110.057C406.515 110.396 407.208 107.918 405.573 107.578L361.57 98.4666C359.945 98.1323 359.251 100.611 360.882 100.945H360.887Z" fill="#5F00A2"/>
<path d="M364.961 67.2489L408.772 77.24C410.397 77.6102 411.086 75.1317 409.46 74.7615L365.649 64.7909C364.029 64.4207 363.335 66.8992 364.961 67.2694V67.2489Z" fill="#5F00A2"/>
<path d="M371.074 39.5939C369.997 40.3549 369.749 41.6507 369.521 42.6792C368.3 48.2943 366.897 51.0865 366.933 55.0202C366.919 55.9041 367.096 56.7806 367.451 57.5913C367.835 58.3665 368.362 59.064 369.004 59.6481C373.424 63.5818 404.231 67.2379 405.241 67.3613C406.133 67.4035 407.022 67.2269 407.829 66.8471C409.149 66.1837 409.631 64.3017 409.9 63.2476C410.966 59.0876 412.079 54.9945 412.488 49.3639C412.603 48.4737 412.421 47.5708 411.971 46.7929C411.467 46.0693 410.74 45.5278 409.9 45.2502C402.011 42.2627 377.323 39.5219 374.18 39.0797C373.663 39.0077 372.218 38.7866 371.074 39.5939Z" fill="#A06BCE"/>
<path d="M365.105 73.5626C364.143 74.3288 363.92 75.6194 363.718 76.6479C362.626 82.2682 361.373 85.0603 361.404 88.9889C361.391 89.8673 361.548 90.74 361.865 91.56C362.201 92.3218 362.671 93.0183 363.252 93.6168C367.202 97.5557 394.737 101.207 395.638 101.33C396.442 101.375 397.243 101.197 397.952 100.816C399.132 100.152 399.557 98.2756 399.8 97.2163C400.753 93.0563 401.752 88.9632 402.114 83.3326C402.218 82.4492 402.057 81.5552 401.653 80.7615C401.227 80.0552 400.575 79.5118 399.8 79.2189C392.755 76.2313 370.691 73.4906 367.88 73.0484C367.414 72.9764 366.125 72.7553 365.105 73.5626Z" fill="#A06BCE"/>
<path d="M358.531 108.164C357.164 108.679 356.766 109.707 356.419 110.52C354.545 114.967 352.635 117.101 352.412 120.29C352.341 121.034 352.5 121.782 352.868 122.434C353.326 123.156 353.924 123.78 354.628 124.27C359.758 127.92 397.17 134.014 398.392 134.22C399.46 134.341 400.541 134.288 401.591 134.06C403.253 133.654 403.968 132.173 404.371 131.34C405.961 128.059 407.602 124.84 408.482 120.3C408.581 119.932 408.591 119.546 408.512 119.174C408.433 118.801 408.266 118.452 408.026 118.156C407.361 117.473 406.525 116.98 405.603 116.726C396.161 113.492 366.172 108.761 362.362 108.082C361.756 107.949 359.981 107.625 358.531 108.164Z" fill="#A06BCE"/>
<path d="M423.36 37.0225C425.431 35.2587 428.428 35.7215 430.607 35.9941C441.328 37.331 448.063 35.9324 457.009 38.5651C458.383 38.9094 459.636 39.6207 460.632 40.622C462.703 42.8125 462.703 45.8823 462.703 47.3067C462.413 81.5274 458.194 95.1797 458.562 101.813C458.608 102.651 458.852 105.618 457.009 107.984C456.313 108.854 455.428 109.557 454.42 110.04C447.639 113.46 433.827 107.331 421.807 105.927C420.647 105.793 417.722 105.49 416.112 103.356C414.694 101.474 414.984 99.0774 415.077 98.2136C420.388 49.3635 420.689 46.7925 421.289 41.6504C421.387 40.7916 421.636 38.4931 423.36 37.0225Z" fill="#A8A7A7"/>
<path d="M440.443 73.533C448.448 73.533 454.938 67.0869 454.938 59.1351C454.938 51.1834 448.448 44.7372 440.443 44.7372C432.438 44.7372 425.948 51.1834 425.948 59.1351C425.948 67.0869 432.438 73.533 440.443 73.533Z" fill="#E6FF28"/>
<path d="M433.195 142.437C441.2 142.437 447.69 135.991 447.69 128.039C447.69 120.087 441.2 113.641 433.195 113.641C425.19 113.641 418.7 120.087 418.7 128.039C418.7 135.991 425.19 142.437 433.195 142.437Z" fill="#E6FF28"/>
<path d="M306.989 390.069L308.603 409.895C300.559 410.554 298.116 412.858 297.303 414.717C295.296 419.288 302.184 423.232 306.45 436.151C309.141 444.29 307.887 447.227 311.293 450.083C315.598 453.699 323.669 454.101 327.973 450.083C331.847 446.466 331.427 440.437 331.201 437.222C330.852 432.245 329.168 431.109 328.511 425.434C328.022 421.217 328.511 417.981 329.049 414.717C330.378 406.68 333.354 390.385 337.658 369.171L306.989 390.069Z" fill="#AAB51C"/>
<path d="M258.525 391.563C265.31 411.265 268.059 426.601 269.286 437.109C269.071 435.635 268.802 433.894 268.748 433.894C268.592 433.894 271.917 448.045 268.21 449.969C265.041 451.614 260.371 442.467 251.53 442.467C246.37 442.467 241.14 445.639 241.307 447.826C241.662 452.428 265.843 452.445 266.058 456.399C266.273 460.353 243.255 462.829 243.459 466.58C243.583 468.847 252.111 471.611 260.139 469.795C268.49 467.909 268.431 462.829 275.205 461.222C287.36 458.307 296.362 472.474 304.26 468.187C307.424 466.478 309.523 462.293 308.565 459.614C306.332 453.382 287.715 456.024 287.042 452.112C286.553 449.278 296.157 446.802 295.651 443.539C295.259 440.999 288.845 438.791 283.814 440.324C281.032 441.176 280.236 442.692 279.509 442.467C277.459 441.84 278.88 428.176 289.733 382.454L258.525 391.563Z" fill="#A8A7A7"/>
<path d="M336.814 306.097C347.075 302.175 359.348 304.377 359.951 304.489C364.325 305.32 368.345 306.097 371.25 308.24C384.422 318.041 369.249 352.5 363.179 411.121C362.297 419.657 361.823 426.623 361.565 430.947C369.609 431.606 372.047 433.91 372.864 435.769C374.871 440.34 367.984 444.284 363.717 457.203C361.027 465.342 362.281 468.279 358.875 471.135C354.57 474.752 346.499 475.153 342.195 471.135C338.321 467.523 338.74 461.49 338.966 458.275C339.316 453.302 341 452.161 341.657 446.486C342.157 442.167 341.657 438.872 341.119 435.769C336.739 409.39 334.549 396.198 332.51 390.223C323.239 363.105 313.177 365.666 312.063 349.5C310.885 332.358 321.006 312.141 336.814 306.097Z" fill="#AAB51C"/>
<path d="M392.751 253.762C390.696 243.694 361.344 243.806 347.451 231.3C345.75 229.755 343.964 228.304 342.103 226.954C335.269 221.971 331.525 219.238 326.408 219.201C320.903 219.163 316.798 222.266 312.725 225.336C311.546 226.226 306.876 229.757 307.602 231.45C307.877 232.093 308.931 232.05 311.342 232.34C313.7 232.611 316.038 233.044 318.337 233.636C322.808 234.896 322.824 236.883 327.957 238.164C333.311 239.504 336.905 239.434 339.23 239.643C346.128 240.259 347.989 243.828 365.137 256.324C377.54 265.363 380.585 266.424 383.674 265.636C388.549 264.383 393.703 258.446 392.751 253.762Z" fill="#AAB51C"/>
<path d="M267.672 212.594C259.724 200.58 256.294 186.157 257.987 171.87C253.774 172.047 248.302 171.436 244.266 167.851C234.49 159.112 236.325 135.165 250.723 128.199C260.833 123.329 275.501 127.626 283.69 139.87C286.305 138.262 295.791 132.872 307.758 135.165C310.637 135.701 319.138 137.351 324.976 144.81C330.357 151.669 330.357 159.487 330.357 162.493C330.357 172.47 325.703 172.62 326.052 182.855C326.208 187.463 327.29 191.428 325.514 197.322C324.917 199.281 324.105 201.167 323.093 202.949C316.399 214.946 306.128 216.602 305.875 221.703C305.568 227.903 320.559 228.669 337.352 242.333C350.76 253.253 350.486 260.321 358.605 261.355C371.449 262.989 379.557 246.244 389.544 249.834C394.031 251.442 397.211 256.559 397.615 261.087C398.739 273.77 378.67 288.468 359.681 292.969C345.799 296.259 338.955 292.798 334.392 298.328C330.997 302.443 332.778 310.775 336.545 327.263C340.564 344.945 342.668 346.815 342.463 353.519C341.957 370.13 328.334 382.218 326.859 383.526C304.379 403.48 252.795 396.112 223.013 367.45C191.369 336.999 183.158 281.384 210.637 245.28C229.486 220.513 258.03 214.271 267.672 212.594Z" fill="#E6FF28"/>
<path d="M198.8 252.246C207.721 247.027 216.314 247.252 233.505 247.691C255.98 248.27 293.688 249.24 305.606 270.196C319.154 294.02 294.307 334.754 306.413 352.983C308.706 356.411 311.859 359.182 315.56 361.021C320.844 363.335 328.565 363.791 334.123 360.217C343.728 354.044 338.084 341.489 347.844 332.621C354.226 326.823 365.25 324.369 369.905 328.335C377.561 334.866 367.645 358.518 361.296 370.13C345.52 398.979 319.606 412.322 316.098 414.068C312.488 415.869 256.287 442.8 213.328 411.389C188.265 393.069 182.082 365.398 178.354 348.696C172.069 320.576 170.229 268.964 198.8 252.246Z" fill="#5F00A2"/>
<path d="M572.526 352.176C571.957 358.222 571.243 366.875 570.815 377.563C575.519 375.115 579.706 373.122 583.218 371.539C586.044 370.248 588.208 369.353 590.916 369.818C592.93 370.166 596.261 371.449 596.475 373.26C597.048 378.105 574.912 383.079 575.519 387.029C576.024 390.304 591.617 389.43 594.337 396.065C595.071 398.169 595.643 400.327 596.048 402.519C596.552 405.14 596.805 406.452 596.475 406.822C593.866 409.752 572.214 398.113 570.815 397.356C570.015 396.926 567.886 395.751 565.255 396.065C562.625 396.379 560.808 398.027 560.123 398.647C551.6 406.353 540.878 416.056 537.029 414.137C536.251 413.75 535.656 412.016 534.463 408.543C533.27 405.071 532.599 403.126 532.753 401.659C533.484 394.624 553.661 393.139 553.708 389.181C553.755 385.033 531.653 382.412 531.897 378.854C531.983 377.589 534.865 376.603 539.595 374.981C542.841 373.867 544.509 373.295 546.438 373.26C553.306 373.131 556.783 379.938 558.84 379.284C561.329 378.492 561.086 366.978 553.281 329.802C557.557 329.75 567.586 330.18 571.67 336.686C573.877 340.202 573.308 343.872 572.526 352.176Z" fill="#A8A7A7"/>
<path d="M518.425 357.125C517.497 359.104 515.859 362.409 516.715 366.161C517.168 368.183 518.023 368.889 519.708 373.475C521.291 377.778 521.098 378.682 520.991 379.069C520.221 381.793 516.582 383.411 513.721 383.802C508.234 384.551 507.066 380.584 500.891 380.36C495.331 380.158 494.219 383.307 489.344 382.511C484.387 381.702 479.777 377.511 480.363 375.197C481.034 372.516 488.172 374.258 496.614 368.742C500.574 366.161 501.507 364.134 501.746 363.579C503.41 359.706 501.614 355.739 500.036 351.531C497.668 345.181 495.879 338.628 494.69 331.953C465.21 319.045 447.347 299.217 450.64 286.773C454.784 271.111 491.965 268.891 510.941 270.423C526.645 271.692 536.37 272.479 540.45 279.459C548.426 293.099 532.658 326.755 518.425 357.125Z" fill="#AAB51C"/>
<path d="M463.47 239.441C460.476 236.382 464.569 226.425 469.457 220.509C476.501 211.985 481.915 215.815 500.249 204.589C502.619 203.139 506.519 200.63 512.224 199.855C517.382 199.154 524.327 199.834 525.054 202.437C525.82 205.187 519.409 209.214 514.363 212.334C467.627 241.21 464.723 240.719 463.47 239.441Z" fill="#AAB51C"/>
<path d="M570.173 114.445C566.79 114.828 565.469 111.257 562.475 111.863C560.337 112.294 560.542 114.208 557.771 115.736C554.465 117.56 552.211 115.942 549.645 117.027C547.545 117.917 545.274 120.637 544.513 128.644C536.982 136.11 535.635 141.85 535.96 145.856C536.345 150.623 539.09 152.796 538.098 157.904C537.106 163.011 533.659 164.319 534.249 168.23C534.677 171.173 536.717 170.98 538.953 175.545C541.19 180.11 539.993 181.888 541.947 185.011C543.072 186.81 545.274 189.108 550.073 190.605C546.728 190.971 543.431 191.692 540.236 192.756C534.198 194.77 530.695 197.184 526.979 199.211C520.713 202.631 519.174 201.904 507.52 205.88C507.52 205.88 487.27 212.79 470.74 225.673C468.291 227.568 466.201 229.893 464.573 232.536C462.58 235.785 460.857 238.594 461.759 240.303C464.043 244.627 482.997 241.791 497.256 235.57C501.75 233.608 504.406 231.839 508.589 232.342C518.079 233.487 524.31 245.135 526.979 252.566C529.758 260.311 531.23 274.08 524.413 281.825C507.93 300.555 458.706 266.335 439.734 285.698C430.548 295.069 433.435 311.945 434.174 316.248C438.451 341.23 467.242 373.862 473.092 379.499C473.798 380.179 476.009 382.24 476.086 385.093C476.172 388.329 473.46 390.889 471.809 392.408C467.858 396.044 463.611 397.511 460.69 398.432C446.859 402.795 440.778 401.835 439.734 404.886C438.879 407.433 441.873 411.732 445.722 413.922C456.944 420.29 467.533 404.352 484.639 408.758C487.744 409.559 492.055 411.28 497.042 409.619C497.991 409.301 502.661 407.743 504.74 403.165C506.729 398.78 505.073 394.417 504.312 392.408C502.144 386.685 498.072 383.768 495.759 381.651C487.599 374.185 490.926 367.219 483.356 343.786C477.981 327.151 473.417 321.729 476.086 318.829C479.55 315.064 490.464 320.692 499.608 324.423C519.417 332.508 551.608 340.133 571.029 333.889C608.351 321.893 630.983 248.233 609.091 219.864C599.879 207.933 581.951 202.924 578.727 185.011C578.128 181.69 576.588 173.088 581.293 167.8C585.937 162.589 593.733 163.876 595.406 158.764C596.659 154.922 593.267 151.088 595.406 148.868C596.945 147.267 599.524 148.416 600.538 146.716C601.363 145.322 599.841 144.203 599.682 141.123C599.477 137.138 601.898 136.346 601.393 132.947C601.025 130.477 599.734 130.796 598.827 127.353C598.032 124.341 598.75 123.051 597.544 121.76C596.261 120.361 594.978 121.308 593.267 120.039C590.624 118.068 592.083 114.574 589.846 113.154C588.088 112.04 586.852 113.972 583.003 113.584C579.154 113.197 578.543 111.033 575.733 111.433C572.923 111.833 572.829 114.144 570.173 114.445Z" fill="#E6FF28"/>
<path d="M589.418 217.282C593.631 209.494 598.164 206.327 600.965 204.804C603.865 203.225 608.398 201.517 611.657 201.792C623.752 202.808 632.656 232.342 635.607 255.147C639.229 283.141 643.326 314.806 623.204 337.331C593.853 370.183 538.432 355.102 520.564 350.24C511.681 347.821 469.286 336.286 465.822 312.375C465.052 307.061 465.929 299.243 470.526 296.454C477.228 292.392 486.286 302.397 506.878 311.945C521.197 318.584 537.418 326.105 555.633 322.702C559.837 321.914 579.218 318.295 586.425 303.769C592.545 291.429 583.072 284.931 582.576 250.414C582.46 243.499 582.653 229.778 589.418 217.282Z" fill="#5F00A2"/>
</svg>
