<svg width="732" height="573" viewBox="0 0 732 573" fill="none" xmlns="http://www.w3.org/2000/svg">
<path d="M575.415 0H275.596C263.701 0 254.059 9.4382 254.059 21.0808V272.887C254.059 284.53 263.701 293.968 275.596 293.968H575.415C587.31 293.968 596.953 284.53 596.953 272.887V21.0808C596.953 9.4382 587.31 0 575.415 0Z" fill="#BA89E5"/>
<path d="M575.078 36.9428H430.115C424.687 36.9428 420.286 41.2502 420.286 46.5636V153.084C420.286 158.397 424.687 162.705 430.115 162.705H575.078C580.507 162.705 584.907 158.397 584.907 153.084V46.5636C584.907 41.2502 580.507 36.9428 575.078 36.9428Z" fill="#EDEDED"/>
<path d="M574.564 170.705H429.6C424.172 170.705 419.771 175.013 419.771 180.326V213.606C419.771 218.919 424.172 223.227 429.6 223.227H574.564C579.992 223.227 584.393 218.919 584.393 213.606V180.326C584.393 175.013 579.992 170.705 574.564 170.705Z" fill="#EDEDED"/>
<path d="M574.564 230.899H429.6C424.172 230.899 419.771 235.206 419.771 240.52V273.799C419.771 279.113 424.172 283.42 429.6 283.42H574.564C579.992 283.42 584.393 279.113 584.393 273.799V240.52C584.393 235.206 579.992 230.899 574.564 230.899Z" fill="#EDEDED"/>
<path d="M351.515 112.542H402.62" stroke="#5F00A2" stroke-miterlimit="10"/>
<path d="M351.354 123.168H402.459" stroke="#5F00A2" stroke-miterlimit="10"/>
<path d="M351.354 132.6H402.459" stroke="#5F00A2" stroke-miterlimit="10"/>
<path d="M351.354 142.032H402.459" stroke="#5F00A2" stroke-miterlimit="10"/>
<path d="M320.71 42.4449C293.407 43.341 271.581 63.7144 269.316 88.0335C266.762 115.465 289.729 141.765 320.71 143.054" stroke="#FF5100" stroke-miterlimit="10"/>
<path d="M359.255 92.7499C359.461 86.9593 358.332 81.1976 355.951 75.8927C353.57 70.5878 349.999 65.876 345.503 62.1071C341.006 58.3382 335.701 55.609 329.979 54.1223C324.258 52.6355 318.268 52.4294 312.454 53.5191C306.64 54.6088 301.151 56.9664 296.396 60.4169C291.64 63.8674 287.74 68.322 284.984 73.4501C282.228 78.5782 280.688 84.248 280.478 90.0386C280.268 95.8291 281.393 101.592 283.77 106.898C286.905 113.928 292.072 119.907 298.636 124.097C305.2 128.287 312.873 130.505 320.71 130.478" stroke="#E6FF28" stroke-miterlimit="10"/>
<path d="M320.71 64.4526C305.404 64.547 292.957 75.9598 291.801 89.605C290.5 104.822 303.541 119.253 320.71 119.473" stroke="#5F00A2" stroke-miterlimit="10"/>
<path d="M336.77 92.7491C337.08 89.061 336.149 85.3749 334.119 82.2529C332.089 79.1309 329.072 76.7443 325.528 75.4569C322.429 74.5252 319.124 74.4739 315.996 75.3087C312.869 76.1436 310.048 77.8304 307.861 80.173C302.304 85.9737 301.116 95.6574 306.255 102.181C311.394 108.705 319.714 108.469 320.71 108.469" stroke="#E6FF28" stroke-miterlimit="10"/>
<path d="M333.559 275.103C362.83 275.103 386.559 251.877 386.559 223.227C386.559 194.576 362.83 171.35 333.559 171.35C304.288 171.35 280.559 194.576 280.559 223.227C280.559 251.877 304.288 275.103 333.559 275.103Z" fill="white"/>
<mask id="mask0_1400_2056" style="mask-type:luminance" maskUnits="userSpaceOnUse" x="280" y="171" width="107" height="105">
<path d="M333.559 275.103C362.83 275.103 386.559 251.877 386.559 223.227C386.559 194.576 362.83 171.35 333.559 171.35C304.288 171.35 280.559 194.576 280.559 223.227C280.559 251.877 304.288 275.103 333.559 275.103Z" fill="white"/>
</mask>
<g mask="url(#mask0_1400_2056)">
<path d="M382.543 157.988H342.392C337.957 157.988 334.362 161.508 334.362 165.849V217.725C334.362 222.066 337.957 225.585 342.392 225.585H382.543C386.978 225.585 390.574 222.066 390.574 217.725V165.849C390.574 161.508 386.978 157.988 382.543 157.988Z" fill="#E6FF28"/>
<path d="M323.119 157.988H282.968C278.533 157.988 274.937 161.508 274.937 165.849V217.725C274.937 222.066 278.533 225.585 282.968 225.585H323.119C327.554 225.585 331.149 222.066 331.149 217.725V165.849C331.149 161.508 327.554 157.988 323.119 157.988Z" fill="#5F00A2"/>
<path d="M323.119 228.73H282.968C278.533 228.73 274.937 232.249 274.937 236.59V288.467C274.937 292.808 278.533 296.327 282.968 296.327H323.119C327.554 296.327 331.149 292.808 331.149 288.467V236.59C331.149 232.249 327.554 228.73 323.119 228.73Z" fill="#E6FF28"/>
<path d="M382.543 228.73H342.392C337.957 228.73 334.362 232.249 334.362 236.59V288.467C334.362 292.808 337.957 296.327 342.392 296.327H382.543C386.978 296.327 390.574 292.808 390.574 288.467V236.59C390.574 232.249 386.978 228.73 382.543 228.73Z" fill="#FF5100"/>
</g>
<path d="M534.317 27.5095C538.308 27.5095 541.544 24.3423 541.544 20.4354C541.544 16.5285 538.308 13.3613 534.317 13.3613C530.325 13.3613 527.089 16.5285 527.089 20.4354C527.089 24.3423 530.325 27.5095 534.317 27.5095Z" fill="#FF5100"/>
<path d="M555.195 27.5095C559.187 27.5095 562.423 24.3423 562.423 20.4354C562.423 16.5285 559.187 13.3613 555.195 13.3613C551.204 13.3613 547.968 16.5285 547.968 20.4354C547.968 24.3423 551.204 27.5095 555.195 27.5095Z" fill="#5F00A2"/>
<path d="M576.074 27.5095C580.066 27.5095 583.301 24.3423 583.301 20.4354C583.301 16.5285 580.066 13.3613 576.074 13.3613C572.083 13.3613 568.847 16.5285 568.847 20.4354C568.847 24.3423 572.083 27.5095 576.074 27.5095Z" fill="#E6FF28"/>
<path d="M456.422 51.0913H440.361C437.7 51.0913 435.543 53.2027 435.543 55.8073V143.841C435.543 146.445 437.7 148.557 440.361 148.557H456.422C459.083 148.557 461.24 146.445 461.24 143.841V55.8073C461.24 53.2027 459.083 51.0913 456.422 51.0913Z" fill="white"/>
<path d="M491.756 51.0913H475.696C473.035 51.0913 470.877 53.2027 470.877 55.8073V143.841C470.877 146.445 473.035 148.557 475.696 148.557H491.756C494.417 148.557 496.574 146.445 496.574 143.841V55.8073C496.574 53.2027 494.417 51.0913 491.756 51.0913Z" fill="white"/>
<path d="M528.696 51.0913H512.635C509.974 51.0913 507.817 53.2027 507.817 55.8073V143.841C507.817 146.445 509.974 148.557 512.635 148.557H528.696C531.357 148.557 533.514 146.445 533.514 143.841V55.8073C533.514 53.2027 531.357 51.0913 528.696 51.0913Z" fill="white"/>
<path d="M565.635 51.0913H549.574C546.913 51.0913 544.756 53.2027 544.756 55.8073V143.841C544.756 146.445 546.913 148.557 549.574 148.557H565.635C568.296 148.557 570.453 146.445 570.453 143.841V55.8073C570.453 53.2027 568.296 51.0913 565.635 51.0913Z" fill="white"/>
<path d="M564.029 73.0985H551.18C548.519 73.0985 546.362 75.21 546.362 77.8146V142.267C546.362 144.872 548.519 146.984 551.18 146.984H564.029C566.69 146.984 568.847 144.872 568.847 142.267V77.8146C568.847 75.21 566.69 73.0985 564.029 73.0985Z" fill="#5F00A2"/>
<path d="M490.15 62.0955H477.302C474.641 62.0955 472.484 64.207 472.484 66.8116V142.269C472.484 144.873 474.641 146.985 477.302 146.985H490.15C492.811 146.985 494.969 144.873 494.969 142.269V66.8116C494.969 64.207 492.811 62.0955 490.15 62.0955Z" fill="#FF5100"/>
<path d="M527.09 91.9622H514.241C511.58 91.9622 509.423 94.0737 509.423 96.6783V142.267C509.423 144.872 511.58 146.983 514.241 146.983H527.09C529.751 146.983 531.908 144.872 531.908 142.267V96.6783C531.908 94.0737 529.751 91.9622 527.09 91.9622Z" fill="#E6FF28"/>
<path d="M454.815 58.95H441.967C439.306 58.95 437.149 61.0615 437.149 63.6661V142.267C437.149 144.872 439.306 146.983 441.967 146.983H454.815C457.476 146.983 459.634 144.872 459.634 142.267V63.6661C459.634 61.0615 457.476 58.95 454.815 58.95Z" fill="#E6FF28"/>
<path d="M458.88 236.589H436.395C430.905 236.589 426.454 240.946 426.454 246.32V268.329C426.454 273.703 430.905 278.059 436.395 278.059H458.88C464.371 278.059 468.822 273.703 468.822 268.329V246.32C468.822 240.946 464.371 236.589 458.88 236.589Z" fill="#FF5100"/>
<path d="M458.752 176.852H436.267C430.776 176.852 426.325 181.209 426.325 186.583V208.591C426.325 213.966 430.776 218.322 436.267 218.322H458.752C464.242 218.322 468.693 213.966 468.693 208.591V186.583C468.693 181.209 464.242 176.852 458.752 176.852Z" fill="#5F00A2"/>
<path d="M456.742 264.418C460.148 260.132 458.433 253.252 452.911 249.051C447.39 244.851 440.152 244.921 436.746 249.208C433.339 253.495 435.054 260.375 440.576 264.575C446.098 268.775 453.335 268.705 456.742 264.418Z" fill="#F99770"/>
<path d="M464.084 196.628C461.9 197.209 461.659 195.417 459.378 195.417C457.097 195.417 457.114 196.659 454.849 196.659C452.584 196.659 452.584 195.417 450.32 195.417C448.055 195.417 448.039 196.659 445.775 196.659C443.51 196.659 443.51 195.417 441.246 195.417C438.981 195.417 438.965 196.659 436.684 196.659C434.404 196.659 434.5 195.999 432.3 195.433C431.722 195.276 431.513 195.433 431.513 194.851C431.513 194.27 432.782 194.254 432.782 193.672C432.782 193.091 431.513 193.075 431.513 192.493C431.513 191.912 432.782 191.896 432.782 191.314C432.782 190.733 431.513 190.717 431.513 190.12C431.513 189.522 432.782 189.522 432.782 188.925C432.782 188.328 431.384 187.353 431.979 187.133C434.179 186.567 434.42 188.359 436.684 188.359C438.949 188.359 438.949 187.117 441.214 187.117C443.478 187.117 443.478 188.359 445.759 188.359C448.039 188.359 448.023 187.117 450.288 187.117C452.552 187.117 452.552 188.359 454.833 188.359C457.114 188.359 457.097 187.117 459.378 187.117C461.659 187.117 461.562 187.762 463.763 188.343C464.341 188.485 464.566 188.343 464.566 188.925C464.566 189.507 463.281 189.507 463.281 190.104C463.281 190.701 464.566 190.686 464.566 191.283C464.566 191.88 463.281 191.88 463.281 192.462C463.281 193.044 464.566 193.059 464.566 193.657C464.566 194.254 463.152 194.427 463.313 194.993C463.554 195.936 464.678 196.486 464.084 196.628Z" fill="#BA89E5"/>
<path d="M464.084 209.079C461.9 209.645 461.659 207.853 459.378 207.853C457.097 207.853 457.114 209.095 454.849 209.095C452.584 209.095 452.584 207.853 450.32 207.853C448.055 207.853 448.039 209.095 445.775 209.095C443.51 209.095 443.51 207.853 441.246 207.853C438.981 207.853 438.965 209.095 436.684 209.095C434.404 209.095 434.5 208.45 432.3 207.868C431.722 207.727 431.513 207.868 431.513 207.302C431.513 206.737 432.782 206.705 432.782 206.108C432.782 205.51 431.513 205.526 431.513 204.929C431.513 204.331 432.782 204.347 432.782 203.75C432.782 203.152 431.513 203.152 431.513 202.555C431.513 201.958 432.782 201.973 432.782 201.376C432.782 200.779 431.384 199.804 431.979 199.584C434.179 199.002 434.42 200.81 436.684 200.81C438.949 200.81 438.949 199.552 441.214 199.552C443.478 199.552 443.478 200.81 445.759 200.81C448.039 200.81 448.023 199.552 450.288 199.552C452.552 199.552 452.552 200.81 454.833 200.81C457.114 200.81 457.097 199.552 459.378 199.552C461.659 199.552 461.562 200.213 463.763 200.779C464.341 200.936 464.566 200.779 464.566 201.36C464.566 201.942 463.281 201.958 463.281 202.539C463.281 203.121 464.566 203.137 464.566 203.718C464.566 204.3 463.281 204.316 463.281 204.913C463.281 205.51 464.566 205.51 464.566 206.092C464.566 206.674 463.152 206.862 463.313 207.444C463.554 208.387 464.678 208.922 464.084 209.079Z" fill="#BA89E5"/>
<path d="M477.285 182.637H575.27" stroke="#5F00A2" stroke-miterlimit="10"/>
<path d="M476.98 193.281H574.966" stroke="#5F00A2" stroke-miterlimit="10"/>
<path d="M476.98 202.712H574.966" stroke="#5F00A2" stroke-miterlimit="10"/>
<path d="M476.98 212.145H574.966" stroke="#5F00A2" stroke-miterlimit="10"/>
<path d="M477.88 242.374H575.85" stroke="#5F00A2" stroke-miterlimit="10"/>
<path d="M477.574 253.018H575.559" stroke="#5F00A2" stroke-miterlimit="10"/>
<path d="M477.574 262.449H575.559" stroke="#5F00A2" stroke-miterlimit="10"/>
<path d="M477.574 271.881H575.559" stroke="#5F00A2" stroke-miterlimit="10"/>
<path d="M160.145 255.157L271.241 255.157C277.342 255.157 282.287 250.293 282.287 244.292V184.131C282.287 178.13 277.342 173.266 271.241 173.266H160.145C154.044 173.266 149.098 178.13 149.098 184.131V244.292C149.098 250.293 154.044 255.157 160.145 255.157Z" fill="#EDEDED"/>
<path d="M151.019 262.173C151.348 261.919 160.049 255.253 158.759 252.669C157.868 250.985 153.365 252.992 151.019 250.754C146.845 246.833 154.139 234.215 152.943 233.638C151.746 233.061 146.563 239.59 143.28 248.863C140.935 255.23 141.826 257.214 139.41 262.173C137.124 266.698 133.81 270.645 129.724 273.707C122.688 279.497 106.271 293.569 84.0615 312.923C86.4068 317.052 89.9247 320.835 91.8479 325.379C111.806 305.795 124.096 283.05 151.019 262.173Z" fill="#AAB51C"/>
<path d="M236.154 248.859C235.193 247.66 226.422 256.61 216.806 254.557C213.053 253.773 210.497 251.489 209.066 252.665C207.636 253.842 209.231 256.541 209.066 260.278C208.855 265.122 205.9 268.582 203.25 271.812C192.016 285.007 146.049 315.871 116.193 317.486C114.106 317.486 111.151 315.595 106.507 315.572C97.8061 315.572 92.7637 320.185 89.1051 317.486C88.483 317.062 87.9789 316.492 87.6388 315.827C87.2987 315.162 87.1336 314.424 87.1585 313.68C87.1585 312.988 87.651 311.904 91.0282 309.874C95.2497 307.336 96.8445 307.567 98.7676 306.068C99.7783 305.128 100.587 303.999 101.147 302.747C101.707 301.495 102.007 300.146 102.028 298.778C103.346 297.739 104.251 296.278 104.584 294.649C104.638 292.576 103.949 290.551 102.637 288.928C99.6354 283.83 101.559 279.701 100.714 275.618C98.8145 266.391 83.3591 256.771 69.733 260.393C64.3201 261.973 59.5934 265.275 56.2945 269.782C50.1498 258.455 39.6899 252.527 31.1296 254.557C29.0618 255.078 27.1307 256.027 25.4646 257.339C23.7986 258.652 22.4358 260.298 21.467 262.169C17.996 270.312 24.7504 282.677 34.9993 285.007C44.615 287.313 52.4951 279.539 53.058 278.963C47.5231 290.497 48.3674 297.671 50.4782 302.146C54.5824 310.935 64.8548 312.688 65.9571 321.177C66.6372 326.229 63.6118 330.404 62.0873 332.596C62.0873 332.596 47.0072 354.257 27.2599 399.216C21.8657 411.534 21.0683 427.728 19.5204 460.115C17.48 500.83 22.4755 526.205 7.81743 540.046C5.47214 542.214 -0.766317 547.451 0.0779857 553.356C0.476684 556.147 2.00112 555.894 11.8044 566.689C14.1497 569.296 16.1432 571.626 19.5439 572.41C21.4672 572.751 23.4369 572.751 25.3602 572.41C27.8462 572.018 30.3322 571.649 31.153 570.496C33.4983 567.358 22.9211 559.677 19.4266 551.465C12.9536 535.663 33.3107 518.985 46.5147 492.457C55.2058 474.624 59.8322 455.138 60.0704 435.364C62.3641 440.954 65.6342 446.106 69.733 450.588C76.5028 457.885 85.2234 463.161 94.8979 465.813C80.8262 508.673 71.8203 522.906 65.8633 526.713C64.5968 527.543 57.772 531.511 58.1238 536.24C58.3782 537.669 59.0553 538.993 60.0704 540.046C66.4027 548.766 64.4795 553.495 69.733 557.162C71.9376 558.708 75.9011 560.438 77.4724 559.077C80.2868 556.77 71.492 547.981 71.6796 538.131C71.9141 525.467 86.877 521.384 103.669 503.875C114.34 492.757 131.555 474.833 127.802 458.201C124.308 442.93 102.426 425.583 92.9748 420.093C88.841 417.964 85.4629 414.649 83.2887 410.589C81.5968 406.986 80.932 403 81.3656 399.055C82.2771 389.73 85.1572 380.696 89.8216 372.529C94.486 364.363 100.832 357.243 108.454 351.627C118.937 343.807 121.611 346.713 137.465 338.294C165.327 323.553 186.294 301.592 214.859 271.696C214.859 271.696 216.055 270.543 220.676 265.975C234.794 251.996 236.624 249.39 236.154 248.859Z" fill="#E6FF28"/>
<path d="M224.17 210.476C227.336 211.306 227.219 212.252 230.479 212.252C233.739 212.252 233.739 210.453 236.999 210.453C240.259 210.453 240.259 212.252 243.519 212.252C246.779 212.252 246.802 210.453 250.062 210.453C253.322 210.453 253.322 212.252 256.582 212.252C259.842 212.252 259.865 210.453 263.125 210.453C266.385 210.453 266.76 213.036 269.903 212.229C270.747 211.998 268.754 210.499 268.754 209.645C268.754 208.792 270.583 208.792 270.583 207.938C270.583 207.085 268.754 207.085 268.754 206.231C268.754 205.378 270.583 205.378 270.583 204.524C270.583 203.671 268.754 203.648 268.754 202.794C268.754 201.941 270.583 201.941 270.583 201.064C270.583 200.188 270.278 200.441 269.434 200.234C266.291 199.38 266.409 198.458 263.149 198.458C259.889 198.458 259.889 200.257 256.629 200.257C253.369 200.257 253.369 198.458 250.085 198.458C246.802 198.458 246.825 200.257 243.565 200.257C240.306 200.257 240.306 198.458 237.022 198.458C233.739 198.458 233.762 200.257 230.479 200.257C227.195 200.257 226.867 197.65 223.701 198.481C222.88 198.711 224.85 200.211 224.85 201.064C224.85 201.918 223.021 201.918 223.021 202.771C223.021 203.625 224.85 203.625 224.85 204.478C224.85 205.332 223.021 205.332 223.021 206.185C223.021 207.039 224.85 207.039 224.85 207.915C224.85 208.792 223.279 208.561 223.068 209.415C222.857 210.268 223.326 210.176 224.17 210.476Z" fill="#BA89E5"/>
<path d="M224.17 228.47C227.336 229.3 227.219 230.246 230.479 230.246C233.739 230.246 233.739 228.447 236.999 228.447C240.259 228.447 240.259 230.246 243.519 230.246C246.779 230.246 246.802 228.447 250.062 228.447C253.322 228.447 253.322 230.246 256.582 230.246C259.842 230.246 259.865 228.447 263.125 228.447C266.385 228.447 266.76 231.03 269.903 230.223C270.747 229.992 268.754 228.493 268.754 227.639C268.754 226.786 270.583 226.786 270.583 225.932C270.583 225.079 268.754 225.079 268.754 224.225C268.754 223.372 270.583 223.372 270.583 222.518C270.583 221.665 268.754 221.642 268.754 220.788C268.754 219.934 270.583 219.934 270.583 219.058C270.583 218.181 270.278 218.435 269.434 218.227C266.291 217.374 266.409 216.451 263.149 216.451C259.889 216.451 259.889 218.251 256.629 218.251C253.369 218.251 253.369 216.451 250.085 216.451C246.802 216.451 246.825 218.251 243.565 218.251C240.306 218.251 240.306 216.451 237.022 216.451C233.739 216.451 233.762 218.251 230.479 218.251C227.195 218.251 226.867 215.644 223.701 216.474C222.88 216.705 224.85 218.204 224.85 219.058C224.85 219.911 223.021 219.911 223.021 220.765C223.021 221.618 224.85 221.618 224.85 222.472C224.85 223.325 223.021 223.325 223.021 224.179C223.021 225.033 224.85 225.033 224.85 225.909C224.85 226.786 223.279 226.555 223.068 227.409C222.857 228.262 223.326 228.262 224.17 228.47Z" fill="#BA89E5"/>
<path d="M183.479 234.999C196.678 234.999 207.377 224.475 207.377 211.493C207.377 198.51 196.678 187.986 183.479 187.986C170.28 187.986 159.58 198.51 159.58 211.493C159.58 224.475 170.28 234.999 183.479 234.999Z" fill="#FF5100"/>
<path d="M662.498 477.163C661.9 483.522 661.148 492.624 660.699 503.867C665.647 501.291 670.051 499.196 673.744 497.53C676.718 496.173 678.994 495.231 681.841 495.72C683.96 496.087 687.464 497.435 687.689 499.341C688.292 504.437 665.008 509.669 665.647 513.824C666.178 517.268 682.579 516.349 685.44 523.328C686.212 525.541 686.814 527.811 687.24 530.117C687.77 532.874 688.036 534.254 687.689 534.643C684.945 537.726 662.17 525.483 660.699 524.686C659.857 524.234 657.617 522.998 654.85 523.328C652.084 523.659 650.172 525.392 649.452 526.044C640.487 534.15 629.209 544.356 625.161 542.337C624.342 541.93 623.717 540.106 622.461 536.454C621.206 532.801 620.5 530.756 620.662 529.212C621.431 521.812 642.655 520.251 642.705 516.087C642.754 511.724 619.506 508.967 619.762 505.224C619.852 503.894 622.884 502.857 627.86 501.151C631.274 499.979 633.028 499.377 635.057 499.341C642.282 499.205 645.939 506.365 648.103 505.677C650.721 504.844 650.464 492.733 642.255 453.628C646.753 453.574 657.302 454.027 661.598 460.87C663.919 464.568 663.321 468.428 662.498 477.163Z" fill="#A8A7A7"/>
<path d="M605.592 482.368C604.616 484.45 602.893 487.926 603.793 491.873C604.269 494 605.169 494.742 606.941 499.567C608.606 504.093 608.403 505.043 608.291 505.451C607.481 508.316 603.653 510.017 600.644 510.429C594.872 511.217 593.644 507.044 587.148 506.808C581.3 506.596 580.131 509.909 575.002 509.071C569.789 508.22 564.939 503.812 565.555 501.377C566.262 498.558 573.77 500.391 582.65 494.588C586.815 491.873 587.796 489.741 588.048 489.157C589.798 485.084 587.908 480.911 586.248 476.484C583.759 469.805 581.877 462.913 580.625 455.891C549.617 442.313 530.827 421.458 534.291 408.368C538.65 391.894 577.76 389.558 597.72 391.17C614.238 392.505 624.468 393.333 628.759 400.674C637.149 415.022 620.563 450.424 605.592 482.368Z" fill="#AAB51C"/>
<path d="M547.787 358.582C544.638 355.364 548.943 344.891 554.085 338.668C561.494 329.702 567.189 333.73 586.474 321.922C588.966 320.396 593.068 317.758 599.069 316.943C604.494 316.205 611.8 316.92 612.565 319.659C613.37 322.551 606.627 326.787 601.319 330.068C552.159 360.442 549.105 359.926 547.787 358.582Z" fill="#AAB51C"/>
<path d="M660.024 227.103C656.465 227.506 655.075 223.749 651.926 224.387C649.677 224.84 649.893 226.854 646.978 228.461C643.501 230.38 641.13 228.678 638.431 229.818C636.222 230.755 633.834 233.616 633.033 242.039C625.111 249.891 623.694 255.929 624.036 260.142C624.441 265.157 627.329 267.443 626.285 272.815C625.241 278.188 621.616 279.563 622.236 283.678C622.686 286.773 624.832 286.57 627.185 291.372C629.537 296.174 628.278 298.043 630.334 301.329C631.517 303.221 633.834 305.638 638.881 307.213C635.362 307.598 631.894 308.356 628.534 309.476C622.182 311.594 618.498 314.133 614.589 316.265C607.999 319.863 606.379 319.098 594.121 323.28C594.121 323.28 572.821 330.549 555.434 344.099C552.857 346.093 550.66 348.539 548.947 351.318C546.851 354.735 545.038 357.691 545.987 359.488C548.389 364.036 568.327 361.054 583.325 354.509C588.052 352.445 590.846 350.585 595.246 351.115C605.228 352.318 611.782 364.57 614.589 372.387C617.513 380.533 619.061 395.017 611.89 403.163C594.553 422.865 542.775 386.87 522.82 407.237C513.157 417.094 516.194 434.845 516.972 439.371C521.47 465.649 551.754 499.974 557.908 505.903C558.65 506.618 560.976 508.786 561.057 511.787C561.147 515.19 558.295 517.883 556.559 519.481C552.402 523.305 547.935 524.849 544.863 525.817C530.315 530.407 523.918 529.397 522.82 532.606C521.92 535.286 525.069 539.807 529.118 542.111C540.922 548.809 552.06 532.045 570.054 536.68C573.32 537.521 577.854 539.332 583.1 537.585C584.098 537.25 589.011 535.611 591.197 530.796C593.289 526.184 591.548 521.594 590.747 519.481C588.466 513.461 584.184 510.393 581.75 508.166C573.167 500.313 576.667 492.986 568.705 468.337C563.05 450.84 558.25 445.137 561.057 442.087C564.701 438.126 576.181 444.046 585.799 447.97C606.636 456.475 640.496 464.495 660.923 457.928C700.182 445.309 723.988 367.829 700.96 337.989C691.27 325.439 672.412 320.17 669.021 301.329C668.391 297.835 666.771 288.787 671.72 283.225C676.605 277.744 684.806 279.097 686.565 273.72C687.883 269.679 684.315 265.646 686.565 263.311C688.184 261.627 690.897 262.835 691.963 261.048C692.831 259.581 691.23 258.404 691.063 255.164C690.847 250.973 693.393 250.14 692.863 246.565C692.476 243.967 691.117 244.302 690.163 240.681C689.327 237.513 690.082 236.155 688.814 234.797C687.464 233.326 686.115 234.322 684.315 232.987C681.535 230.914 683.069 227.239 680.717 225.745C678.868 224.573 677.568 226.605 673.519 226.198C669.47 225.79 668.827 223.514 665.872 223.935C662.916 224.356 662.817 226.786 660.024 227.103Z" fill="#E6FF28"/>
<path d="M680.267 335.273C684.698 327.081 689.466 323.75 692.413 322.148C695.463 320.487 700.231 318.69 703.659 318.98C716.38 320.048 725.746 351.114 728.85 375.102C732.66 404.548 736.97 437.855 715.805 461.548C684.932 496.104 626.636 480.24 607.841 475.126C598.498 472.582 553.904 460.448 550.261 435.297C549.451 429.708 550.373 421.484 555.209 418.551C562.258 414.279 571.786 424.802 593.446 434.845C608.507 441.828 625.57 449.74 644.729 446.16C649.151 445.332 669.538 441.525 677.118 426.246C683.555 413.265 673.591 406.431 673.069 370.123C672.948 362.85 673.15 348.417 680.267 335.273Z" fill="#5F00A2"/>
<rect x="186.894" y="349.452" width="262.819" height="100.261" rx="11" fill="#FF5100"/>
<circle cx="234.59" cy="400.069" r="31.1489" fill="#D9D9D9"/>
<line x1="280.34" y1="373.234" x2="425.378" y2="373.234" stroke="#EDEDED" stroke-width="5"/>
<line x1="280.34" y1="388.808" x2="425.378" y2="388.808" stroke="#EDEDED" stroke-width="5"/>
<line x1="280.34" y1="406.33" x2="425.378" y2="406.33" stroke="#EDEDED" stroke-width="5"/>
<line x1="280.34" y1="424.824" x2="425.378" y2="424.824" stroke="#EDEDED" stroke-width="5"/>
</svg>
