<svg width="636" height="635" viewBox="0 0 636 635" fill="none" xmlns="http://www.w3.org/2000/svg">
<rect x="197" y="51" width="112" height="70" rx="11" fill="#FF5100"/>
<rect x="329" y="51" width="136" height="70" rx="11" fill="#FF5100"/>
<rect x="229" y="166" width="283" height="70" rx="11" fill="#FF5100"/>
<rect x="241" y="174" width="54" height="53" rx="7" fill="#5F00A2"/>
<rect x="301" y="174" width="54" height="53" rx="7" fill="#5F00A2"/>
<rect x="338" y="59" width="54" height="53" rx="7" fill="#D9D9D9"/>
<rect x="361" y="174" width="143" height="53" rx="7" fill="#D9D9D9"/>
<rect x="206" y="59" width="94" height="53" rx="7" fill="#D9D9D9"/>
<rect x="401" y="59" width="54" height="53" rx="7" fill="#5F00A2"/>
<line x1="214" y1="72" x2="292" y2="72" stroke="#5F00A2" stroke-width="2"/>
<line x1="399" y1="187" x2="496" y2="187" stroke="#5F00A2" stroke-width="2"/>
<line x1="216" y1="85" x2="294" y2="85" stroke="#5F00A2" stroke-width="2"/>
<line x1="399" y1="200" x2="496" y2="200" stroke="#5F00A2" stroke-width="2"/>
<line x1="216" y1="99" x2="294" y2="99" stroke="#5F00A2" stroke-width="2"/>
<line x1="399" y1="214" x2="496" y2="214" stroke="#5F00A2" stroke-width="2"/>
<circle cx="382.5" cy="199.5" r="13.5" fill="#E6FF28"/>
<rect x="197" y="31" width="268" height="10" rx="5" fill="#D9D9D9"/>
<rect x="229" y="146" width="283" height="10" rx="5" fill="#D9D9D9"/>
<path d="M258.019 334.6C255.682 334.895 250.462 335.437 250.077 334.187C250.055 334.103 250.055 334.014 250.077 333.929C249.711 316.119 246.37 298.492 240.189 281.767C238.409 276.985 236.478 272.507 234.464 268.34C234.207 264.565 234.403 260.774 235.047 257.045C235.458 254.654 236.728 251.4 238.742 244.722C239.533 242.099 239.528 242.14 239.642 241.696C244.123 224.586 240.897 222.36 245.492 215.568C247.761 212.222 250.176 210.357 252.18 205.198C253.955 200.648 254.553 195.711 253.434 195.246C252.039 194.662 248.542 201.247 247.189 200.638C246.424 200.297 246.72 197.932 247.189 195.659C250.311 181.359 248.854 179.401 248.021 179.071C246.065 178.296 241.188 184.008 238.825 190.267C236.005 197.751 238.612 201.149 237.993 209.345C237.378 217.417 234.761 215.346 225.455 237.962C220.136 250.873 220.459 252.851 216.675 258.703C215.322 260.571 214.331 262.672 213.75 264.9C212.241 271.283 215.093 276.861 216.259 279.417C216.67 280.321 218.065 289.147 220.854 306.789C223.074 321.217 224.464 335.758 225.018 350.342C225.257 356.116 225.819 373.309 223.764 399.281C221.162 432.479 217.966 429.819 214.573 465.227C211.731 494.85 213.261 501.978 208.718 516.655C206.445 523.504 205.046 530.609 204.554 537.804C204.081 545.101 205.043 545.396 205.809 558.978C205.809 558.978 207.307 585.545 203.17 598.854L201.609 603.77C200.729 606.094 198.408 612.214 194.088 616.625C187.687 623.158 182.118 620.612 176.112 627.827C174.473 629.794 172.355 632.402 173.187 634.024C174.967 637.531 186.943 630.301 204.934 632.366C211.242 633.089 214.583 634.53 217.05 632.366C220.631 629.268 217.976 622.435 217.05 614.946C215.27 600.45 221.411 594.96 227.084 573.057C230.064 561.448 231.846 549.569 232.403 537.602C238.546 526.587 243.89 515.151 248.396 503.382C260.012 473.056 261.407 452.574 265.118 452.77C270.265 453.064 275.47 493.162 275.985 511.646C276.059 516.991 276.904 522.299 278.493 527.408C280.439 533.522 283.405 539.269 287.268 544.409C303.771 567.169 321.836 592.083 315.273 607.034C313.045 612.101 308.585 615.747 308.585 615.747C301.97 621.149 296.204 619.651 290.609 625.699C289.823 626.551 285.535 631.194 286.852 633.58C288.751 637.04 299.503 630.481 317.36 631.091C327.769 631.447 333.056 633.988 336.169 630.678C339.385 627.248 337.314 620.731 336.169 616.573C327.607 585.674 340.618 578.728 330.73 558.586C323.808 544.451 315.372 543.655 312.338 528.719C311.073 522.476 311.593 517.926 312.338 510.473C313.873 495.15 314.7 479.77 316.1 464.437C318.541 437.762 311.77 439.905 311.937 406.372C311.973 398.801 314.19 379.067 318.624 339.6C321.154 317.098 321.981 311.835 322.387 309.32C324.24 297.855 323.912 285.842 327.821 274.898C328.466 273.091 330.079 268.835 329.075 263.697C328.123 258.863 325.333 255.702 323.642 253.745C323.642 253.745 308.549 236.299 298.561 217.247C297.356 214.998 296.377 212.636 295.637 210.197C293.831 204.181 294.554 200.999 293.966 196.924C292.488 186.668 283.797 178.11 281.429 179.091C279.8 179.763 280.575 185.165 281.007 188.217C282.339 197.513 286.456 202.982 285.171 203.974C283.719 205.115 277.51 198.51 276.396 199.414C275.282 200.318 280.726 207.465 285.171 216.002C292.405 229.89 290.5 234.811 297.292 249.184C300.344 255.585 304.05 261.657 308.351 267.307C305.462 275.43 303.029 283.706 301.065 292.096C296.11 313.328 296.542 325.299 287.533 331.347C283.666 333.929 279.487 334.492 276.823 334.6C279.425 333.568 290.531 328.697 293.758 318.043C299.316 299.714 277.338 279.206 267.543 281.798C258.857 284.102 255.396 305.751 258.019 334.6Z" fill="#E6FF28"/>
<path d="M270.135 278.606C265.742 278.023 264.509 276.267 260.944 276.949C256.609 277.78 254.048 281.22 253.835 281.514C251.102 285.295 253.241 287.603 250.91 292.298C248.375 297.4 244.826 296.713 243.806 300.592C242.656 304.977 247.012 306.557 247.969 313.446C248.901 320.016 245.289 321.018 245.887 327.964C246.543 335.685 251.16 336.227 250.899 342.063C250.561 349.691 242.572 350.992 242.125 358.657C241.714 365.371 247.751 366.496 247.558 372.756C247.251 382.806 231.482 387.335 232.928 394.323C233.766 398.367 239.366 398.398 240.033 403.03C240.678 407.482 235.744 409.088 235.021 414.645C234.297 420.202 238.143 427.515 243.379 429.163C250.566 431.42 255.151 421.447 264.275 422.965C271.623 424.169 272.362 431.229 278.488 431.26C286.456 431.291 288.657 419.314 296.459 419.231C303.303 419.164 304.614 428.362 313.175 429.602C320.493 430.666 329.418 425.382 330.73 419.231C332.041 413.08 324.484 411.108 321.117 400.154C317.37 388.017 324.667 383.901 320.279 373.613C316.636 365.009 310.464 365.422 307.742 356.193C305.983 350.223 308.059 348.369 307.742 340.431C307.221 327.437 301.424 326.657 298.967 313.472C295.933 297.24 303.167 290.061 296.885 282.785C294.127 279.593 289.079 276.747 283.932 276.587C278.285 276.334 276.521 279.459 270.135 278.606Z" fill="#AAB51C"/>
<path d="M130.646 80.8208C132.713 86.8277 138.056 99.2855 150.847 107.664C161.937 114.93 179.387 119.622 184.639 113.503C188.169 109.385 185.474 101.2 191.631 92.8819C192.371 91.8772 193 91.2045 193.573 91.3253C196.001 91.8556 194.925 106.345 193.573 118.949C184.596 122.399 168.684 126.97 149.293 124.395C142.517 123.49 135.87 121.793 129.488 119.337L130.646 80.8208Z" fill="#AAB51C"/>
<path d="M192.849 96.6981C191.251 101.936 190.024 107.281 189.177 112.692C189.05 113.498 188.83 114.286 188.523 115.042C187.947 116.332 187.158 117.516 186.189 118.544C182.611 122.252 167.134 125.939 156.285 129.824C152.948 131.019 150.95 131.911 148.126 131.381C142.796 130.38 139.515 125.245 138.026 122.433C137.615 116.804 137.122 111.069 136.545 105.228C135.546 95.1802 134.356 85.4835 132.976 76.1376C134.16 74.4861 135.955 72.6016 138.418 72.2567C141.737 71.7737 143.584 74.4688 146.167 73.4209C148.048 72.662 149.017 70.4412 149.895 68.4361C150.963 65.9954 150.653 64.8958 151.992 63.3089C153.331 61.722 154.261 62.1662 155.101 60.9717C156.823 58.5396 153.783 55.4952 153.934 50.4672C154.05 46.5604 155.944 46.2629 156.267 43.0762C156.965 36.1206 148.948 27.4316 139.95 25.5688C134.513 24.4433 129.889 26.0517 127.895 26.7374C125.665 27.5092 121.816 28.846 118.57 32.5717C114.385 37.3798 114.002 42.9511 113.912 44.6458C113.722 48.074 114.441 50.8338 115.466 54.7622C116.783 59.8333 118.359 62.7397 117.408 66.8363C117.079 67.907 116.569 68.9134 115.901 69.8116C106.11 81.514 97.9882 94.5216 91.7696 108.462C83.9297 126.086 81.0408 141.044 79.2843 150.527C78.4232 155.197 77.5621 163.744 75.6075 180.803C72.1375 210.988 71.9696 217.486 68.7793 229.811C67.0137 236.622 64.8575 243.325 62.3214 249.888C59.8458 256.214 57.4478 261.212 56.0658 264.075C53.8787 268.611 51.8595 272.428 50.2407 275.36C43.5981 277.958 37.4301 281.639 31.9863 286.253C18.8379 297.464 21.3522 310.979 9.03472 316.916C5.81866 318.469 1.00534 319.866 0.13567 323.6C-0.609146 326.791 1.93098 329.943 2.46484 330.603C5.8488 334.799 9.35331 333.225 15.2817 337.606C19.389 340.625 18.812 342.203 21.886 343.441C27.8575 345.847 35.5769 342.177 35.4822 340.327C35.4434 339.611 34.2509 339.525 30.0446 337.606C25.5025 335.536 23.2336 334.501 21.886 332.936C18.4418 328.96 19.4148 323.212 19.5569 322.432C20.0264 320.004 21.0934 317.732 22.661 315.821C32.8947 302.928 70.2259 284.985 70.8244 284.696C83.9211 278.404 85.4322 277.615 87.9164 275.36C94.172 269.685 95.9587 264.364 105.396 249.293C108.84 243.804 111.755 239.465 113.554 236.844C116.843 241.984 121.233 246.327 126.405 249.557C131.578 252.787 137.403 254.824 143.459 255.52C134.65 261.665 129.252 267.999 125.984 272.635C117.804 284.183 111.346 301.13 105.783 315.821C104.238 319.888 103.467 322.289 101.125 325.157C98.5763 328.262 96.4624 329.098 95.6874 332.143C95.6143 332.427 94.7575 336.024 96.8542 339.146C98.7399 341.962 101.861 342.695 104.173 343.195C108.22 344.057 111.389 343.397 113.563 343.035C127.702 340.668 133.97 345.972 139.197 341.09C139.365 340.935 142.271 338.158 141.526 336.032C141.095 334.842 139.701 334.273 135.313 333.307C126.965 331.47 125.209 332.013 122.105 330.198C120.96 329.53 117.705 327.611 117.059 324.359C116.491 321.505 118.183 318.947 119.001 317.749C126.72 306.421 143.971 287.96 152.014 278.456C156.659 272.958 158.42 270.207 163.281 266.007C167.978 261.941 170.281 261.091 171.891 257.896C175.004 251.742 171.831 244.274 170.651 241.509C164.439 226.887 147.773 215.141 132.196 204.162C130.574 203.075 129.243 201.604 128.322 199.88C126.384 196.12 127.228 192.118 127.542 190.544C129.295 181.7 129.359 170.121 129.488 146.991C129.488 145.753 129.488 144.766 129.488 144.266C133.178 146.853 140.066 150.807 148.13 149.712C150.67 149.367 152.707 148.44 156.676 146.599C165.614 142.455 177.458 135.508 184.23 129.872C185.776 128.578 187.188 127.284 189.668 126.37C192.737 125.258 194.554 125.835 195.885 124.425C197.491 122.7 196.875 119.738 196.66 118.591C195.82 114.059 195.39 106.676 195.979 93.9641C194.503 93.4812 193.301 95.219 192.849 96.6981Z" fill="#E6FF28"/>
<path d="M154.153 35.4998C156.332 33.555 155.781 28.7081 154.933 26.1639C153.994 23.3912 152.733 23.3912 151.428 20.3253C149.379 15.4913 150.468 10.6574 149.874 10.6013C149.469 10.5625 149.443 12.8781 147.545 14.4823C147.114 14.8617 145.879 15.901 144.824 15.6509C141.939 14.9695 142.241 5.18954 140.949 5.14642C140.325 5.12486 140.411 7.35425 138.62 9.02737C136.829 10.7005 133.66 11.3516 131.628 10.196C130.001 9.26886 130.375 7.92777 128.52 5.13779C126.367 1.87348 123.065 -0.46803 122.303 0.0796163C121.635 0.558267 123.538 2.83941 123.469 6.69449C123.414 9.82944 122.062 13.5077 120.361 13.6975C118.243 13.9303 116.486 8.63065 115.315 9.02737C114.411 9.32923 115.53 12.3909 114.148 16.4184C113.653 17.8587 113.468 17.5913 111.428 21.4766C109.899 24.3916 109.137 25.8492 108.711 27.311C107.85 30.2088 108.1 32.6279 108.323 34.7021C108.754 38.583 109.783 41.0582 111.04 44.4303C115.345 55.9869 114.885 58.8114 116.865 59.2124C119.715 59.7903 124.378 54.6933 125.024 49.4885C125.566 45.116 122.949 43.3178 123.857 38.984C124.43 36.2587 126.268 33.1281 128.907 31.593C137.117 26.841 149.542 39.6136 154.153 35.4998Z" fill="#AAB51C"/>
<path d="M461.388 509.439C468.317 529.678 471.125 545.425 472.378 556.224C472.158 554.71 471.884 552.921 471.829 552.921C471.669 552.921 475.065 567.458 471.279 569.434C468.042 571.124 463.273 561.7 454.244 561.728C448.969 561.728 443.633 564.981 443.804 567.232C444.166 571.96 468.861 571.977 469.081 576.039C469.295 580.013 445.793 582.644 446.002 586.496C446.128 588.825 454.838 591.659 463.036 589.799C471.565 587.861 471.499 582.644 478.423 580.992C490.836 577.993 500.029 592.551 508.096 588.148C511.327 586.386 513.47 582.093 512.492 579.341C510.212 572.94 491.199 575.653 490.512 571.635C490.012 568.724 499.821 566.181 499.304 562.829C498.903 560.214 492.353 557.952 487.215 559.526C484.374 560.396 483.561 561.954 482.819 561.728C480.725 561.084 482.176 547.049 493.259 500.082L461.388 509.439Z" fill="#A8A7A7"/>
<path d="M403.415 445.872C387.111 475.77 398.425 525.44 429.791 545.497C454.206 561.106 482.335 553.389 511.118 545.497C550.974 534.565 614.184 504.37 611.129 472.292C609.128 451.294 579.57 438.359 562.772 431.011C515.234 410.211 428.692 399.5 403.415 445.872Z" fill="#5F00A2"/>
<path d="M448.749 385.052C443.567 387.986 440.974 389.455 435.836 391.382C428.418 394.161 427.808 396.638 399.019 423.856C393.881 428.716 390.023 432.299 389.128 438.166C388.913 439.57 388.501 443.522 392.425 451.927C400.118 468.439 410.762 472.551 418.526 491.281L418.779 491.898C418.933 492.448 418.933 493.081 419.098 495.431C419.202 496.862 419.334 500.132 420.197 506.693C420.746 510.76 421.384 515.945 424.318 521.278C426.181 524.658 429.813 529.694 432.011 528.984C433.572 528.478 434.413 525.005 434.484 523.205C434.502 522.643 434.491 522.081 434.451 521.521C434.308 519.902 433.902 519.055 433.935 516.6C434.028 511.955 435.72 506.693 437.232 506.693C439.545 506.693 440.408 518.89 441.628 518.802C443.128 518.697 447.31 503.495 439.43 491.281C436.977 487.535 433.674 484.423 429.791 482.199C426.308 473.061 422.081 464.225 417.153 455.78C415.345 452.686 413.504 449.753 411.658 446.973C416.389 442.269 421.988 438.53 428.143 435.965C430.287 435.079 432.491 434.343 434.737 433.763C438.702 445.718 443.665 457.318 449.574 468.439C461.207 490.334 467.812 499.939 478.148 506.968C483.753 510.777 497.579 518.637 521.01 516.875C522.449 516.765 526.219 516.413 529.802 518.526C534.747 521.444 536.665 527.487 537.495 532.287L562.772 505.867L577.06 508.069C575.005 514.461 574.441 521.239 575.411 527.883C576.537 535.105 578.845 536.822 584.753 549.9C592.517 567.078 596.32 575.808 592.721 582.649C591.429 585.099 589.231 587.245 588.874 591.456C588.813 592.193 588.418 597.675 591.621 600.813C594.919 604.055 599.001 601.765 608.656 601.914C622.823 602.128 629.95 607.302 633.934 603.014C634.142 602.794 635.862 600.884 635.582 598.611C635.082 594.56 628.796 593.839 618.547 587.053C612.838 583.271 611.113 581.059 610.305 579.897C608.21 576.768 606.891 573.182 606.458 569.439C604.969 557.738 606.315 530.025 602.337 511.921C601.628 508.707 600.661 505.372 600.414 500.088C600.034 491.991 602.101 489.019 600.414 484.126C600.034 483.025 598.26 478.181 592.171 473.118C584.846 467.03 577.746 466.634 553.98 462.935C535.127 460.001 531.906 459.115 528.703 455.78C526.378 453.363 524.131 447.837 519.636 436.79C516.888 429.993 516.284 427.61 517.438 426.333C518.29 425.386 520.147 424.962 530.351 428.259C540.556 431.556 543.485 433.549 551.233 435.414C560.508 437.644 563.619 436.559 564.97 435.965C568.982 434.187 571.015 430.686 572.663 427.709C584.297 406.545 584.687 395.058 592.721 392.207C593.82 391.816 596.748 391.216 602.612 390.006C608.942 388.701 609.206 388.85 610.854 388.354C619.053 385.922 625.614 378.695 624.592 376.796C624.042 375.744 621.405 376.829 612.503 377.897C605.738 378.706 597.721 379.669 597.117 377.897C596.32 375.563 607.761 370.284 607.008 368.54C606.535 367.439 601.425 368.314 597.391 369.916C596.441 370.29 592.534 371.903 587.5 376.521C585.808 378.073 583.434 380.472 578.983 386.703C573.96 393.737 573.411 395.68 570.74 399.363C567.993 403.177 563.399 408.208 555.629 412.848C539.512 406.545 529.769 400.106 523.757 395.234C519.812 392.037 515.454 387.87 508.096 386.153C503.063 384.98 500.65 385.894 495.122 383.714C492.029 382.498 485.231 379.828 484.742 374.869C484.648 373.629 484.848 372.385 485.326 371.237C485.803 370.089 486.545 369.071 487.49 368.264C489.594 366.613 491.562 367.444 492.985 365.512C493.65 364.61 493.798 363.443 494.084 361.109C494.304 359.331 494.446 358.175 494.084 356.706C493.65 354.955 492.985 354.735 492.985 353.403C492.985 351.714 494.045 351.35 494.084 350.101C494.155 347.822 490.671 347.398 489.138 344.597C487.369 341.366 490.276 338.768 489.688 334.139C489.402 331.877 488.237 328.772 484.193 325.332C486.314 322.294 486.314 320.714 485.841 319.828C485.094 318.43 483.209 318.843 481.995 317.076C480.709 315.21 481.951 313.476 480.896 312.673C479.368 311.506 476.499 314.908 473.202 313.774C471.774 313.278 471.944 312.464 470.455 312.122C469.343 311.897 468.19 311.984 467.124 312.372C466.057 312.761 465.118 313.436 464.41 314.324C463.13 316.085 463.745 317.83 462.762 318.177C462.003 318.441 461.405 317.483 458.915 315.975C456.937 314.775 455.948 314.176 455.069 314.324C452.92 314.682 452.728 317.973 450.673 318.177C449.365 318.304 449.024 317.016 447.376 317.076C446.084 317.126 444.535 318.012 444.079 319.278C443.194 321.744 447.068 324.006 446.277 325.883C445.441 327.87 440.721 326.257 439.133 328.635C437.545 331.013 441.331 335.157 439.682 336.891C438.869 337.755 437.77 336.935 436.385 337.992C435.684 338.587 435.16 339.364 434.869 340.238C434.579 341.111 434.533 342.048 434.737 342.945C435.253 344.987 437.083 345.373 436.935 346.798C436.803 348.097 435.253 348.086 434.737 349.55C433.995 351.647 436.034 354.9 438.583 356.155C440.232 356.959 440.858 356.326 441.88 357.256C443.469 358.709 442.501 360.608 444.079 362.21C445.178 363.311 447.101 363.861 448.475 363.311C450.217 362.617 450.491 360.432 451.222 360.559C451.953 360.685 451.612 363.019 452.871 364.962C453.97 366.657 455.871 367.373 457.267 367.714C458.256 369.563 459.619 372.849 458.64 376.245C457.871 378.92 455.838 381.034 448.749 385.052Z" fill="#E6FF28"/>
<path d="M536.275 527.069C535.247 516.677 532.934 513.744 534.912 508.658C537.264 502.603 544.512 496.549 553.244 497.325C561.486 498.073 567.41 504.618 568.965 510.623C570.262 515.637 567.954 518.037 566.767 525.891C566.536 527.471 566.685 528.456 566.465 533.371C566.262 537.835 566.069 541.253 566.047 541.627C565.322 553.912 553.788 575.824 555.057 586.211C555.431 589.238 556.156 592.815 556.156 592.815C556.567 595.049 557.118 597.255 557.805 599.42C558.417 601.301 559.151 603.14 560.003 604.924C561.303 607.637 562.895 610.198 564.75 612.564C569.421 618.454 572.993 619.169 572.641 620.886C572.174 623.088 565.344 625.29 559.766 623.088C552.843 620.375 550.804 613.494 545.628 610.517C542.583 608.766 541.232 608.651 539.61 607.721C538.955 607.33 538.342 606.873 537.781 606.356C534.577 603.604 531.824 597.51 533.077 592.254C534.022 588.291 536.374 588.357 538.572 584.548C544.155 574.784 535.984 561.36 535.682 548.018C535.61 543.845 537.643 540.917 536.275 527.069Z" fill="#E6FF28"/>
</svg>
