<svg width="601" height="547" viewBox="0 0 601 547" fill="none" xmlns="http://www.w3.org/2000/svg">
<rect x="302" y="40" width="140" height="46" rx="11" fill="#FF5100"/>
<rect x="302" y="111" width="225" height="46" rx="11" fill="#FF5100"/>
<rect x="538" y="111" width="9" height="46" rx="4.5" fill="#EDEDED"/>
<rect x="342" y="182" width="9" height="47" rx="4.5" fill="#EDEDED"/>
<rect x="302" y="182" width="9" height="47" rx="4.5" fill="#EDEDED"/>
<rect x="558" y="111" width="9" height="46" rx="4.5" fill="#EDEDED"/>
<rect x="362" y="182" width="9" height="47" rx="4.5" fill="#EDEDED"/>
<rect x="322" y="182" width="9" height="47" rx="4.5" fill="#EDEDED"/>
<rect x="578" y="111" width="9" height="46" rx="4.5" fill="#EDEDED"/>
<rect x="388" y="182" width="213" height="47" rx="11" fill="#FF5100"/>
<rect x="302" y="257" width="299" height="46" rx="11" fill="#FF5100"/>
<rect x="302" y="361" width="137" height="140" rx="11" fill="#EDEDED"/>
<rect x="463" y="361" width="138" height="140" rx="11" fill="#EDEDED"/>
<rect x="311" y="370" width="119" height="33" rx="7" fill="#FF5100"/>
<rect x="473" y="370" width="118" height="33" rx="7" fill="#E6FF28"/>
<circle cx="317" cy="8" r="8" fill="#5F00A2"/>
<circle cx="361" cy="8" r="8" fill="#5F00A2"/>
<circle cx="449" cy="8" r="8" fill="#5F00A2"/>
<circle cx="537" cy="8" r="8" fill="#5F00A2"/>
<circle cx="405" cy="8" r="8" fill="#5F00A2"/>
<circle cx="493" cy="8" r="8" fill="#5F00A2"/>
<circle cx="581" cy="8" r="8" fill="#5F00A2"/>
<rect x="315" y="8" width="4" height="315" rx="2" fill="#5F00A2"/>
<rect x="359" y="8" width="4" height="315" rx="2" fill="#5F00A2"/>
<rect x="448" y="8" width="3" height="315" rx="1.5" fill="#5F00A2"/>
<rect x="536" y="8" width="3" height="315" rx="1.5" fill="#5F00A2"/>
<rect x="404" y="8" width="3" height="315" rx="1.5" fill="#5F00A2"/>
<rect x="492" y="8" width="3" height="315" rx="1.5" fill="#5F00A2"/>
<rect x="580" y="8" width="3" height="315" rx="1.5" fill="#5F00A2"/>
<rect x="363" y="111" width="41" height="46" fill="#E6FF28"/>
<rect x="363" y="111" width="41" height="46" fill="#E6FF28"/>
<rect x="451" y="182" width="41" height="47" fill="#E6FF28"/>
<rect x="451" y="182" width="41" height="47" fill="#E6FF28"/>
<rect x="407" y="257" width="41" height="46" fill="#E6FF28"/>
<rect x="407" y="257" width="41" height="46" fill="#E6FF28"/>
<rect x="451" y="257" width="41" height="46" fill="#E6FF28"/>
<rect x="451" y="257" width="41" height="46" fill="#E6FF28"/>
<line x1="316" y1="415" x2="427" y2="415" stroke="#5F00A2" stroke-width="2"/>
<line x1="477" y1="415" x2="587" y2="415" stroke="#5F00A2" stroke-width="2"/>
<line x1="316" y1="457" x2="427" y2="457" stroke="#5F00A2" stroke-width="2"/>
<line x1="477" y1="457" x2="587" y2="457" stroke="#5F00A2" stroke-width="2"/>
<line x1="316" y1="429" x2="427" y2="429" stroke="#5F00A2" stroke-width="2"/>
<line x1="477" y1="429" x2="587" y2="429" stroke="#5F00A2" stroke-width="2"/>
<line x1="316" y1="471" x2="427" y2="471" stroke="#5F00A2" stroke-width="2"/>
<line x1="477" y1="471" x2="587" y2="471" stroke="#5F00A2" stroke-width="2"/>
<line x1="316" y1="444" x2="427" y2="444" stroke="#5F00A2" stroke-width="2"/>
<line x1="477" y1="444" x2="587" y2="444" stroke="#5F00A2" stroke-width="2"/>
<line x1="316" y1="486" x2="427" y2="486" stroke="#5F00A2" stroke-width="2"/>
<line x1="477" y1="486" x2="587" y2="486" stroke="#5F00A2" stroke-width="2"/>
<path d="M290.423 214.362C288.984 207.505 282.957 200.761 270.899 187.266C266.015 181.794 260.8 176.623 255.282 171.781C256.407 169.44 259.335 162.542 257.232 154.358C254.973 145.558 248.337 140.776 245.52 138.874C238.562 134.183 235.431 135.797 222.096 131.134C212.03 127.613 203.034 124.468 202.573 119.522C202.065 114.127 212.256 112.732 214.285 104.037C216.249 95.5793 208.83 87.3045 206.478 84.6803C198.266 75.5368 187.342 73.7081 183.049 73.0635C177.599 72.2452 160.358 69.6439 151.814 80.808C146.235 88.0954 147.415 97.2663 147.908 100.165C143.122 106.524 142.375 114.867 145.958 121.455C150.177 129.177 158.44 130.905 159.62 131.134V138.874C150.974 141.578 142.504 144.81 134.26 148.552C111.973 158.715 91.5255 172.448 73.7393 189.199C53.1463 180.618 41.591 173.015 34.7574 167.47C34.7574 167.47 24.9035 159.474 23.2297 161.069C22.515 161.751 24.1519 163.712 23.2297 165.184C22.598 166.199 20.7259 167.013 12.6243 165.641C3.94623 164.165 0.921366 162.345 0.174373 163.355C-0.881561 164.791 2.94101 171.493 9.39651 174.328C16.4099 177.4 20.8735 173.413 27.8408 176.613C30.9625 178.04 32.1199 179.772 36.1407 184.385C43.7536 193.113 40.6042 188.043 60.5794 208.616C69.9075 218.216 70.7237 219.464 73.7255 220.168C78.7977 221.357 84.9489 218.312 97.1497 212.428C116.456 203.111 117.116 202.211 118.628 202.75C127.79 206.023 117.056 239.077 116.373 290.907C115.94 323.732 119.329 380.394 114.529 396.057C111.8 404.649 111.481 413.815 113.607 422.573C119.357 447.521 115.197 495.524 114.723 500.827C113.464 514.785 111.661 518.657 108.866 522.118C99.6766 533.47 82.2237 533.159 82.2514 538.238C82.2514 540.862 86.9316 542.81 89.168 543.724C99.5982 548.049 103.863 541.438 118.679 543.267C124.143 543.943 128.911 545.507 131.59 542.81C133.185 541.2 133.365 538.754 133.434 537.781C133.72 533.812 131.544 531.874 130.34 527.924C129.653 525.675 129.123 522.241 130.234 517.5C130.234 517.5 130.28 516.897 130.34 516.312C131.106 508.59 134.246 500.827 134.246 500.827C138.276 490.847 143.426 465.826 145.423 452.746C147.003 442.305 147.774 431.759 147.729 421.201C150.543 414.21 152.854 407.03 154.645 399.714C160.363 376.266 159.865 354.678 165.481 322.754C166.242 318.406 167.602 311.141 169.382 311.141C171.356 311.141 172.817 320.02 173.288 322.754C180.177 362.779 187.854 382.698 187.121 399.102C186.687 407.193 187.713 415.296 190.15 423.03C203.061 464.633 201.434 483.308 208.429 508.572C208.779 509.829 209.669 512.988 208.429 516.312C207.322 519.27 204.532 522.347 194.761 525.99C180.467 531.325 172.651 529.867 171.337 533.735C170.286 536.816 174.104 541.146 177.193 543.409C184.986 549.087 191.714 544.126 210.393 545.347C222.156 546.115 227.034 548.648 229.916 545.347C231.152 543.934 231.438 541.941 229.916 529.862C229.026 522.776 228.579 519.233 227.975 516.294C224.558 499.643 228.196 473.278 228.436 449.546C228.563 435.042 227.473 420.553 225.176 406.229C226.324 393.232 227.039 379.141 227.039 364.055C227.033 346.375 226.034 328.71 224.046 311.141C225.005 308.993 226.283 306.346 227.952 303.401C233.876 292.921 241.838 283.71 251.376 276.3C253.783 274.389 295.965 240.787 290.423 214.362ZM253.322 243.397C245.483 253.963 240.549 260.523 231.267 269.689C227.523 273.388 224.295 276.3 222.087 278.239V204.684C231.042 206.429 239.623 209.704 247.448 214.362C254.525 218.6 260.262 222.134 261.115 227.913C261.493 230.313 261.124 232.905 253.322 243.397Z" fill="#E6FF28"/>
<path d="M149.864 98.2263C147.446 100.719 145.789 103.838 145.083 107.224C144.378 110.61 144.652 114.126 145.875 117.364C147.098 120.602 149.22 123.431 151.996 125.525C154.772 127.618 158.088 128.891 161.562 129.195V140.812L134.232 148.552C118.218 124.998 124.434 93.5723 145.958 78.8741C172.167 60.9484 207.982 76.8717 216.235 94.3586C220.561 103.502 214.949 108.074 220.141 117.583C229.312 134.416 252.262 130.256 259.187 144.68C261.47 149.443 262.664 157.595 255.282 171.781C246.474 167.248 237.343 163.362 227.961 160.155C227.961 160.155 195.827 149.215 185.009 140.798C183.571 139.651 182.263 138.353 181.108 136.926C179.376 134.581 178.055 131.963 177.203 129.182C174.279 119.124 186.425 106.638 181.108 98.2126C178.005 93.3208 171.577 90.4406 165.491 90.4726C156.066 90.5046 150.523 97.376 149.864 98.2263Z" fill="#AAB51C"/>
</svg>
