<svg width="775" height="474" viewBox="0 0 775 474" fill="none" xmlns="http://www.w3.org/2000/svg">
<rect x="62" y="40" width="412" height="108" rx="11" fill="#FF5100"/>
<rect x="140" y="177" width="372" height="108" rx="11" fill="#EDEDED"/>
<circle cx="122.5" cy="12.5" r="12.5" fill="#5F00A2"/>
<ellipse cx="219" cy="12.5" rx="13" ry="12.5" fill="#5F00A2"/>
<circle cx="417.5" cy="12.5" r="12.5" fill="#5F00A2"/>
<circle cx="320.5" cy="12.5" r="12.5" fill="#5F00A2"/>
<rect x="221" y="40" width="194" height="108" fill="#EDEDED"/>
<rect x="120" y="14" width="6" height="271" rx="3" fill="#5F00A2"/>
<rect x="216" y="14" width="6" height="344" rx="3" fill="#5F00A2"/>
<rect x="415" y="14" width="6" height="344" rx="3" fill="#5F00A2"/>
<rect x="318" y="14" width="6" height="344" rx="3" fill="#5F00A2"/>
<path d="M503.383 263.308C557.117 227.255 626.126 228.736 666.128 251.438C672.435 255.093 678.44 259.251 684.086 263.874C717.87 291.793 727.792 328.841 730.665 340.187C739.554 375.296 733.544 404.872 729.543 419.326C723.106 418.885 714.475 418.303 704.289 417.63C482.691 403.04 444.244 408.117 432.111 384.279C415.584 351.809 461.102 291.68 503.383 263.308Z" fill="#5F00A2"/>
<path d="M527.234 276.028C537.952 271.777 556.73 272.348 560.905 261.33C563.122 255.474 558.251 251.5 560.905 246.633C566.074 237.164 591.692 237.023 597.944 247.198C601.311 252.693 597.259 258.306 601.872 263.591C604.633 266.757 607.613 266.491 615.341 269.244C615.341 269.244 620.425 271.059 631.615 277.158C639.281 281.336 649.815 292.245 664.164 335.947C672.201 360.43 676.219 372.691 674.827 377.778C664.075 417.167 540.624 450.553 503.102 396.998C477.091 359.876 497.221 287.927 527.234 276.028Z" fill="#E6FF28"/>
<path d="M398.44 404.064C387.716 405.29 377.278 408.349 367.574 413.108C358.595 417.506 343.712 424.821 344.004 431.197C344.728 446.974 439.064 471.428 535.932 456.07C590.367 447.438 606.283 432.475 654.904 435.72C664.231 436.341 690.916 438.716 726.176 434.589C733.437 433.741 774.82 428.897 774.999 421.022C775.055 418.648 771.357 416.093 756.665 411.328C724.486 400.887 698.677 398.976 698.677 398.976C664.113 396.421 662.682 390.983 624.14 385.624C538.547 373.714 492.72 393.176 398.44 404.064Z" fill="#9385A0"/>
<path d="M581.107 262.461C590.519 260.346 598.044 250.454 599.066 238.154C601.726 243.298 604.345 248.197 606.922 252.851C610.918 246.367 615.901 240.641 621.12 235.073C610.895 196.543 585.67 174.882 566.516 177.668C555.455 179.279 542.526 189.539 539.579 201.975C537.335 211.382 541.167 220.438 547.436 235.327C550.102 241.658 551.533 244.982 554.731 248.894C557.537 252.319 568.2 265.361 581.107 262.461Z" fill="#E6FF28"/>
<path d="M673.704 372.69C667.733 362.606 658.502 364.635 622.075 352.696C614.991 350.326 607.636 348.876 600.188 348.383C595.394 348.057 590.578 348.328 585.85 349.191C580.934 350.079 576.057 351.017 571.006 354.601C568.758 356.205 566.744 358.12 565.024 360.288C559.973 366.585 557.005 375.443 559.221 377.212C560.394 378.151 562.987 377.077 565.394 376.082C566.847 375.465 568.221 374.673 569.485 373.725C570.627 372.861 571.718 371.93 572.752 370.938C575.507 368.462 576.888 367.218 577.179 367.037C579.862 365.37 583.729 364.737 584.475 365.907C585.541 367.603 579.705 372.074 580.547 373.256C581.388 374.437 588.774 371.396 595.138 366.472C598.308 364.019 597.899 363.691 599.066 363.08C608.208 358.309 622.726 384.414 650.325 391.836C654.253 392.899 670.203 397.178 675.388 390.214C678.71 385.754 676.757 377.846 673.704 372.69Z" fill="#AAB51C"/>
<path d="M633.86 265.852C634.253 272.246 636.279 273.546 634.982 276.593C633.142 280.923 628.467 279.69 625.442 285.072C625.1 285.682 623.063 289.312 623.758 293.551C624.191 296.197 625.29 296.632 625.442 299.204C625.476 299.809 625.683 304.388 622.636 306.553C619.83 308.554 616.02 307.197 614.218 306.553C611.581 305.609 611.07 304.58 608.045 302.596C601.838 298.526 600.239 300.414 597.382 297.508C594.526 294.603 596.462 292.884 592.332 285.637C590.867 283.065 590.008 282.217 589.526 279.984C588.88 277.005 589.924 276.321 590.087 272.07C590.255 267.593 589.262 263.93 588.403 260.765C587.933 259.04 587.371 257.342 586.72 255.677C589.033 253.457 591.102 250.994 592.893 248.329C595.312 244.722 602.472 234.044 600.188 222.891C598.954 216.876 596.26 216.888 595.699 210.455C595.211 204.661 597.22 202.326 595.138 198.584C594.049 196.628 593.044 196.447 589.526 191.8C587.562 189.206 587.427 188.669 586.72 187.844C581.944 182.264 569.603 185.125 567.639 185.582C564.889 186.221 554.479 188.612 547.998 198.019C538.07 212.428 545.601 230.652 547.998 236.458C551.052 243.771 555.648 250.329 561.466 255.677C561.702 256.986 561.702 258.326 561.466 259.634C560.98 261.997 559.808 264.161 558.099 265.852C553.239 270.979 545.13 270.838 531.723 274.897C528.777 275.79 526.42 276.627 524.989 277.158C516.195 274.835 512.794 270.94 511.268 268.113C508.939 263.812 510.841 261.494 509.837 249.459C508.972 239.064 507.592 237.848 508.714 233.066C509.96 227.702 511.896 228.289 516.01 220.065C520.825 210.455 519.276 207.419 524.428 199.714C527.413 195.249 527.918 196.283 530.421 192.151C535.09 184.412 532.789 180.11 536.774 174.277C539.782 169.873 543.957 167.957 547.436 166.363C549.906 165.232 559.053 161.032 568.2 164.102C571.798 165.311 573.565 167.03 578.302 167.493C581.304 167.787 582.937 167.329 586.159 166.928C594.285 165.922 599.594 165.232 603.556 167.493C608.763 170.427 606.182 175.266 612.535 182.756C617.731 188.878 621.272 187.781 624.881 192.931C629.05 198.878 624.247 201.896 627.687 212.151C629.836 218.55 632.3 219.816 632.738 225.717C633.091 230.477 631.559 230.652 631.615 235.892C631.705 243.806 635.224 244.649 635.543 252.286C635.807 258.611 633.428 258.758 633.86 265.852Z" fill="#AAB51C"/>
<path d="M618.427 392.758C617.804 389.898 606.967 391.062 574.093 391.628C566.635 391.752 560.108 391.82 554.406 391.871C555.411 398.744 556.135 404.872 556.696 409.717C556.982 412.181 557.504 417.337 554.451 421.022C553.871 421.715 553.199 422.324 552.453 422.831C559.014 420.259 567.768 416.777 578.021 412.543C617.445 396.263 618.657 393.827 618.427 392.758Z" fill="#BA89E5"/>
<path d="M517.412 396.15C518.765 392.057 527.205 392.125 554.406 391.871C551.6 372.685 546.549 347.462 536.493 326.055C535.246 323.181 533.319 320.658 530.881 318.706C524.04 313.432 514.921 314.89 511.8 315.314C488.382 318.508 422.975 315.597 400.123 313.619C396.032 313.262 389.904 312.646 385.532 316.445C379.006 322.098 381.307 333.347 386.094 359.406C394.68 406.138 396.044 417.693 406.858 423.849C411.65 426.579 415.713 426.771 423.132 427.24C423.132 427.24 503.254 432.328 546.594 424.979C548.677 424.693 550.675 423.961 552.453 422.831L549.12 424.131C519.826 406.828 516.279 399.575 517.412 396.15Z" fill="#BA89E5"/>
<path d="M554.451 421.022C557.504 417.336 556.982 412.181 556.696 409.716C556.134 404.849 555.411 398.744 554.406 391.87C527.205 392.125 518.765 392.057 517.412 396.15C516.29 399.575 519.825 406.828 549.12 424.131L552.453 422.831C553.198 422.323 553.871 421.715 554.451 421.022Z" fill="#BA89E5"/>
<path d="M477.848 359.124C476.872 358.264 471.114 366.987 464.38 366.472C457.55 365.952 453.016 356.218 452.034 356.862C451.051 357.507 457.443 366.009 454.839 369.864C452.325 373.589 442.639 371.158 442.493 372.125C442.347 373.092 451.169 373.691 452.034 377.213C453.049 381.345 442.594 387.246 443.054 387.953C443.419 388.518 448.818 383.255 455.401 383.431C464.346 383.674 470.463 393.809 472.236 392.475C473.651 391.412 469.015 385.494 471.114 382.3C474.083 377.778 488.242 382.255 488.511 381.17C488.78 380.084 475.16 378.27 473.359 371.56C471.905 366.15 478.769 359.938 477.848 359.124Z" fill="#5F00A2"/>
<path d="M267.066 134.98C277.41 133.541 276.852 114.038 295.61 71.8404C308.375 43.1265 319.889 26.8384 317.74 25.3673C315.707 23.9731 302.666 36.7356 292.403 52.2897C274.555 79.3242 275.084 99.6025 265.784 100.365C256.803 101.102 244.356 83.1703 239.164 75.6865C235.732 70.7411 233.763 66.9271 232.429 67.3534C229.924 68.1546 231.566 83.2824 235.636 95.5577C240.877 111.359 254.86 136.678 267.066 134.98Z" fill="#FF5100"/>
<path d="M136.49 143.893C123.982 158.607 136.862 186.632 149.918 191.161C152.669 192.079 155.608 192.288 158.462 191.77C164.347 190.449 167.824 185.607 171.291 180.793C173.52 177.687 175.03 175.533 175.563 172.254C176.13 168.777 174.995 167.767 174.953 163.408C174.899 157.245 177.15 155.97 177.089 151.822C176.98 144.229 169.293 138.71 168.85 138.403C159.514 131.896 143.885 135.185 136.49 143.893Z" fill="#E6FF28"/>
<path d="M141.566 155.072C158.099 139.768 159.26 136.483 172.615 125.845C178.799 120.916 177.698 122.297 192.5 111.102C216.332 93.0771 218.766 89.8111 220.402 85.4619C222.968 78.6287 221.855 73.6962 227.137 64.9496C230.296 59.7158 234.389 55.3697 235.476 55.9755C236.563 56.5812 233.786 61.4241 233.231 69.7572C232.939 74.1545 232.461 81.2953 235.797 83.2183C240.056 85.6734 247.538 77.8916 248.946 79.3723C250.158 80.6543 246.804 88.715 239.966 92.1925C235.476 94.4841 231.816 93.577 225.854 97.3205C224.372 98.2627 222.977 99.3353 221.685 100.526C203.423 116.814 188.01 139.948 188.01 139.948C183.866 146.169 183.359 147.37 181.884 149.723C180.793 151.483 179.908 152.732 179.671 153.079C176.887 157.111 170.242 167.822 167.323 172.149C164.286 176.636 159.482 182.783 151.929 189.456C157.511 190.336 163.202 190.282 168.766 189.296C179.578 187.341 182.763 183.126 200.838 174.232C213.635 167.934 214.629 169.162 221.685 164.296C228.045 159.909 226.29 159.562 238.683 149.553C245.129 144.345 247.936 142.556 250.229 138.015C251.874 134.755 251.884 132.794 254.398 129.041C257.394 124.554 261.672 120.945 262.737 121.669C264.11 122.602 258.869 129.868 260.813 131.925C264.02 135.326 283.144 120.538 284.546 122.31C285.546 123.576 277.211 132.945 266.181 140.688C261.05 144.297 261.242 143.396 257.891 145.903C245.527 155.172 245.806 165.2 235.476 175.844C230.514 180.972 227.179 182.011 219.44 186.741C208.459 193.453 184.565 208.055 171.698 231.878C164.167 245.813 161.813 260.297 158.824 278.726C157.583 286.383 156.935 292.828 156.579 297.315C172.763 325.539 183.42 347.474 186.085 356.288C187.974 362.535 187.195 366.659 186.727 368.467C185.495 373.214 182.666 376.278 181.595 377.441C138.981 423.693 134.418 433.85 135.017 441.76C136.204 457.51 157.894 466.246 154.655 471.669C152.827 474.73 144.748 473.913 139.581 471.99C133.94 469.891 133.946 467.275 126.111 462.054C117.695 456.445 113.924 456.949 112.641 453.401C110.983 448.811 115.896 444.106 120.338 437.696C129.52 424.453 126.752 418.312 134.129 400.197C137.41 392.156 143.083 380.8 153.372 368.147C143.295 361.974 138.115 355.259 135.261 350.327C130.511 342.128 129.642 334.497 121.621 324.237C119.66 321.732 117.516 319.375 115.206 317.186C100.373 343.33 94.703 354.724 92.4355 360.134C90.6068 364.555 88.4632 368.839 86.0211 372.954C86.0211 372.954 83.7761 376.746 81.2103 380.326C73.3239 391.332 56.143 403.969 42.0827 417.504C30.0975 429.042 24.1032 434.956 24.1225 441.863C24.161 455.064 40.7068 463.775 38.2341 467.503C36.5856 469.987 27.9102 468.102 21.8774 464.298C17.4996 461.538 17.7883 459.833 11.6145 454.362C4.08078 447.686 0.629854 447.551 0.0685971 444.427C-0.787721 439.664 6.52466 436.055 13.5388 429.683C26.1751 418.206 24.3919 409.979 36.3098 391.864C40.71 385.175 47.9839 375.611 59.7222 365.583C59.4753 344.253 62.3072 327.606 64.8537 316.545C70.5016 292.017 76.1366 288.892 87.9454 248.598C90.1905 240.932 93.0513 230.599 98.2084 215.266C103.821 198.581 106.711 190.113 110.716 183.857C117.108 173.876 119.741 175.28 141.566 155.072Z" fill="#E6FF28"/>
<path d="M174.058 150.364C173.912 151.241 173.457 152.036 172.775 152.608C171.127 153.851 169.116 152.463 167.965 153.569C166.813 154.675 168.244 156.531 167.002 158.056C166.04 159.232 164.892 158.511 163.474 159.659C161.951 160.893 162.349 162.485 161.229 165.107C160.537 166.729 159.591 167.793 157.702 169.915C155.04 172.905 153.263 174.902 150.325 176.004C147.708 176.988 146.823 176.264 144.873 177.607C142.769 179.052 143.176 180.325 141.345 181.453C139.1 182.841 137.766 181.366 133.968 182.094C129.728 182.908 129.19 185.168 126.913 184.658C124.065 184.017 122.541 179.956 121.781 177.927C120.142 173.562 121.332 171.838 119.536 170.235C117.31 168.248 113.923 169.508 113.122 167.671C112.612 166.508 113.869 165.748 113.442 164.466C112.641 162.04 107.609 162.918 106.707 160.62C106.092 159.05 108.253 158.162 108.632 154.531C108.901 151.938 107.92 151.236 108.632 149.723C109.594 147.694 111.688 148.223 113.442 146.518C116.515 143.531 112.981 139.063 115.687 135.3C116.371 134.339 119.456 133.172 125.63 130.813C130.12 129.102 131.585 128.711 133.006 126.967C134.841 124.724 134.225 123.076 135.893 122.16C137.936 121.035 139.632 123.067 143.911 123.121C147.156 123.163 147.483 122.009 150.325 121.839C154.623 121.58 158.956 123.91 161.55 126.647C166.04 131.365 163.657 135.528 168.285 138.826C170.376 140.316 171.97 140.259 174.379 142.672C175.097 143.39 176.736 145.069 177.586 147.479C179.443 152.755 176.207 157.861 175.662 158.697C175.502 155.86 174.962 153.058 174.058 150.364Z" fill="#AAB51C"/>
</svg>
