<svg width="567" height="559" viewBox="0 0 567 559" fill="none" xmlns="http://www.w3.org/2000/svg">
<path d="M203.43 7.04199C196.805 113.124 192.208 189.717 191.974 193.648C191.667 198.764 194.412 203.355 194.412 203.355C195.515 206.665 196.817 209.907 198.311 213.061C206.403 229.761 273.866 231.018 273.866 231.018C298.668 231.504 334.539 235.998 379.156 255.284C463.621 274.586 525.391 288.451 532.215 289.742C533.917 290.063 537.231 290.553 540.015 288.772C542.228 287.354 543.329 284.991 543.914 282.948C546.517 264.7 551.05 232.513 556.588 190.737C562.925 142.724 566.132 116.05 557.075 82.5096C554.818 74.1494 551.967 65.9592 548.545 58.0008C513.855 54.7654 478.433 50.8828 442.281 46.3531C358.239 35.7343 278.531 22.3296 203.43 7.04199Z" fill="#CFFFFF"/>
<path d="M566.63 83.8587C567.083 78.724 568.326 66.5667 560.975 57.2727C552.43 46.4695 537.022 45.5376 531.728 45.1397C490.919 42.0724 256.001 10.9487 221.709 1.94598C217.878 0.94136 205.536 -2.58208 199.286 3.40194C195.09 7.43983 195.465 14.0354 195.562 16.3601C196.718 45.1397 185.331 196.512 184.175 207.237C184.015 208.747 183.391 213.61 186.125 217.914C188.86 222.219 193.578 223.772 194.899 224.224C286.672 245.723 508.638 310.975 535.628 303.331C546.6 300.22 551.226 293.139 551.226 293.139C552.656 290.919 553.649 288.449 554.151 285.86C561.536 250.514 563.076 123.806 566.63 83.8587ZM540.99 282.462C540.951 283.02 540.858 284.918 539.527 286.345C536.963 289.097 531.728 288.068 530.266 287.801C419.746 268.102 312.487 233.086 202.699 209.664C202.031 209.523 199.223 209.014 197.337 206.752C194.412 203.272 195.616 197.924 195.874 196.56C198.638 182.059 205.199 49.7405 205.136 28.6387C205.136 26.0859 205.004 19.0342 209.523 15.535C214.636 11.5748 222.879 14.3605 225.121 15.0497C253.735 23.8486 480.37 59.4712 521.492 58.7287C525.308 58.6608 538.64 58.0735 545.864 66.4939C550.427 71.8081 550.646 78.4813 550.739 81.0535C551.714 107.305 552.167 120.433 540.99 282.462Z" fill="#A8A7A7"/>
<path d="M275.524 124.043C274.661 110.454 274.227 103.66 278.103 96.2684C284.508 84.0771 299.502 76.3702 313.721 77.0399C335.632 78.1028 348.642 98.8018 352.78 112.507C354.023 116.633 358.327 130.891 351.059 144.126C346.185 153.003 338.352 157.332 331.318 161.219C323.66 165.451 316.879 169.198 307.715 168.499C293.384 167.378 284.654 156.249 283.25 154.395C276.923 146.038 276.377 137.458 275.524 124.043Z" fill="#B23200"/>
<path d="M357.498 181.302C357.06 181.093 352.999 179.302 348.929 177.419C344.405 175.318 340.506 173.415 334.754 170.625C331.288 168.951 327.822 167.228 325.741 163.345C323.46 159.132 323.162 152.969 326.17 149.246C327.817 147.198 328.9 147.829 331.746 145.398C335.519 142.18 337.05 138.118 338.186 135.143C340.676 128.577 339.341 126.072 342.475 122.326C344.323 120.122 344.99 120.739 346.77 118.477C349.153 115.444 351.376 109.964 349.343 106.087C347.686 102.918 344.683 103.684 342.475 100.103C340.784 97.3558 341.432 95.0845 341.188 91.9881C340.647 84.9364 335.797 78.3117 330.898 74.9048C322.982 69.4061 313.618 71.3473 310.718 71.9103C302.343 73.6235 290.81 79.7434 288.831 88.5763C288.212 91.3329 288.251 95.5649 284.966 98.4041C283.152 99.9717 282.226 99.4718 280.676 100.971C276.879 104.631 278.975 112.003 279.818 115.07C280.891 118.953 282.967 123.126 284.751 122.976C285.585 122.903 286.033 121.923 286.901 122.122C287.768 122.321 288.207 123.529 288.617 124.684C289.026 125.852 289.243 127.078 289.26 128.314C289.855 132.381 292.341 140.525 297.844 145.408C300.335 147.621 301.607 147.533 302.134 149.256C303.294 153.032 298.785 158.715 293.55 161.219C287.588 164.073 284.454 160.977 275.953 161.646C264.327 162.564 256.196 169.3 254.066 171.047C247.568 176.386 244.619 182.248 241.748 187.951C237.28 196.908 234.613 206.648 233.895 216.624L367.944 250.917C368.69 198.264 363.099 183.942 357.498 181.302Z" fill="#FF5100"/>
<path d="M314.149 82.1699C313.979 82.2233 314.72 83.8054 314.447 85.8923C314.274 86.9957 313.881 88.0535 313.291 89.0032C311.688 91.4298 304.278 91.9976 304.278 91.9976C300.554 92.2549 295.226 94.3563 288.617 102.893C288.485 102.607 287.408 100.326 285.394 100.112C284.205 99.9909 283.289 100.704 282.821 100.971C279.516 102.82 278.814 108.664 279.409 112.934C280.047 117.686 281.88 117.632 282.821 122.335C284.083 128.499 281.198 129.896 281.963 135.153C282.938 141.763 287.812 141.947 291.405 150.11C293.623 155.177 295.558 163.825 292.263 166.344C288.519 169.212 278.531 163.791 272.95 156.943C269.655 152.901 268.348 148.911 267.373 145.834C266.671 143.631 264.532 136.317 265.653 123.616C266.457 114.541 267.529 102.34 275.953 90.2747C279.295 85.5535 283.35 81.3742 287.973 77.8845C292.463 74.4872 297.303 70.823 304.278 69.765C304.888 69.6728 307.691 69.5612 313.291 69.3379C320.652 69.0467 324.337 68.9011 324.883 68.9109C335.037 69.1244 343.611 80.9517 346.331 84.7227C353.56 94.696 354.871 104.335 357.489 123.607C360.413 144.961 357.659 151.823 354.915 156.08C352.644 159.608 349.552 162.54 345.902 164.626C334.69 170.935 319.916 167.703 319.292 164.199C318.931 162.17 323.577 161.442 330.879 154.371C336.392 149.033 339.341 146.179 340.32 141.554C341.329 136.793 339.789 132.333 340.749 125.315C340.935 123.971 341.3 121.864 342.899 120.19C344.064 118.962 344.683 119.219 345.902 118.05C348.11 115.919 348.339 112.857 348.476 111.216C348.661 108.838 348.827 106.363 347.189 105.232C345.346 103.951 342.553 105.295 342.251 105.446C340.241 101.771 337.546 98.5115 334.31 95.8414C330.606 92.7887 328.173 90.7746 324.439 90.2845C321.076 89.8477 317.985 90.8232 316.713 89.0032C316.294 88.4111 316.528 88.1684 315.855 86.0136C315.183 83.8588 314.325 82.1068 314.149 82.1699Z" fill="#FF976E"/>
<path d="M404.503 65.038C402.749 66.2349 401.392 67.9243 400.604 69.8912C392.112 89.1634 390.367 230.048 390.367 230.048C390.367 231.712 390.187 237.206 393.78 241.21C396.792 244.568 401.023 245.296 402.554 245.578C411.328 247.204 506.157 266.738 519.542 271.3C520.517 271.635 523.827 272.829 526.366 271.3C529.72 269.281 529.739 263.729 529.778 262.079C530.017 251.523 537.529 110.503 540.502 91.7307C540.834 89.639 542.218 82.0631 538.065 78.1417C535.803 76.0014 532.791 75.7976 531.728 75.7151C527.253 75.3705 429.212 67.3093 414.74 64.0674C413.341 63.7519 408.403 62.524 404.503 65.038Z" fill="#BA89E5"/>
<path d="M304.181 134.594C305.01 133.328 307.973 135.196 316.284 135.521C322.714 135.769 324.946 134.808 325.595 135.982C326.769 138.123 321.695 145.577 315.358 145.713C308.212 145.869 302.811 136.677 304.181 134.594Z" fill="#680D0D"/>
<path d="M218.551 34.1955C220.553 33.1861 222.798 32.754 225.034 32.9482C225.843 33.0016 227.076 33.5306 227.827 33.4626C228.699 33.3898 227.651 31.6233 227.871 31.6475C227.644 31.7827 227.426 31.9318 227.217 32.094C223.357 33.4966 219.906 37.5442 218.76 41.3443C217.512 45.4161 218.078 50.6333 222.538 52.3659C225.95 53.6812 230.025 52.958 233.315 51.6913C236.728 50.381 240.213 48.2213 241.734 44.7755C243.357 41.0967 241.938 34.972 237.683 33.6131C232.921 32.0989 229.426 38.1508 228.709 41.9509C227.91 46.2072 229.747 50.4149 232.823 53.3511C239.019 59.2721 250.25 59.175 256.533 53.3511C257.875 52.0946 258.904 50.5423 259.535 48.8188C260.167 47.0953 260.384 45.2484 260.169 43.4263C259.487 38.7672 255.036 36.7288 250.688 37.3646C246.34 38.0004 242.733 41.189 242.938 45.8238C243.142 50.4586 246.462 55.0886 250.639 57.0639C255.144 59.1944 260.671 58.4033 264.922 56.0301C266.849 54.9222 268.531 53.4363 269.865 51.6622C270.568 50.7536 271.207 49.7968 271.775 48.7988C272.092 48.2504 272.94 47.2361 272.989 46.6246L273.15 46.3771L269.767 45.7947C269.733 45.8286 269.796 46.28 269.767 46.5663C269.767 47.4011 269.674 48.2407 269.596 49.0706C269.363 50.9844 269.226 52.9087 269.187 54.8362C269.231 58.6654 271.478 62.4461 275.772 60.0437C277.469 59.0974 278.921 57.5929 280.199 56.1612C281.021 55.2334 281.778 54.2507 282.465 53.2201C282.865 52.6232 284.196 50.9439 284.22 50.1965L280.725 49.4103C280.779 49.653 280.788 49.6918 280.725 49.5219C280.69 49.9069 280.702 50.2947 280.759 50.677C280.759 51.8466 280.735 53.0211 280.715 54.1907C280.662 57.3696 280.662 60.5436 280.749 63.7176C280.837 66.8916 285.707 66.848 285.624 63.7176C285.512 59.5244 285.624 55.341 285.624 51.1478C285.624 48.9978 285.307 45.2511 282.09 46.0131C280.959 46.2848 280.34 47.1536 279.774 48.1C278.872 49.7826 277.809 51.3753 276.601 52.8561C275.797 53.7734 274.315 54.6324 273.676 55.6127C273.886 55.2827 273.067 56.0495 273.057 55.9767C272.536 52.5212 273.954 56.5688 274.13 56.4621C274.169 56.4621 274.032 55.5205 274.018 55.3021C273.867 52.6183 276.806 41.5578 271.225 42.3004C268.695 42.6401 267.72 46.2218 266.482 48.0174C265.393 49.6317 263.936 50.9666 262.229 51.9129C260.523 52.8593 258.616 53.3904 256.664 53.4628C254.584 53.5181 252.552 52.8354 250.93 51.5366C249.309 50.2377 248.203 48.4073 247.812 46.3722C247.247 43.0623 251.4 40.8589 254.217 42.4896C256.616 43.8874 254.885 47.9446 253.462 49.4783C251.127 52.0068 247.203 52.9289 243.869 52.8755C242.277 52.8843 240.702 52.5555 239.248 51.9112C237.794 51.2669 236.495 50.3217 235.436 49.1385C232.935 46.2266 232.467 41.9461 235.295 39.0099C236.035 38.2333 235.914 38.1945 236.538 38.6459C237.161 39.0972 237.449 40.5192 237.483 41.2618C237.547 42.6789 236.801 43.7515 235.787 44.659C233.608 46.6585 230.391 47.867 227.461 48.1194C226.364 48.2164 224.6 48.3475 223.688 47.5612C222.28 46.3431 223.04 43.402 223.601 41.9703C225.063 38.2528 228.685 37.6024 231.244 35.0593C234.027 32.2833 231.244 29.2986 228.256 28.5415C224.135 27.5271 219.785 28.0448 216.021 29.9974C213.228 31.4243 215.689 35.6126 218.458 34.1906L218.551 34.1955Z" fill="#5F00A2"/>
<path d="M406.356 136.958C407.545 135.473 408.793 133.862 410.3 132.682C410.616 132.435 411.357 131.755 411.806 131.789C411.46 131.76 411.64 131.658 411.835 132.129C412.708 134.182 412.566 136.638 413.083 138.783C414.146 143.209 418.045 144.801 421.555 141.695C424.967 138.676 426.887 134.303 430.163 131.144C430.674 130.616 431.277 130.186 431.942 129.872C432.318 129.707 432.206 129.688 432.566 130.008C432.927 130.328 433.712 131.76 434.097 132.823C437.022 140.875 436.534 149.838 439.649 157.822C440.726 160.574 442.574 163.617 445.942 163.612C448.716 163.612 451.016 161.462 452.698 159.487C458.148 153.095 461.74 145.073 465.538 137.647C467.536 133.765 469.515 129.833 471.718 126.043C473.147 123.582 474.58 121.001 476.739 119.142C476.739 119.142 477.075 118.914 477.066 118.962C476.578 118.923 477.056 119.011 477.066 118.962L476.578 118.88C476.188 119.2 476.768 118.161 476.53 118.909C476.53 118.909 476.958 119.904 477.051 120.19C477.348 121.185 477.568 122.2 477.709 123.228C478.353 127.281 478.197 131.532 479.245 135.512C480.073 138.686 483.217 140.85 485.733 137.783C486.863 136.41 487.541 134.628 488.301 133.046C489.944 129.649 491.606 126.223 493.395 122.884C494.37 121.078 495.525 118.875 496.686 117.448C497.202 116.812 496.978 117.312 496.651 117.327C495.638 117.375 495.506 116.642 495.833 117.691C497.071 121.661 497.407 127.164 500.917 129.93C507.044 134.755 514.868 125.194 518.197 121.195C520.634 118.283 522.896 115.245 525.094 112.158C526.917 109.605 522.691 107.179 520.888 109.707C517.285 114.764 513.493 120.049 508.701 124.068C507.699 124.894 506.597 125.592 505.421 126.145C505.187 126.225 504.947 126.288 504.704 126.334C505.094 126.237 504.88 126.31 504.616 126.334C504.485 126.334 504.358 126.49 504.1 126.237C501.224 123.398 501.857 118.423 499.927 114.992C498.241 111.988 495.023 111.91 492.923 114.4C489.096 118.928 486.766 125.048 484.226 130.333C483.739 131.343 483.251 132.357 482.764 133.352C482.608 133.65 482.446 133.946 482.277 134.24C482.167 134.393 482.073 134.555 481.994 134.725C481.857 135.133 481.994 134.725 481.994 134.755C482.304 134.628 482.634 134.559 482.969 134.551C483.368 134.551 483.817 134.949 484.124 134.92C484.787 134.861 483.968 135.269 484.178 134.92C484.178 134.949 483.866 133.692 483.778 133.231C482.988 129.008 483.066 124.66 482.179 120.442C481.56 117.531 480.015 113.648 476.33 114.177C473.683 114.551 471.816 117.089 470.373 119.093C468.184 122.127 466.415 125.466 464.67 128.761C460.497 136.642 456.783 144.844 451.923 152.343C450.514 154.512 448.56 157.511 446.507 158.54C446.415 158.584 445.835 158.856 446.044 158.725C445.927 158.797 445.927 158.861 445.688 158.628C444.916 157.699 444.338 156.627 443.987 155.473C441.287 147.485 441.638 138.691 438.557 130.819C437.377 127.81 435.301 124.621 431.616 124.995C427.326 125.432 424.392 130.275 422.106 133.391C420.872 135.075 419.668 136.822 418.123 138.244C417.002 139.258 418.24 138.288 418.152 138.729C418.255 138.22 417.665 136.895 417.567 136.303C416.914 132.503 416.281 125.563 410.524 127.082C407.321 127.926 404.874 131.052 402.924 133.498C400.975 135.944 404.426 139.375 406.371 136.929L406.356 136.958Z" fill="#E6FF28"/>
<path d="M410.84 78.6273C409.919 80.9374 410.28 82.175 410.031 86.3924C409.87 89.1442 409.636 90.1052 410.372 90.9982C411.24 92.0416 412.722 92.1241 413.083 92.1532C415.427 92.3522 521.531 103.092 525.684 101.675C526.259 101.492 526.768 101.144 527.146 100.675C527.433 100.243 527.592 99.738 527.604 99.2195C527.921 93.6965 527.912 92.2988 527.882 89.5131C527.944 88.8243 527.757 88.1361 527.356 87.5718C526.591 86.6594 525.216 86.6642 524.919 86.6545C521.17 86.538 419.337 76.8704 415.242 76.0987C414.342 75.8845 413.395 75.991 412.566 76.3997C411.737 76.851 411.269 77.5887 410.84 78.6273Z" fill="#E6FF28"/>
<path d="M409.865 170.838C404.737 174.425 405.522 181.943 406.941 185.883C407.253 186.752 409.744 193.673 415.715 194.619C421.808 195.59 428.13 189.795 428.876 183.457C429.5 178.157 426.005 174.328 425.464 173.75C421.803 169.868 414.769 167.407 409.865 170.838Z" fill="#5F00A2"/>
<path d="M405.478 209.664C403.041 213.794 402.593 219.856 405.966 224.709C407.417 226.783 409.41 228.423 411.73 229.449C414.05 230.476 416.608 230.851 419.127 230.533C426.799 229.46 431.362 221.613 431.313 215.003C431.313 214.061 431.264 208.232 426.926 204.811C420.926 200.084 409.782 202.384 405.478 209.664Z" fill="#5F00A2"/>
<path d="M445.937 178.603C460.123 179.396 474.238 181.15 488.184 183.854C491.25 184.451 492.571 179.773 489.481 179.176C475.107 176.384 460.558 174.572 445.937 173.75C442.802 173.575 442.812 178.428 445.937 178.603Z" fill="#5F00A2"/>
<path d="M439.054 218.754C453.24 219.547 467.355 221.301 481.301 224.005C484.362 224.602 485.688 219.924 482.598 219.327C468.224 216.535 453.675 214.723 439.054 213.901C435.919 213.726 435.929 218.58 439.054 218.754Z" fill="#5F00A2"/>
<path d="M439.843 187.218C464.416 187.48 488.589 192.324 512.8 195.954C513.566 196.065 513.897 194.896 513.122 194.779C488.788 191.159 464.523 186.291 439.843 186.043C439.682 186.043 439.527 186.107 439.413 186.221C439.298 186.335 439.234 186.489 439.234 186.65C439.234 186.811 439.298 186.965 439.413 187.079C439.527 187.193 439.682 187.257 439.843 187.257V187.218Z" fill="#5F00A2"/>
<path d="M438.381 196.439C450.568 196.221 462.642 196.924 474.609 199.268C487.492 201.792 500.332 204.447 513.288 206.611C514.053 206.737 514.385 205.568 513.61 205.437C500.488 203.253 487.487 200.535 474.433 198.002C462.53 195.687 450.504 195.007 438.362 195.226C438.2 195.226 438.045 195.29 437.931 195.403C437.817 195.517 437.753 195.671 437.753 195.832C437.753 195.993 437.817 196.147 437.931 196.261C438.045 196.375 438.2 196.439 438.362 196.439H438.381Z" fill="#5F00A2"/>
<path d="M432.39 227.922C447.848 226.505 463.178 229.708 478.455 231.644C479.23 231.741 479.22 230.528 478.455 230.431C463.183 228.49 447.848 225.291 432.39 226.708C431.62 226.781 431.611 227.995 432.39 227.922Z" fill="#5F00A2"/>
<path d="M431.274 236.575C443.46 236.357 455.534 237.06 467.501 239.404C480.385 241.933 493.224 244.588 506.181 246.747C506.946 246.873 507.277 245.704 506.502 245.578C493.38 243.389 480.38 240.676 467.326 238.138C455.422 235.823 443.397 235.143 431.254 235.362C431.093 235.362 430.938 235.426 430.824 235.539C430.709 235.653 430.645 235.807 430.645 235.968C430.645 236.129 430.709 236.283 430.824 236.397C430.938 236.511 431.093 236.575 431.254 236.575H431.274Z" fill="#5F00A2"/>
<path d="M483.885 237.686C482.462 239.113 482.364 241.059 482.257 242.539C481.726 249.771 480.448 256.939 480.083 264.18C480.034 265.073 479.937 267.024 481.17 268.509C481.886 269.314 482.834 269.88 483.885 270.13C483.885 270.13 507.716 276.803 528.984 276.624C529.652 276.624 531.192 276.585 532.245 275.541C532.917 274.797 533.303 273.839 533.332 272.838C533.819 267.606 537.271 256.861 536.593 245.786C536.58 244.617 536.2 243.482 535.506 242.539C533.932 240.564 531.075 240.438 530.071 240.375C516.617 239.555 503.329 236.686 489.861 236.046C488.584 236.002 485.703 235.871 483.885 237.686Z" fill="#A8A7A7" stroke="#5F00A2" stroke-width="3" stroke-miterlimit="10"/>
<path d="M503.456 247.034C498.357 251.596 499.995 260.031 502.969 262.079C503.554 262.481 504.163 262.617 504.29 263.166C504.777 265.282 496.773 267.742 497.119 269.844C497.27 270.771 498.981 271.198 505.406 272.27C516.076 274.047 517.314 273.857 517.592 273.241C518.416 271.397 510.212 266.772 511.255 264.505C511.548 263.869 512.367 263.869 513.205 263.535C517.636 261.763 521.424 251.11 516.617 246.548C513.517 243.607 507.283 243.636 503.456 247.034Z" fill="#E6FF28"/>
<path d="M96.1854 482.153C95.5657 488.691 94.7875 498.037 94.3216 509.588C99.4471 506.946 104.004 504.793 107.834 503.078C110.914 501.683 113.272 500.715 116.222 501.218C118.416 501.594 122.041 502.98 122.279 504.938C122.903 510.174 98.7808 515.549 99.4471 519.818C99.9923 523.356 116.986 522.417 119.949 529.583C120.748 531.857 121.372 534.188 121.813 536.558C122.363 539.394 122.638 540.808 122.279 541.208C119.437 544.374 95.8452 531.801 94.3216 530.978C93.4456 530.513 91.1297 529.248 88.2641 529.583C85.3985 529.917 83.4182 531.703 82.6726 532.373C73.3861 540.701 61.7045 551.186 57.5109 549.113C56.6629 548.694 56.0152 546.82 54.7152 543.068C53.4151 539.315 52.6836 537.213 52.8513 535.628C53.6481 528.029 75.632 526.421 75.6833 522.143C75.7345 517.665 51.6538 514.833 51.9194 510.983C52.0126 509.62 55.1532 508.551 60.3067 506.798C63.8433 505.598 65.6605 504.979 67.762 504.938C75.2453 504.798 79.0335 512.159 81.2747 511.448C83.9866 510.592 83.721 498.153 75.2173 457.973C79.8769 457.922 90.8036 458.387 95.2535 465.413C97.6671 469.216 97.0381 473.16 96.1854 482.153Z" fill="#A8A7A7"/>
<path d="M192.857 373.678C244.756 371.846 256.815 409.585 301.84 405.763C331.829 403.228 365.728 383.173 364.973 365.461C363.705 335.776 265.155 314.311 197.228 311.159C174.494 310.098 99.0975 306.578 94.5684 331.242C91.9683 345.564 113.51 367.219 134.012 375.789C156.024 384.949 166.326 374.612 192.857 373.678Z" fill="#9385A0"/>
<path d="M149.854 339.054C150.786 335.376 181.637 334.725 194.12 329.754C195.746 329.108 198.449 327.834 200.178 325.104C201.958 322.314 201.743 319.292 201.576 315.804C201.361 311.382 201.11 300.924 201.11 300.924C198.267 276.372 198.072 272.536 200.644 270.234C203.216 267.932 207.167 268.477 209.963 268.839C284.446 278.548 286.487 279.032 290.573 279.999C291.449 280.208 293.835 280.776 295.233 282.789C296.631 284.803 296.258 287.095 296.165 287.904C295.126 297.097 297.894 329.656 298.961 335.799C299.328 337.512 299.165 339.295 298.495 340.914C297.871 342.229 296.905 343.352 295.699 344.169C287.116 350.349 275.197 369.604 256.559 372.069C249.015 373.069 243.148 370.906 238.386 369.279C195.574 354.655 148.689 343.727 149.854 339.054Z" fill="#BA89E5"/>
<path d="M119.101 333.939C149.062 334.557 169.797 335.148 174.084 335.799C177.802 336.436 181.614 336.277 185.267 335.334C187.056 334.51 188.931 333.886 190.858 333.474C193.062 333.009 194.167 332.767 195.518 333.009C198.001 333.474 199.562 335.078 202.041 337.659C203.737 339.426 204.651 340.375 204.371 340.914C203.845 341.928 199.805 340.151 193.654 339.519C190.707 339.305 187.748 339.305 184.801 339.519C173.911 340.156 161.47 345.438 153.116 347.889C146.769 349.749 137.296 351.586 124.692 350.679L119.101 333.939Z" fill="#AAB51C"/>
<path d="M159.872 439.261C168.725 460.372 167.248 469.537 163.833 473.904C162.901 475.076 160.375 477.796 159.173 482.274C158.707 483.98 157.053 490.09 160.105 494.364C163.302 498.842 168.087 496.331 174.084 501.339C178.338 504.891 176.88 506.919 181.306 510.871C187.089 515.986 194.143 516.595 196.45 516.684C201.673 516.879 209.962 515.521 210.428 512.499C210.978 508.9 199.642 508.002 191.324 497.154C187.903 492.607 185.518 487.37 184.335 481.809C182.988 475.81 183.361 470.96 184.801 461.349C185.97 453.537 187.722 443.423 190.392 431.589L159.872 439.261Z" fill="#AAB51C"/>
<path d="M66.6805 284.417C62.5242 278.967 58.433 276.744 55.2645 268.839C50.6935 257.447 49.4121 237.652 62.7199 226.059C75.0258 215.336 91.5347 218.843 94.8709 219.549C97.8531 220.182 112.973 223.39 117.47 234.197C119.562 239.233 117.139 240.605 119.8 248.147C122.647 256.224 126.691 258.237 126.09 263.724C125.666 267.593 123.565 267.444 122.362 272.559C120.732 279.478 124.152 281.59 122.362 285.579C119.711 291.499 110.993 289.546 107.685 295.577C106.403 297.902 106.627 300.799 108.151 307.202C108.845 310.127 112.195 322.988 127.721 338.357C137.003 347.545 144.104 354.571 154.979 355.794C160.105 356.371 160.823 355.092 173.152 352.483C201.575 346.471 214.454 349.81 225.339 343.239C227.594 341.785 230.137 340.833 232.794 340.449C239.006 339.617 243.945 342.476 245.608 343.472C247.901 344.843 251.489 347.559 250.967 348.819C250.617 349.661 248.548 349.549 244.443 349.284C239.97 348.996 238.465 348.475 235.59 348.354C232.768 348.339 229.953 348.651 227.203 349.284C214.687 351.986 193.822 374.571 170.822 379.974C165.018 381.305 159.027 381.62 153.116 380.904C152.943 384.057 153.213 387.828 155.501 389.246C157.962 390.776 161.657 388.911 162.957 388.274C176.003 381.932 203.201 380.765 218.573 382.532C225.19 383.294 229.197 383.801 233.484 386.716C243.069 393.226 244.984 405.605 245.599 409.966C248.325 429.334 237.71 436.936 226.961 472.276C222.231 487.831 219.883 495.824 220.852 506.351C221.318 511.583 224.323 536.576 241.354 545.974C245.99 548.536 249.532 548.764 249.583 550.564C249.709 554.99 228.615 563.095 217.795 555.269C214.184 552.665 215.265 550.857 210.647 545.258C201.007 533.568 190.961 534.977 189.707 528.518C188.435 522.008 198.458 519.046 201.114 506.296C202.339 500.399 201.291 495.782 200.699 492.699C198.835 483.06 197.116 465.543 197.629 430.854C186.912 435.421 104.53 469.644 76.4796 437.829C69.0522 429.408 68.0923 418.262 66.2285 395.979C61.4944 340.161 85.1184 308.601 66.6805 284.417Z" fill="#E6FF28"/>
<path d="M100.696 486.227C148.932 485.357 194.67 453.328 199.945 423.242C200.653 419.211 202.554 407.13 195.751 400.267C191.171 395.649 183.809 394.771 177.5 396.398C170.44 398.216 166.54 401.155 160.259 405.391C150.39 412.059 138.821 417.323 130.517 419.267C116.021 422.661 94.6384 419.922 89.9789 409.502C84.9884 398.305 104.773 390.437 107.685 366.722C111.632 334.59 80.3382 308.132 76.8482 305.184C73.3582 302.236 67.0118 296.986 57.3618 294.647C50.5915 293.005 44.6785 293.391 42.9171 293.717C19.6565 298 -16.6136 426.479 42.9171 471.347C63.5451 486.896 87.7935 486.459 100.696 486.227Z" fill="#5F00A2"/>
<path d="M204.185 274.768C202.419 276.251 203.034 279.385 203.253 280.743C204.674 288.597 206.888 309.508 206.422 317.422C206.37 318.352 206.179 320.756 207.782 322.537C209.478 324.43 212.283 324.602 213.211 324.671C220.4 325.22 278.389 332.269 286.524 334.055C287.386 334.241 290.224 334.929 291.501 333.627C292.512 332.6 292.088 330.814 291.967 330.214C290.457 323.332 288.798 296.06 289.707 289.271C289.795 288.597 290.14 286.416 288.798 285.007C287.745 283.896 286.128 283.77 285.634 283.728C282.839 283.463 220.461 276.907 209.604 274.344C208.709 274.131 205.825 273.391 204.185 274.768Z" fill="#CFFFFF"/>
<path d="M114.907 229.779C110.145 236.206 96.693 229.858 92.5414 236.289C90.6123 239.279 92.8862 241.632 91.1435 248.379C90.1546 252.103 88.41 255.585 86.018 258.609C83.8047 256.54 80.7387 256.005 78.5626 257.214C75.5479 258.888 75.3708 263.259 76.6988 266.049C78.2598 269.304 81.7917 270.127 82.2903 270.234C84.2799 272.522 86.2975 275.628 85.552 278.604C84.9323 281.092 82.9054 281.394 82.2903 283.719C81.1627 287.983 87.1735 290.15 87.4158 294.879C87.7234 300.896 78.2085 301.812 73.4371 312.084C70.4084 318.594 72.7335 321.486 69.2435 324.639C64.2111 329.187 55.2974 326.885 52.0031 326.034C48.7087 325.183 43.6158 323.867 40.8201 319.524C38.6767 316.181 40.0233 314.344 38.0243 312.549C34.0264 308.955 26.7621 314.637 22.6477 311.154C19.7355 308.69 21.4549 304.226 18.4541 302.784C15.8774 301.547 13.7945 304.44 11.4648 303.249C8.31488 301.64 10.8357 295.698 6.80518 291.624C4.5313 289.327 2.81658 290.294 1.21369 287.904C-0.864483 284.803 0.249155 280.529 0.74773 278.604C1.74488 274.768 3.10547 274.628 4.00943 270.699C4.87145 266.942 3.71588 266.682 4.47539 263.724C5.87326 258.321 9.98301 258.195 10.9988 253.494C11.9307 249.128 8.7622 247.519 10.0669 244.659C12.0332 240.353 19.647 243.111 23.1137 238.614C26.422 234.318 21.2499 229.454 24.5116 221.874C24.7678 221.27 27.1023 216.011 32.4328 213.504C36.9433 211.384 39.0028 213.393 48.7414 213.039C55.6329 212.788 59.1182 212.663 63.186 210.714C69.3833 207.748 69.579 204.074 75.7669 202.344C78.9661 201.443 82.3528 201.443 85.552 202.344C89.9786 203.665 90.7288 206.018 94.8712 208.854C103.44 214.723 109.195 210.793 113.509 215.829C116.594 219.433 117.638 226.092 114.907 229.779Z" fill="#AAB51C"/>
<path d="M212.367 317.785C214.231 314.693 216.071 311.349 218.518 308.662C218.912 308.337 219.289 307.991 219.645 307.625C219.613 307.718 219.203 307.448 219.151 307.481C218.928 307.63 219.119 307.481 218.937 307.946C218.695 308.546 218.779 309.713 218.76 310.373C218.667 313.451 219.785 316.102 222.721 317.394C225.316 318.538 228.857 318.631 231.276 316.99C233.414 315.544 233.377 313.419 233.247 311.089C233.129 309.213 233.159 307.33 233.335 305.458C233.473 304.072 233.696 302.697 234.001 301.338C234.197 300.464 234.775 299.353 234.826 298.478C234.826 298.641 235.786 296.363 234.286 297.469C234.244 297.502 234.407 297.785 234.388 297.869C234.314 298.223 234.57 298.971 234.621 299.348C234.798 300.631 234.933 301.924 235.171 303.198C235.688 305.988 236.634 308.945 238.703 311.019C243.418 315.753 252.127 314.232 256.027 309.252C259.587 304.705 259.666 298.799 260.575 293.363C260.722 292.646 260.917 291.939 261.157 291.248C261.125 291.345 260.692 291.457 260.692 291.41C260.775 291.55 260.994 291.699 261.036 291.875C261.284 292.475 261.573 293.056 261.903 293.614C262.807 295.674 263.52 298.543 265.463 299.911C269.503 302.756 271.795 294.875 272.653 292.438C273.074 291.094 273.568 289.775 274.134 288.485C274.374 288.133 274.59 287.764 274.782 287.383C274.782 287.472 273.976 287.472 274.088 287.314C274.452 288.238 274.763 289.182 275.02 290.141C276.553 297.581 276.567 305.486 276.842 313.037C276.898 314.53 279.227 314.535 279.171 313.037C278.906 305.658 278.705 298.157 277.508 290.852C277.242 289.253 276.898 285.477 274.712 285.165C273.025 284.924 272.219 286.998 271.711 288.23C270.635 290.824 269.969 293.596 268.692 296.107C268.426 296.628 267.821 298.092 267.117 298.144C266.246 298.213 265.426 295.986 265.151 295.381C264.335 293.61 263.66 290.266 261.721 289.336C257.821 287.397 257.821 296.832 257.528 298.529C257.034 301.626 256.302 304.895 254.438 307.495C251.894 311.047 246.806 312.507 242.71 310.931C239.164 309.564 237.962 305.765 237.356 302.356C237.044 300.608 237.296 297.637 236.182 296.135C234.537 293.912 232.86 296.99 232.366 298.413C230.968 302.417 230.67 306.899 230.898 311.103C230.987 312.744 231.318 314.302 229.668 315.255C227.874 316.283 225.172 316.088 223.382 315.172C221.053 313.944 220.987 311.619 221.146 309.294C221.22 308.234 221.584 306.667 220.722 305.797C217.558 302.626 211.109 315.344 210.345 316.613C209.581 317.883 211.584 319.068 212.358 317.785H212.367Z" fill="#5F00A2"/>
<path d="M213.923 289.067C213.742 288.006 213.714 286.821 214.389 286.277C215.27 285.56 216.756 286.421 217.185 285.812C217.614 285.202 216.253 284.268 216.253 282.557C216.253 281.501 216.719 279.92 218.117 279.302C218.756 279.035 219.464 278.981 220.136 279.149C220.807 279.316 221.407 279.696 221.845 280.232C222.665 281.31 222.376 282.71 222.311 283.022C222.026 284.417 221.188 284.696 221.379 285.347C221.672 286.346 223.746 285.979 224.64 287.207C225.307 288.137 224.99 289.494 224.64 290.462L213.923 289.067Z" fill="#FF5100"/>
</svg>
