<svg width="1116" height="653" viewBox="0 0 1116 653" fill="none" xmlns="http://www.w3.org/2000/svg">
<rect x="856.392" y="457.148" width="108.123" height="41.0468" rx="5" fill="#EDEDED"/>
<rect x="621.124" y="198.854" width="405.462" height="320.365" rx="18" fill="#EDEDED"/>
<rect x="901.443" y="395.078" width="2.00229" height="106.121" rx="1.00114" transform="rotate(90 901.443 395.078)" fill="#5F00A2"/>
<rect x="964.515" y="412.098" width="2.00228" height="169.193" rx="1.00114" transform="rotate(90 964.515 412.098)" fill="#5F00A2"/>
<rect x="964.515" y="430.118" width="2.00229" height="169.193" rx="1.00114" transform="rotate(90 964.515 430.118)" fill="#5F00A2"/>
<rect x="964.515" y="447.138" width="2.00228" height="169.193" rx="1.00114" transform="rotate(90 964.515 447.138)" fill="#5F00A2"/>
<rect x="964.515" y="465.158" width="2.00229" height="169.193" rx="1.00114" transform="rotate(90 964.515 465.158)" fill="#5F00A2"/>
<rect x="964.515" y="482.177" width="2.00229" height="169.193" rx="1.00114" transform="rotate(90 964.515 482.177)" fill="#5F00A2"/>
<rect x="795.322" y="236.897" width="214.244" height="129.147" rx="9" fill="#6E00A2"/>
<rect x="654.162" y="264.051" width="95.5806" height="31.4981" rx="11" fill="#FF5100"/>
<rect x="654.162" y="312.928" width="115.131" height="31.4981" rx="11" fill="#FF5100"/>
<circle cx="665.023" cy="242.328" r="5.43071" fill="#5F00A2"/>
<circle cx="694.349" cy="242.328" r="5.43071" fill="#5F00A2"/>
<circle cx="755.173" cy="242.328" r="5.43071" fill="#5F00A2"/>
<circle cx="724.761" cy="242.328" r="5.43071" fill="#5F00A2"/>
<rect x="663.937" y="242.328" width="2.17229" height="123.82" rx="1.08614" fill="#5F00A2"/>
<rect x="693.263" y="242.328" width="2.17229" height="123.82" rx="1.08614" fill="#5F00A2"/>
<rect x="754.087" y="242.328" width="2.17229" height="123.82" rx="1.08614" fill="#5F00A2"/>
<rect x="723.675" y="242.328" width="2.17229" height="123.82" rx="1.08614" fill="#5F00A2"/>
<rect x="695.435" y="312.928" width="28.2397" height="31.4981" fill="#E6FF28"/>
<rect x="695.435" y="312.928" width="28.2397" height="31.4981" fill="#E6FF28"/>
<circle cx="711.227" cy="436.125" r="62.0707" fill="#BA89E5"/>
<circle cx="1000.06" cy="218.376" r="8.50969" fill="#E6FF28"/>
<circle cx="974.026" cy="218.376" r="8.50969" fill="#6E00A2"/>
<circle cx="947.996" cy="218.376" r="8.50969" fill="#FF5100"/>
<path d="M189.69 22.5487L189.69 445.24C189.69 457.346 199.53 467.16 211.668 467.16H469.22C481.358 467.16 491.197 457.346 491.197 445.24V22.5487C491.197 10.4427 481.358 0.628723 469.22 0.628723H211.668C199.53 0.628723 189.69 10.4427 189.69 22.5487Z" fill="#BA89E5"/>
<path d="M228.86 444.343L448.475 444.343C459.825 444.343 469.026 435.166 469.026 423.846L469.026 56.1236C469.026 44.8033 459.825 35.6263 448.475 35.6263L228.86 35.6263C217.51 35.6263 208.309 44.8033 208.309 56.1236L208.309 423.846C208.309 435.166 217.51 444.343 228.86 444.343Z" stroke="#EDEDED" stroke-width="4" stroke-miterlimit="10"/>
<path d="M310.284 23.772L369.246 23.772C371.72 23.772 373.725 21.7722 373.725 19.3053V17.3135C373.725 14.8467 371.72 12.8469 369.246 12.8469L310.284 12.8469C307.811 12.8469 305.806 14.8467 305.806 17.3135V19.3053C305.806 21.7722 307.811 23.772 310.284 23.772Z" fill="#EDEDED"/>
<path d="M246.597 116.574L428.554 116.574C435.177 116.574 440.546 111.219 440.546 104.613V67.3498C440.546 60.7437 435.177 55.3885 428.554 55.3885L246.597 55.3885C239.973 55.3885 234.604 60.7437 234.604 67.3498V104.613C234.604 111.219 239.973 116.574 246.597 116.574Z" fill="#FF5100"/>
<path d="M247.113 224.81L428.801 224.81C435.499 224.81 440.928 219.395 440.928 212.715V138.574C440.928 131.894 435.499 126.479 428.801 126.479L247.113 126.479C240.415 126.479 234.986 131.894 234.986 138.574V212.715C234.986 219.395 240.415 224.81 247.113 224.81Z" fill="#6E00A2"/>
<path d="M317.891 352.24H370.657C372.058 352.24 373.193 351.108 373.193 349.711V293.609C373.193 292.213 372.058 291.081 370.657 291.081H317.891C316.491 291.081 315.355 292.213 315.355 293.609V349.711C315.355 351.108 316.491 352.24 317.891 352.24Z" fill="#FF5100"/>
<path d="M248.76 352.202H301.527C302.927 352.202 304.062 351.07 304.062 349.673V293.571C304.062 292.175 302.927 291.043 301.527 291.043H248.76C247.36 291.043 246.225 292.175 246.225 293.571V349.673C246.225 351.07 247.36 352.202 248.76 352.202Z" fill="#EDEDED"/>
<path d="M317.422 425.993H370.189C371.589 425.993 372.724 424.861 372.724 423.465V367.363C372.724 365.966 371.589 364.834 370.189 364.834H317.422C316.022 364.834 314.887 365.966 314.887 367.363V423.465C314.887 424.861 316.022 425.993 317.422 425.993Z" fill="#E6FF28"/>
<path d="M248.76 425.993H301.527C302.927 425.993 304.062 424.861 304.062 423.465V367.363C304.062 365.966 302.927 364.834 301.527 364.834H248.76C247.36 364.834 246.225 365.966 246.225 367.363V423.465C246.225 424.861 247.36 425.993 248.76 425.993Z" fill="#5F00A2"/>
<path d="M268.488 279.962C280.813 279.962 290.804 269.997 290.804 257.704C290.804 245.411 280.813 235.446 268.488 235.446C256.162 235.446 246.171 245.411 246.171 257.704C246.171 269.997 256.162 279.962 268.488 279.962Z" fill="#E6FF28"/>
<path d="M304.896 249.506H373.02" stroke="#5F00A2" stroke-width="5" stroke-miterlimit="10"/>
<path d="M305.338 265.815H373.462" stroke="#5F00A2" stroke-width="5" stroke-miterlimit="10"/>
<path d="M431.885 308.475C443.975 308.475 453.776 298.699 453.776 286.641C453.776 274.582 443.975 264.807 431.885 264.807C419.795 264.807 409.994 274.582 409.994 286.641C409.994 298.699 419.795 308.475 431.885 308.475Z" fill="#5F00A2"/>
<path d="M431.885 369.28C443.975 369.28 453.776 359.504 453.776 347.445C453.776 335.387 443.975 325.611 431.885 325.611C419.795 325.611 409.994 335.387 409.994 347.445C409.994 359.504 419.795 369.28 431.885 369.28Z" fill="#E6FF28"/>
<path d="M431.885 430.074C443.975 430.074 453.776 420.298 453.776 408.24C453.776 396.181 443.975 386.406 431.885 386.406C419.795 386.406 409.994 396.181 409.994 408.24C409.994 420.298 419.795 430.074 431.885 430.074Z" fill="#FF5100"/>
<path d="M411.407 96.5165C418.124 88.6884 418.457 77.9775 412.149 72.5931C405.842 67.2088 395.283 69.1898 388.565 77.018C381.848 84.8462 381.515 95.557 387.823 100.941C394.13 106.326 404.689 104.345 411.407 96.5165Z" fill="#F99770"/>
<path d="M270.173 88.2491C256.501 111.533 286.127 111.715 272.746 88.2491C286.127 111.699 301.102 86.1983 274.048 86.0319C301.102 86.1983 286.429 60.5149 272.773 83.7986C286.445 60.5149 256.818 60.3324 270.2 83.7986C256.818 60.3485 241.844 85.8494 268.897 86.0158C241.844 85.8494 256.501 111.533 270.173 88.2491Z" fill="#F8FF97"/>
<path d="M313.692 82.3118C316.641 83.101 316.523 83.9868 319.575 83.9868C322.627 83.9868 322.622 82.285 325.674 82.285C328.726 82.285 328.726 83.9868 331.778 83.9868C334.83 83.9868 334.83 82.285 337.882 82.285C340.934 82.285 340.928 83.9868 343.98 83.9868C347.032 83.9868 347.032 82.285 350.09 82.285C353.147 82.285 353.465 84.7438 356.414 83.96C357.2 83.7506 355.338 82.3494 355.338 81.5119C355.338 80.6744 357.049 80.7066 357.049 79.9013C357.049 79.096 355.338 79.0853 355.338 78.2907C355.338 77.4962 357.049 77.4801 357.049 76.6802C357.049 75.8802 355.338 75.8695 355.338 75.0696C355.338 74.2697 357.049 74.2536 357.049 73.459C357.049 72.6644 356.759 72.8684 355.973 72.6591C353.023 71.8699 353.142 70.9787 350.09 70.9787C347.038 70.9787 347.043 72.6859 343.991 72.6859C340.939 72.6859 340.939 70.9787 337.887 70.9787C334.835 70.9787 334.835 72.6859 331.783 72.6859C328.731 72.6859 328.736 70.9787 325.684 70.9787C322.632 70.9787 322.632 72.6859 319.575 72.6859C316.518 72.6859 316.2 70.2271 313.25 71.0109C312.465 71.2203 314.327 72.6215 314.327 73.4536C314.327 74.2858 312.615 74.2643 312.615 75.0642C312.615 75.8641 314.327 75.8749 314.327 76.6748C314.327 77.4747 312.615 77.4908 312.615 78.2854C312.615 79.0799 314.327 79.096 314.327 79.8959C314.327 80.6959 312.847 80.5241 312.642 81.3133C312.508 81.8286 312.906 82.1024 313.692 82.3118Z" fill="#BA89E5"/>
<path d="M313.692 99.3567C316.642 100.141 316.523 101.032 319.575 101.032C322.627 101.032 322.622 99.3299 325.674 99.3299C328.726 99.3299 328.726 101.032 331.778 101.032C334.83 101.032 334.83 99.3299 337.882 99.3299C340.934 99.3299 340.928 101.021 343.97 101.021C347.011 101.021 347.022 99.3192 350.079 99.3192C353.136 99.3192 353.454 101.778 356.404 100.994C357.189 100.785 355.327 99.3567 355.327 98.5461C355.327 97.7354 357.039 97.7354 357.039 96.9355C357.039 96.1356 355.327 96.1248 355.327 95.3249C355.327 94.525 357.039 94.5143 357.039 93.7143C357.039 92.9144 355.327 92.9037 355.327 92.1038C355.327 91.3038 357.039 91.2877 357.039 90.4932C357.039 89.6986 356.748 89.8973 355.962 89.6879C353.012 88.9041 353.131 88.0129 350.079 88.0129C347.027 88.0129 347.032 89.7201 343.98 89.7201C340.928 89.7201 340.928 88.0129 337.876 88.0129C334.824 88.0129 334.824 89.7201 331.772 89.7201C328.72 89.7201 328.726 88.0129 325.674 88.0129C322.622 88.0129 322.622 89.7201 319.564 89.7201C316.507 89.7201 316.189 87.2613 313.24 88.0451C312.454 88.2491 314.316 89.6557 314.316 90.4878C314.316 91.3199 312.604 91.2985 312.604 92.0984C312.604 92.8983 314.316 92.9091 314.316 93.709C314.316 94.5089 312.604 94.5196 312.604 95.3196C312.604 96.1195 314.316 96.1302 314.316 96.9301C314.316 97.7301 312.836 97.5583 312.631 98.3421C312.508 98.8736 312.906 99.1474 313.692 99.3567Z" fill="#BA89E5"/>
<path d="M295.69 415.078C298.868 411.908 292.616 400.533 281.725 389.67C270.834 378.808 259.429 372.572 256.25 375.742C253.072 378.912 259.324 390.288 270.215 401.15C281.106 412.012 292.511 418.248 295.69 415.078Z" stroke="#FF5100" stroke-width="3" stroke-linecap="round" stroke-linejoin="round"/>
<path d="M287.021 395.409C294.524 386.535 298.325 378.353 295.687 375.744C292.511 372.571 281.105 378.809 270.216 389.67C259.327 400.531 253.072 411.907 256.232 415.085C259.392 418.263 270.814 412.019 281.703 401.159C283.619 399.248 285.395 397.315 286.999 395.42" stroke="#E6FF28" stroke-width="3" stroke-miterlimit="10"/>
<path d="M323.31 396.477C323.31 398.715 321.566 401.206 322.234 403.225C322.901 405.244 325.819 406.307 327.078 408.057C328.338 409.807 328.413 412.888 330.179 414.15C331.944 415.412 334.846 414.537 336.945 415.224C339.044 415.911 340.804 418.332 343.049 418.332C345.293 418.332 347.124 415.884 349.147 415.224C351.171 414.563 354.169 415.433 355.913 414.15C357.657 412.867 357.733 409.818 359.019 408.057C360.306 406.296 363.191 405.329 363.864 403.225C364.537 401.12 362.787 398.715 362.787 396.477C362.787 394.238 364.531 391.752 363.864 389.728C363.196 387.704 360.279 386.652 359.019 384.897C357.76 383.141 357.679 380.065 355.913 378.803C354.148 377.542 351.247 378.422 349.147 377.73C347.048 377.037 345.293 374.621 343.049 374.621C340.804 374.621 338.974 377.075 336.945 377.73C334.916 378.384 331.928 377.525 330.179 378.803C328.429 380.081 328.365 383.136 327.078 384.897C325.792 386.658 322.907 387.624 322.234 389.728C321.561 391.833 323.31 394.238 323.31 396.477Z" stroke="#5F00A2" stroke-width="3" stroke-miterlimit="10"/>
<path d="M331.982 311.084C331.982 307.823 333.281 304.696 335.592 302.39C337.904 300.085 341.039 298.79 344.309 298.79V323.372C342.69 323.373 341.087 323.056 339.592 322.438C338.096 321.821 336.738 320.916 335.593 319.775C334.448 318.634 333.54 317.279 332.921 315.788C332.301 314.296 331.982 312.698 331.982 311.084Z" fill="#E6FF28"/>
<path d="M355.941 311.084C357.559 311.083 359.162 311.401 360.658 312.018C362.153 312.635 363.512 313.54 364.657 314.681C365.801 315.823 366.709 317.177 367.329 318.669C367.948 320.16 368.267 321.758 368.267 323.373H343.62C343.62 320.114 344.918 316.988 347.229 314.683C349.539 312.379 352.673 311.084 355.941 311.084Z" fill="#E6FF28"/>
<path d="M356.49 333.965C356.49 335.579 356.172 337.178 355.553 338.669C354.935 340.161 354.027 341.516 352.883 342.658C351.739 343.8 350.38 344.705 348.885 345.323C347.39 345.941 345.787 346.259 344.169 346.259V321.671C345.787 321.671 347.39 321.989 348.885 322.607C350.38 323.225 351.739 324.13 352.883 325.272C354.027 326.414 354.935 327.769 355.553 329.261C356.172 330.752 356.49 332.351 356.49 333.965Z" fill="#E6FF28"/>
<path d="M332.392 334.818C329.123 334.817 325.988 333.521 323.677 331.216C321.366 328.911 320.067 325.785 320.065 322.524H344.718C344.718 325.785 343.419 328.912 341.108 331.218C338.796 333.523 335.661 334.818 332.392 334.818Z" fill="#E6FF28"/>
<path d="M131.077 313.309C151.35 337.25 150.902 339.225 150.263 340.243C145.498 348.083 99.8358 344.163 89.5073 319.295C83.5277 304.84 90.2428 285.209 99.1003 283.384C101.499 282.875 105.496 283.384 131.077 313.309Z" fill="#E6FF28"/>
<path d="M89.5067 208.569C92.7043 208.24 92.3526 222.814 105.495 235.502C114.258 243.445 125.423 248.67 137.471 250.465C152.692 253.084 168.41 250.982 182.239 244.48C185.445 254.458 184.295 265.219 179.041 274.405C167.082 293.618 140.189 292.361 137.471 292.361C105.911 290.565 90.7538 259.143 89.5067 256.45C78.9864 233.826 85.2858 208.988 89.5067 208.569Z" fill="#AAB51C"/>
<path d="M277.336 191.302L106.997 350.716L82.8552 328.272L253.194 168.708L290.958 154.703L277.336 191.302Z" fill="#FF5100"/>
<path d="M70.321 145.727C68.1786 147.732 62.8385 152.64 63.9257 157.697C64.5333 160.421 66.4839 160.69 67.1234 163.683C68.2745 168.89 63.0624 171.074 63.9257 175.653C64.5972 179.214 68.4344 181.638 73.5187 184.631C79.2745 188.132 82.0884 188.012 83.1116 190.616C84.1349 193.219 81.9605 196.601 79.914 199.593C76.9568 203.74 73.1534 207.3 68.7222 210.067C58.4897 216.052 35.6905 252.412 35.1469 295.355C34.6353 336.952 55.2921 367.177 68.7222 386.628C74.505 395.023 80.9164 403.023 87.9081 410.569C82.302 414.224 76.9609 418.223 71.9199 422.539C30.3504 458.45 15.929 511.299 14.3622 518.301C13.8433 521.441 12.7622 524.476 11.1645 527.279C7.58315 533.473 3.84189 534.012 1.57156 539.249C1.34772 539.818 -1.84993 547.419 1.57156 551.219C3.74596 553.613 11.6122 552.805 27.1528 551.219C33.8998 550.531 36.362 550.112 39.9434 551.219C43.0152 552.541 46.2318 553.544 49.5363 554.212C51.6306 554.741 53.8373 554.741 55.9316 554.212C60.7281 552.566 64.1496 546.072 62.3269 542.242C60.824 539.099 56.731 539.728 46.3387 536.257C38.2166 533.533 31.3417 531.229 30.3504 527.279C29.0713 522.072 38.4085 515.967 41.5422 513.812C82.568 485.832 116.623 462.25 131.076 438.998C134.022 434.35 136.18 429.303 137.472 424.035C139.913 413.008 138.8 401.552 134.274 391.117C141.757 398.1 149.218 405.083 156.658 412.065C152.324 420.005 149.613 428.631 148.663 437.502C145.977 464.974 160.847 501.244 167.849 518.301C168.969 520.653 169.515 523.209 169.448 525.783C169.192 531.139 165.995 532.995 164.652 539.249C163.884 542.93 163.117 545.952 164.652 548.227C166.986 551.638 172.838 551.219 180.64 551.219C204.718 551.429 210.666 556.636 219.012 551.219C222.209 549.244 226.334 545.234 225.407 542.242C224.224 538.321 215.366 539.249 203.024 533.264C199.594 531.616 196.375 529.608 193.431 527.279C182.591 517.703 194.39 495.857 199.826 464.435C203.855 441.273 207.34 419.906 199.826 395.606C195.695 382.689 189.204 370.539 180.64 359.695C169.257 344.666 154.748 331.943 137.983 322.288C124.393 335.635 107.606 336.742 102.202 331.266C97.4371 326.448 99.2278 314.179 108.309 303.316C96.1261 296.612 93.8877 294.517 94.2075 293.859C94.9429 292.393 107.702 300.652 126.184 299.844C134.306 299.485 138.271 297.66 145.37 299.844C152.469 302.029 154.419 305.829 159.919 305.141C162.376 304.794 164.692 303.844 166.629 302.388C168.567 300.932 170.058 299.022 170.951 296.852C171.143 296.433 172.742 292.333 170.951 290.866C169.16 289.4 164.972 291.585 164.556 290.866C164.14 290.148 171.431 286.048 170.951 284.881C170.471 283.714 165.131 284.552 148.568 288.921C144.027 288.682 117.902 286.976 100.603 266.926C84.039 247.534 82.6 218.835 97.4051 195.104C102.489 196.75 105.335 196.092 106.998 195.104C110.42 193.099 109.844 189.119 113.393 186.127C116.089 184.059 119.504 182.993 122.986 183.134C118.637 176.919 116.407 169.614 116.591 162.186C116.911 156.381 118.893 153.209 116.591 150.216C113.873 146.565 109.236 148.51 100.603 144.231C94.3994 141.238 95.1348 139.323 91.0098 138.246C81.289 135.702 71.5681 144.47 70.321 145.727Z" fill="#E6FF28"/>
<path d="M533.469 284.433C536.263 292.555 543.487 309.399 560.782 320.728C575.777 330.552 599.37 336.896 606.472 328.622C611.246 323.054 607.601 311.988 615.926 300.741C616.927 299.382 617.777 298.473 618.551 298.636C621.834 299.353 620.379 318.944 618.551 335.986C606.414 340.65 584.899 346.831 558.68 343.35C549.518 342.126 540.531 339.831 531.903 336.511L533.469 284.433Z" fill="#AAB51C"/>
<path d="M617.573 305.901C615.411 312.983 613.752 320.21 612.607 327.526C612.435 328.616 612.138 329.682 611.723 330.704C610.944 332.449 609.878 334.049 608.567 335.438C603.73 340.452 582.803 345.437 568.134 350.691C563.622 352.306 560.921 353.513 557.103 352.796C549.896 351.443 545.46 344.499 543.446 340.697C542.891 333.087 542.224 325.332 541.444 317.434C540.093 303.849 538.485 290.738 536.618 278.102C538.219 275.868 540.646 273.321 543.976 272.854C548.464 272.201 550.961 275.845 554.454 274.428C556.998 273.402 558.308 270.399 559.495 267.688C560.939 264.388 560.52 262.902 562.33 260.756C564.14 258.61 565.398 259.211 566.533 257.596C568.861 254.307 564.752 250.191 564.955 243.393C565.113 238.11 567.674 237.708 568.11 233.399C569.053 223.995 558.214 212.246 546.048 209.728C538.696 208.206 532.444 210.381 529.749 211.308C526.734 212.351 521.529 214.159 517.14 219.196C511.482 225.697 510.964 233.23 510.842 235.522C510.586 240.157 511.558 243.888 512.943 249.2C514.725 256.057 516.855 259.986 515.569 265.525C515.124 266.973 514.435 268.334 513.531 269.548C500.292 285.371 489.312 302.958 480.904 321.807C470.303 345.636 466.397 365.862 464.022 378.683C462.858 384.997 461.694 396.553 459.051 419.618C454.359 460.432 454.132 469.218 449.819 485.882C447.431 495.091 444.516 504.155 441.087 513.028C437.74 521.581 434.497 528.339 432.629 532.21C429.672 538.344 426.941 543.504 424.753 547.469C415.771 550.982 407.431 555.958 400.071 562.196C382.293 577.356 385.693 595.628 369.038 603.657C364.69 605.756 358.182 607.645 357.006 612.694C355.999 617.009 359.433 621.271 360.155 622.163C364.731 627.836 369.469 625.708 377.485 631.631C383.038 635.713 382.258 637.847 386.414 639.52C394.488 642.773 404.926 637.812 404.798 635.31C404.745 634.343 403.133 634.226 397.446 631.631C391.304 628.833 388.236 627.433 386.414 625.317C381.758 619.941 383.073 612.169 383.265 611.114C383.9 607.831 385.343 604.759 387.462 602.176C401.299 584.743 451.774 560.482 452.584 560.092C470.292 551.585 472.335 550.518 475.694 547.469C484.152 539.796 486.568 532.601 499.328 512.224C503.984 504.801 507.925 498.936 510.359 495.391C514.805 502.341 520.741 508.213 527.734 512.581C534.728 516.948 542.604 519.702 550.792 520.643C538.882 528.951 531.583 537.516 527.164 543.784C516.104 559.398 507.372 582.312 499.851 602.176C497.762 607.674 496.72 610.922 493.553 614.799C490.107 618.997 487.249 620.128 486.201 624.244C486.102 624.629 484.943 629.492 487.778 633.713C490.328 637.52 494.548 638.511 497.674 639.188C503.146 640.354 507.431 639.462 510.37 638.972C529.487 635.771 537.963 642.942 545.029 636.342C545.257 636.132 549.186 632.378 548.179 629.503C547.597 627.894 545.711 627.124 539.779 625.818C528.492 623.335 526.117 624.069 521.919 621.615C520.371 620.711 515.97 618.116 515.097 613.72C514.329 609.86 516.616 606.403 517.722 604.782C528.16 589.465 551.485 564.505 562.359 551.655C568.64 544.221 571.021 540.501 577.593 534.822C583.944 529.324 587.058 528.176 589.235 523.855C593.444 515.535 589.154 505.437 587.559 501.7C579.159 481.929 556.625 466.046 535.564 451.202C533.37 449.732 531.571 447.744 530.325 445.412C527.706 440.328 528.847 434.918 529.272 432.789C531.641 420.831 531.728 405.176 531.903 373.902C531.903 372.228 531.903 370.893 531.903 370.217C536.891 373.715 546.205 379.062 557.108 377.581C560.543 377.114 563.296 375.861 568.663 373.371C580.748 367.768 596.762 358.375 605.919 350.755C608.009 349.006 609.918 347.257 613.271 346.021C617.421 344.516 619.878 345.298 621.677 343.391C623.848 341.059 623.016 337.053 622.725 335.502C621.589 329.375 621.007 319.393 621.805 302.205C619.808 301.552 618.184 303.901 617.573 305.901Z" fill="#E6FF28"/>
<path d="M565.252 223.155C568.198 220.525 567.452 213.972 566.306 210.532C565.037 206.783 563.331 206.783 561.567 202.637C558.796 196.101 560.269 189.566 559.466 189.49C558.919 189.437 558.884 192.568 556.317 194.737C555.734 195.25 554.064 196.655 552.638 196.317C548.737 195.396 549.145 182.173 547.399 182.114C546.554 182.085 546.671 185.099 544.249 187.362C541.828 189.624 537.543 190.504 534.796 188.942C532.595 187.688 533.102 185.875 530.593 182.103C527.682 177.689 523.217 174.523 522.187 175.263C521.285 175.911 523.858 178.995 523.765 184.207C523.689 188.446 521.861 193.419 519.562 193.676C516.698 193.991 514.323 186.825 512.739 187.362C511.517 187.77 513.03 191.909 511.162 197.355C510.492 199.302 510.242 198.941 507.483 204.194C505.416 208.136 504.386 210.106 503.81 212.083C502.645 216.001 502.983 219.272 503.286 222.076C503.868 227.324 505.259 230.67 506.959 235.23C512.78 250.855 512.157 254.674 514.835 255.216C518.689 255.998 524.993 249.106 525.866 242.069C526.6 236.157 523.06 233.725 524.289 227.866C525.063 224.181 527.548 219.948 531.117 217.872C542.218 211.447 559.018 228.717 565.252 223.155Z" fill="#AAB51C"/>
<path d="M1029.32 515.623C1021.05 539.781 1017.7 558.578 1016.2 571.469C1016.46 569.662 1016.79 567.527 1016.86 567.527C1017.05 567.527 1012.99 584.878 1017.51 587.237C1021.38 589.254 1027.07 578.006 1037.85 578.039C1044.14 578.039 1050.51 581.922 1050.31 584.609C1049.88 590.253 1020.4 590.272 1020.14 595.121C1019.88 599.865 1047.93 603.005 1047.68 607.604C1047.53 610.383 1037.14 613.767 1027.35 611.546C1017.17 609.234 1017.25 603.005 1008.98 601.034C994.167 597.453 983.194 614.831 973.565 609.575C969.708 607.473 967.15 602.348 968.317 599.063C971.039 591.422 993.735 594.661 994.554 589.865C995.151 586.389 983.443 583.354 984.06 579.353C984.538 576.232 992.357 573.532 998.49 575.411C1001.88 576.449 1002.85 578.308 1003.74 578.039C1006.24 577.27 1004.5 560.517 991.275 504.454L1029.32 515.623Z" fill="#A8A7A7"/>
<path d="M1098.52 439.746C1117.98 475.434 1104.48 534.723 1067.03 558.664C1037.89 577.297 1004.31 568.085 969.957 558.664C922.383 545.616 846.931 509.572 850.578 471.282C852.966 446.217 888.248 430.778 908.3 422.007C965.044 397.178 1068.35 384.393 1098.52 439.746Z" fill="#5F00A2"/>
<path d="M1044.41 367.147C1050.59 370.649 1053.69 372.403 1059.82 374.702C1068.67 378.02 1069.4 380.977 1103.77 413.466C1109.9 419.267 1114.5 423.544 1115.57 430.548C1115.83 432.223 1116.32 436.941 1111.64 446.973C1102.45 466.683 1089.75 471.591 1080.48 493.949L1080.18 494.685C1080 495.342 1080 496.098 1079.8 498.903C1079.67 500.611 1079.52 504.514 1078.49 512.345C1077.83 517.201 1077.07 523.39 1073.57 529.756C1071.34 533.79 1067.01 539.802 1064.38 538.954C1062.52 538.35 1061.52 534.204 1061.43 532.056C1061.41 531.385 1061.42 530.714 1061.47 530.045C1061.64 528.114 1062.13 527.102 1062.09 524.172C1061.98 518.626 1059.96 512.345 1058.15 512.345C1055.39 512.345 1054.36 526.905 1052.91 526.8C1051.12 526.675 1046.12 508.528 1055.53 493.949C1058.46 489.477 1062.4 485.763 1067.03 483.109C1071.19 472.201 1076.24 461.653 1082.12 451.572C1084.28 447.88 1086.48 444.378 1088.68 441.06C1083.03 435.445 1076.35 430.982 1069 427.92C1066.44 426.862 1063.81 425.984 1061.13 425.292C1056.4 439.563 1050.47 453.409 1043.42 466.683C1029.54 492.819 1021.65 504.284 1009.31 512.674C1002.62 517.22 986.119 526.602 958.15 524.5C956.432 524.369 951.932 523.948 947.655 526.471C941.752 529.953 939.463 537.167 938.472 542.896L908.3 511.36L891.245 513.988C893.697 521.618 894.37 529.709 893.213 537.64C891.868 546.26 889.114 548.31 882.062 563.921C872.794 584.426 868.255 594.846 872.551 603.012C874.093 605.936 876.717 608.498 877.143 613.525C877.215 614.405 877.687 620.949 873.863 624.694C869.928 628.563 865.054 625.83 853.529 626.008C836.62 626.264 828.112 632.44 823.357 627.322C823.107 627.059 821.054 624.779 821.389 622.066C821.986 617.23 829.49 616.369 841.723 608.268C848.538 603.755 850.597 601.114 851.562 599.727C854.062 595.992 855.636 591.712 856.153 587.244C857.931 573.276 856.324 540.196 861.073 518.587C861.919 514.75 863.073 510.769 863.368 504.461C863.821 494.797 861.355 491.249 863.368 485.408C863.821 484.094 865.94 478.312 873.207 472.268C881.951 465.002 890.425 464.528 918.794 460.113C941.299 456.612 945.143 455.554 948.967 451.572C951.742 448.688 954.425 442.092 959.79 428.906C963.07 420.792 963.791 417.947 962.414 416.422C961.397 415.292 959.18 414.786 946.999 418.722C934.819 422.657 931.323 425.036 922.074 427.263C911.002 429.924 907.289 428.63 905.676 427.92C900.888 425.798 898.461 421.619 896.493 418.065C882.607 392.803 882.141 379.091 872.551 375.688C871.24 375.222 867.743 374.505 860.745 373.06C853.188 371.503 852.873 371.68 850.906 371.089C841.119 368.185 833.287 359.558 834.507 357.292C835.163 356.037 838.312 357.331 848.938 358.606C857.012 359.572 866.582 360.721 867.304 358.606C868.255 355.82 854.599 349.519 855.497 347.437C856.061 346.123 862.161 347.167 866.976 349.079C868.111 349.526 872.774 351.451 878.783 356.963C880.803 358.816 883.637 361.681 888.95 369.118C894.945 377.514 895.601 379.834 898.789 384.229C902.068 388.782 907.552 394.787 916.827 400.326C936.065 392.803 947.695 385.116 954.871 379.302C959.58 375.484 964.782 370.511 973.565 368.461C979.573 367.061 982.452 368.152 989.051 365.55C992.744 364.098 1000.86 360.912 1001.44 354.992C1001.55 353.512 1001.31 352.027 1000.74 350.657C1000.18 349.287 999.29 348.071 998.162 347.108C995.65 345.137 993.302 346.129 991.603 343.823C990.809 342.746 990.632 341.353 990.291 338.567C990.028 336.445 989.858 335.065 990.291 333.311C990.809 331.222 991.603 330.959 991.603 329.369C991.603 327.352 990.337 326.918 990.291 325.427C990.206 322.707 994.364 322.201 996.194 318.857C998.306 315 994.836 311.899 995.538 306.374C995.879 303.673 997.27 299.968 1002.1 295.862C999.566 292.235 999.566 290.349 1000.13 289.292C1001.02 287.623 1003.27 288.116 1004.72 286.007C1006.26 283.779 1004.77 281.71 1006.03 280.75C1007.86 279.358 1011.28 283.418 1015.22 282.064C1016.92 281.473 1016.72 280.501 1018.5 280.093C1019.82 279.825 1021.2 279.928 1022.47 280.391C1023.75 280.855 1024.87 281.661 1025.71 282.722C1027.24 284.824 1026.5 286.907 1027.68 287.321C1028.58 287.636 1029.3 286.493 1032.27 284.693C1034.63 283.26 1035.81 282.544 1036.86 282.722C1039.43 283.149 1039.66 287.077 1042.11 287.321C1043.67 287.472 1044.08 285.934 1046.04 286.007C1047.59 286.066 1049.44 287.123 1049.98 288.635C1051.04 291.578 1046.41 294.278 1047.36 296.519C1048.35 298.89 1053.99 296.965 1055.88 299.804C1057.78 302.642 1053.26 307.589 1055.23 309.659C1056.2 310.69 1057.51 309.711 1059.16 310.973C1060 311.684 1060.63 312.611 1060.97 313.654C1061.32 314.696 1061.37 315.814 1061.13 316.886C1060.51 319.323 1058.33 319.783 1058.51 321.485C1058.66 323.035 1060.51 323.022 1061.13 324.77C1062.02 327.273 1059.58 331.156 1056.54 332.654C1054.57 333.613 1053.82 332.858 1052.6 333.968C1050.71 335.703 1051.86 337.969 1049.98 339.881C1048.67 341.195 1046.37 341.852 1044.73 341.195C1042.65 340.367 1042.33 337.759 1041.45 337.91C1040.58 338.061 1040.99 340.847 1039.49 343.166C1038.17 345.19 1035.9 346.044 1034.24 346.451C1033.06 348.659 1031.43 352.581 1032.6 356.635C1033.52 359.828 1035.94 362.351 1044.41 367.147Z" fill="#E6FF28"/>
<path d="M939.928 536.668C941.155 524.264 943.917 520.762 941.555 514.691C938.748 507.464 930.096 500.237 919.673 501.164C909.834 502.057 902.763 509.869 900.907 517.037C899.359 523.022 902.114 525.887 903.531 535.262C903.806 537.148 903.629 538.324 903.892 544.191C904.134 549.519 904.364 553.599 904.39 554.046C905.256 568.71 919.024 594.866 917.509 607.264C917.063 610.877 916.197 615.148 916.197 615.148C915.706 617.814 915.049 620.447 914.229 623.032C913.499 625.277 912.622 627.471 911.605 629.602C910.053 632.839 908.153 635.897 905.938 638.721C900.363 645.751 896.099 646.605 896.519 648.655C897.077 651.283 905.23 653.911 911.887 651.283C920.152 648.044 922.586 639.831 928.765 636.277C932.398 634.188 934.012 634.05 935.947 632.939C936.73 632.474 937.462 631.928 938.131 631.31C941.955 628.025 945.242 620.752 943.746 614.477C942.618 609.747 939.81 609.826 937.187 605.279C930.522 593.624 940.276 577.6 940.637 561.674C940.722 556.694 938.295 553.198 939.928 536.668Z" fill="#E6FF28"/>
</svg>
